<svg id="Layer_1" data-name="Layer 1" xmlns="http://www.w3.org/2000/svg" xmlns:xlink="http://www.w3.org/1999/xlink" viewBox="0 0 74 74"><defs><style>.cls-1{fill:url(#linear-gradient);}.cls-2{fill:url(#linear-gradient-2);}.cls-3{fill:url(#linear-gradient-3);}</style><linearGradient id="linear-gradient" x1="59.14" y1="66.55" x2="15.11" y2="19.88" gradientUnits="userSpaceOnUse"><stop offset="0" stop-color="#1c78ad"/><stop offset="0.99" stop-color="#32ca9b"/></linearGradient><linearGradient id="linear-gradient-2" x1="64.05" y1="61.92" x2="20.02" y2="15.25" xlink:href="#linear-gradient"/><linearGradient id="linear-gradient-3" x1="-0.63" y1="37.07" x2="71.51" y2="37.07" gradientTransform="matrix(-1, 0, 0, 1, 72.87, 0)" xlink:href="#linear-gradient"/></defs><path class="cls-1" d="M59.65,30.11a4.1,4.1,0,0,0-2.9,2.59c-1-1.91-1.86-3.67-2.72-5.45a6.59,6.59,0,0,0-6.25-4q-6.95,0-13.88,0a7.78,7.78,0,0,1-.71,2c4.81,0,9.63,0,14.45,0a4.19,4.19,0,0,1,3.45,1.56c1.45,1.84,1.9,4.14,2.93,6.29H21.17c.49-1.42.87-2.8,1.37-4.11a8.4,8.4,0,0,1-1.93-1.22s0,0,0,.06q-1,2.46-1.9,4.93c-.09.23-.22.45-.42.88a3.94,3.94,0,0,0-2.95-3.47,3.28,3.28,0,0,0-3.68,2.23c-.44,1.18.1,2.22,1.66,2.92A19.42,19.42,0,0,0,16,36a10.71,10.71,0,0,0-1.78,5.18c0,2.53.06,5.06.15,7.59.07,2.38.21,4.76.31,7.14,0,.43,0,.86,0,1.28A2.75,2.75,0,0,0,17.34,60,2.7,2.7,0,0,0,20,57.23c0-.45,0-.9,0-1.39H54.9c0,.59,0,1.12,0,1.66A2.68,2.68,0,0,0,57.57,60a2.61,2.61,0,0,0,2.63-2.59,60.24,60.24,0,0,1,.08-6.31,61.59,61.59,0,0,0,.42-9.69,6.63,6.63,0,0,0-.32-2c-.41-1.2-.94-2.35-1.42-3.52a5.68,5.68,0,0,0,3.41-1.05,2.11,2.11,0,0,0,1-1.78A3.4,3.4,0,0,0,59.65,30.11ZM26.11,41.45H40.4c2.66,0,5.32,0,8,0a4.33,4.33,0,0,1,1.08.29c-.12.35-.21.71-.36,1.05-.36.8-1,.87-1.81.86-3.29-.07-6.58,0-9.87,0H27.05a2.23,2.23,0,0,1-1.7-1.52C25.3,41.57,25.67,41.45,26.11,41.45ZM47.7,44.58a19,19,0,0,1-1.31,1.83,1.4,1.4,0,0,1-.94.41q-8,0-16,0a1.68,1.68,0,0,1-1.05-.54,14.78,14.78,0,0,1-1.24-1.7ZM17.19,41.82c1.44-1.51,3.41-1,5.24,1.44C20.49,44.71,19,44.29,17.19,41.82ZM49.26,53.56H25.62a3.6,3.6,0,0,1-2.9-1.7H52.13A3.43,3.43,0,0,1,49.26,53.56Zm2.53-2.36q-14.46-.09-28.92,0c-1.2,0-1.64-.75-2.41-1.64h33.9C53.62,50.58,53,51.21,51.79,51.2Zm.67-7.89c2-2.69,3.65-2.82,5.21-1.53C55.75,44.23,54.45,44.73,52.46,43.31Z"/><path class="cls-2" d="M25.89,14.15a7.32,7.32,0,1,0,6.29,11.07,7.11,7.11,0,0,0,1-3.75A7.31,7.31,0,0,0,25.89,14.15Zm-6.3,5.08.46-.11h0l6.67,1.09L25,21.15l-5.42-1.79A.07.07,0,0,1,19.59,19.23Zm8.5,4-.6,1.37,0,0-.55.09a.06.06,0,0,1-.06,0l-.12-.05s-.06-.07,0-.1l.11-.06.07-.05.34-1.22v0h0l0-.63L28.67,22Zm3.35-2.75c-.53.28-2.54,1.12-2.77,1.22l-1.58.69-1.82.75h0l-2.5.63a.1.1,0,0,0-.05,0l-.38.87a.08.08,0,0,1-.06,0h-.12a.07.07,0,0,1-.06,0L21.8,24s0,0,0,0l-1.9-.91a.06.06,0,0,1,0-.11l.34-.24h.05l2,.31h.05l5.23-2.89c.73-.34,2.17-1,2.56-1.15a1.66,1.66,0,0,1,1.15.05h0c.14,0,1.21,0,1.27.25S32,20.22,31.44,20.51Z"/><path class="cls-3" d="M37.44,73.14A36.07,36.07,0,1,0,1.37,37.07,36.11,36.11,0,0,0,37.44,73.14Zm0-71.39A35.32,35.32,0,1,1,2.12,37.07,35.36,35.36,0,0,1,37.44,1.75Z"/></svg>