<svg id="Layer_1" data-name="Layer 1" xmlns="http://www.w3.org/2000/svg" xmlns:xlink="http://www.w3.org/1999/xlink" viewBox="0 0 550 310"><defs><style>.cls-1{fill:none;}.cls-2{opacity:0.18;}.cls-3{opacity:0.56;}.cls-4{fill:#43bb94;}.cls-5{opacity:0.34;}.cls-6{fill:#9dc89e;}.cls-7{fill:#599e85;}.cls-8{fill:#10213a;}.cls-9{fill:url(#linear-gradient);}.cls-10{fill:url(#linear-gradient-2);}.cls-11{fill:url(#linear-gradient-3);}.cls-12{fill:url(#linear-gradient-4);}.cls-13{fill:url(#linear-gradient-5);}.cls-14{fill:url(#linear-gradient-6);}.cls-15{fill:url(#linear-gradient-7);}.cls-16{fill:url(#linear-gradient-8);}.cls-17{fill:url(#linear-gradient-9);}.cls-18{fill:url(#linear-gradient-10);}.cls-19{fill:url(#linear-gradient-11);}.cls-20,.cls-35{fill:#fff;}.cls-21{fill:url(#linear-gradient-12);}.cls-22{clip-path:url(#clip-path);}.cls-23{fill:url(#linear-gradient-13);}.cls-24{fill:#333;}.cls-25{opacity:0.8;}.cls-26{fill:#29292b;}.cls-27{fill:#f73859;}.cls-28{fill:#225a81;}.cls-28,.cls-29,.cls-35{isolation:isolate;}.cls-28,.cls-35{opacity:0.3;}.cls-29{fill:#2e2e2e;opacity:0.4;}.cls-30{fill:#2b2b2b;}.cls-31{fill:#262626;}.cls-32{fill:#292929;}.cls-33{fill:#603813;}.cls-34{fill:url(#linear-gradient-14);}.cls-36{opacity:0.2;}.cls-37{opacity:0.6;}.cls-38{opacity:0.9;}.cls-39{fill:url(#linear-gradient-15);}.cls-40{opacity:0.79;}.cls-41{opacity:0.61;}.cls-42{fill:url(#linear-gradient-16);}.cls-43{fill:url(#linear-gradient-17);}.cls-44{fill:url(#linear-gradient-18);}.cls-45{fill:url(#linear-gradient-19);}.cls-46{fill:#2e2f4d;}.cls-47{fill:#f6a49d;}.cls-48{fill:#d47c74;}.cls-49{fill:#bbdefb;}.cls-50{fill:#f8cd9e;}.cls-51{fill:#867796;}.cls-52{opacity:0.5;}.cls-53{fill:#5c4e6d;}.cls-54{fill:#91c3e5;}.cls-55{fill:#70617f;}.cls-56{fill:#605270;}.cls-57{fill:#d7efff;}.cls-58{fill:#e96362;}.cls-59{fill:#5eb9f7;}.cls-60{fill:#1a7aae;}.cls-61{fill:#4f1d30;}.cls-62{fill:#ffefe7;}.cls-63{fill:#7986cb;}.cls-64{fill:#5f6fb2;}.cls-65{opacity:0.44;}.cls-66{fill:#2f426b;}</style><linearGradient id="linear-gradient" x1="264.26" y1="261.58" x2="285.75" y2="261.58" gradientUnits="userSpaceOnUse"><stop offset="0" stop-color="#1d78ac"/><stop offset="1" stop-color="#4abc96"/></linearGradient><linearGradient id="linear-gradient-2" x1="78.92" y1="69" x2="131.41" y2="69" xlink:href="#linear-gradient"/><linearGradient id="linear-gradient-3" x1="430.63" y1="196.18" x2="460.15" y2="196.18" xlink:href="#linear-gradient"/><linearGradient id="linear-gradient-4" x1="165" y1="250.14" x2="209.57" y2="250.14" xlink:href="#linear-gradient"/><linearGradient id="linear-gradient-5" x1="86.6" y1="140.65" x2="103.98" y2="140.65" xlink:href="#linear-gradient"/><linearGradient id="linear-gradient-6" x1="138.04" y1="21.9" x2="151.12" y2="21.9" xlink:href="#linear-gradient"/><linearGradient id="linear-gradient-7" x1="347.62" y1="245.91" x2="376.82" y2="245.91" xlink:href="#linear-gradient"/><linearGradient id="linear-gradient-8" x1="437.17" y1="103.44" x2="454.55" y2="103.44" xlink:href="#linear-gradient"/><linearGradient id="linear-gradient-9" x1="140.58" y1="278.96" x2="275" y2="278.96" xlink:href="#linear-gradient"/><linearGradient id="linear-gradient-10" x1="275" y1="278.96" x2="409.44" y2="278.96" xlink:href="#linear-gradient"/><linearGradient id="linear-gradient-11" x1="106.6" y1="133.28" x2="443.41" y2="133.28" xlink:href="#linear-gradient"/><linearGradient id="linear-gradient-12" x1="128.04" y1="133.29" x2="421.97" y2="133.29" xlink:href="#linear-gradient"/><clipPath id="clip-path"><circle class="cls-1" cx="252.26" cy="106.16" r="40.03" transform="translate(-1.18 209.47) rotate(-45)"/></clipPath><linearGradient id="linear-gradient-13" x1="245.94" y1="-127.72" x2="258.58" y2="-127.72" gradientTransform="translate(0 235)" gradientUnits="userSpaceOnUse"><stop offset="0" stop-color="#e0aa7e"/><stop offset="0.5" stop-color="#facc99"/><stop offset="1" stop-color="#e4af79"/></linearGradient><linearGradient id="linear-gradient-14" x1="252.18" y1="-126.59" x2="252.18" y2="-157.26" xlink:href="#linear-gradient-13"/><linearGradient id="linear-gradient-15" x1="410.21" y1="47.56" x2="417.59" y2="47.56" xlink:href="#linear-gradient"/><linearGradient id="linear-gradient-16" x1="132.65" y1="141.27" x2="417.34" y2="141.27" xlink:href="#linear-gradient"/><linearGradient id="linear-gradient-17" x1="142.41" y1="94.3" x2="407.6" y2="94.3" xlink:href="#linear-gradient"/><linearGradient id="linear-gradient-18" x1="142.41" y1="141.26" x2="407.6" y2="141.26" xlink:href="#linear-gradient"/><linearGradient id="linear-gradient-19" x1="142.41" y1="188.24" x2="407.6" y2="188.24" xlink:href="#linear-gradient"/></defs><g id="Layer_13" data-name="Layer 13"><g class="cls-2"><g class="cls-3"><path class="cls-4" d="M501.27,260.5a50.88,50.88,0,0,1-.43,5.38,5.65,5.65,0,0,1-.12.92,57.08,57.08,0,0,1-1.85,8.29c-.08.29-.17.58-.27.86q-.87,2.76-2,5.56h0a76.51,76.51,0,0,1-12.68,20c-1.08,1.25-2.21,2.5-3.41,3.75H50.86c0-1.22.09-2.47.19-3.75a73.57,73.57,0,0,1,10.12-32.63c.15-.27.31-.54.49-.8l.75-1.21.44-.69c1.24-1.91,2.59-3.82,4.07-5.72.18-.23.37-.46.55-.7h0l.84-1a90.67,90.67,0,0,1,9.89-10.19,114.84,114.84,0,0,1,19.22-13.69l.65-.38h0q4.13-2.34,8.7-4.57l3.22-1.57h.07l.89-.44.16-.08h0l.72-.37,2.07-1c1.75-.86,3.43-1.71,5.06-2.55,64-32.88,42.11-40.2,44.72-91.09,0-.55.07-1.1.12-1.65a2.13,2.13,0,0,1,.08-.72c6.35-54.28,146.3-147.17,212.22-121a69.43,69.43,0,0,1,35.43,30.32c22.63,39.1,9.52,97.16-2.14,113.18a26.81,26.81,0,0,0-1.61,2.47l-.38.65c-.14.26-.28.5-.41.78s-.2.37-.29.57-.24.46-.34.69-.23.47-.33.71c-9.54,21.19-3.86,59.25,28.78,57.78h1c1.37-.09,2.77-.26,4.23-.49a56.88,56.88,0,0,0,5.93-1.28c1.28-.34,2.59-.74,4-1.19a33.36,33.36,0,0,1,7.71-1.6,31.43,31.43,0,0,1,4-.1,8.34,8.34,0,0,1,1,0,34.76,34.76,0,0,1,10.26,2.27h0c.35.13.69.27,1,.42a39.22,39.22,0,0,1,8.56,4.94C493.88,228.05,501.8,243.14,501.27,260.5Z"/></g><g class="cls-3"><path class="cls-4" d="M508.5,262.21c-.06.94-.15,1.87-.27,2.82l-.12.89c-.2,1.49-.5,3-.8,4.45-2.32,10.39-7.74,21.07-17.13,31.16-1.17,1.26-2.4,2.5-3.7,3.74H56.83c.26-1.22.56-2.47.9-3.74a91.29,91.29,0,0,1,4-11.71c.53-1.29,1.11-2.59,1.72-3.9.43-.91.87-1.82,1.33-2.73a96.85,96.85,0,0,1,5.2-9c.15-.23.29-.46.45-.69l.22-.33c.18-.25.35-.5.53-.77,1.21-1.76,2.51-3.52,3.88-5.28l1.48-1.86c.74-.89,1.49-1.77,2.27-2.66,1.52-1.72,3.12-3.42,4.83-5.12q3.92-3.9,8.56-7.71l.83-.68h0c2.74-2.2,5.65-4.36,8.78-6.48h0l.63-.42q3.65-2.44,7.66-4.8l.68-.39c.73-.43,1.49-.85,2.23-1.27l.53-.29.25-.14.1-.05.65-.36c2.26-1.23,4.61-2.43,7-3.62,78.85-38.24,39.3-44.69,42.06-98.57a15.66,15.66,0,0,1,.13-1.66,5.31,5.31,0,0,1,.08-.71C170.5,76.4,318.92-4.61,384.86,21.52c11.49,4.55,20.21,10.79,26.7,18.1,31.3,35.25,10.7,95.53-2.14,113.17-.57.79-1.11,1.61-1.61,2.47l-.38.66c-.14.25-.28.49-.41.77s-.2.38-.29.58-.23.46-.34.69l-.33.7c-9,20.28-2.47,54.5,28.47,54.18h.77a8.34,8.34,0,0,0,1,0,49.86,49.86,0,0,0,6.89-.84h0l1-.2h0a65.94,65.94,0,0,0,7.82-2.13,37.48,37.48,0,0,1,24.63.25l1.09.39a42.57,42.57,0,0,1,7.84,4C500,223.63,510,241.89,508.5,262.21Z"/></g></g><g class="cls-5"><g class="cls-3"><ellipse class="cls-4" cx="454.4" cy="156.64" rx="34.95" ry="28.44" transform="translate(41.29 402.32) rotate(-49.76)"/></g><g class="cls-3"><ellipse class="cls-4" cx="452.48" cy="163.65" rx="34.95" ry="28.44" transform="translate(35.26 403.33) rotate(-49.76)"/></g></g><g class="cls-5"><g class="cls-3"><ellipse class="cls-4" cx="115.75" cy="144.86" rx="49.08" ry="39.94" transform="translate(-69.6 139.63) rotate(-49.76)"/></g><g class="cls-3"><ellipse class="cls-4" cx="113.05" cy="154.7" rx="49.08" ry="39.94" transform="translate(-78.07 141.06) rotate(-49.76)"/></g></g><g class="cls-5"><g class="cls-3"><ellipse class="cls-4" cx="134.4" cy="49.88" rx="23.76" ry="19.34" transform="translate(-3.27 89.87) rotate(-36.56)"/></g><g class="cls-3"><ellipse class="cls-4" cx="132.04" cy="54.23" rx="23.76" ry="19.34" transform="translate(-6.32 89.32) rotate(-36.56)"/></g></g><path class="cls-6" d="M435.62,259.65c-3.42-3.27-11.1,14.27-11.1,14.27a121,121,0,0,1,9.36-8.16C437.16,263.42,436.64,260.63,435.62,259.65Z"/><path class="cls-6" d="M424.49,281.72l-.83-.2c0-.67.11-1.33.16-2a2.25,2.25,0,0,1,.06-.63h0c.19-2.37.4-4.68.62-6.9.13-1.37.27-2.7.41-4v-.34h0c1.11-10.25,2.27-17.87,2.44-18.94v-.13l.83.13s-.1.61-.25,1.67c-.28,1.82-.74,5.06-1.26,9.23h0a6.85,6.85,0,0,1-.13,1c-.41,3.38-.86,7.31-1.28,11.56-.22,2.22-.43,4.54-.62,6.93h0l-.05.49-.09,1.16Z"/><path class="cls-6" d="M425,268.05s-7-14.54-4.45-19.14,5.73-1.13,5.06,6S425,268.05,425,268.05Z"/><path class="cls-6" d="M426.42,261s1.82-9.67,6.53-13.08,6,1.07,1.86,5.17S427,259.41,426.42,261Z"/><path class="cls-6" d="M427.86,251s-2.82-12.22-.37-16,5.86.55,3.33,6.69A44.06,44.06,0,0,0,427.86,251Z"/><path class="cls-6" d="M419.81,302.88s7.73-21.43,25.87-28.28l-4.7,9.74,8.9-10.88a40.8,40.8,0,0,1,13.88-4c7.78-.74,9.61-.54,9.61-.54l-5.63,6.88,12.43-7.21s15.7,0,28.19,4.94c0,0-8,1.31-13.13,7.42a26.58,26.58,0,0,1-12.78,7.91,24.21,24.21,0,0,0-11.08-2.61s6.16,2.74,7.3,4.72a84.42,84.42,0,0,0-8.76,4.54c-3,1.94-9.89,4.58-9.89,4.58l-9.19-4.31,5.7,5.66s-4.79,3.77-13.82,2.28S419.81,302.88,419.81,302.88Z"/><path class="cls-7" d="M440.82,288.75a.38.38,0,0,1-.32-.22.34.34,0,0,1,.16-.45h0c.33-.15,32.91-14.09,63.08-15a.37.37,0,0,1,.36.35.35.35,0,0,1-.33.36h0c-30,.93-62.49,14.84-62.81,15A.45.45,0,0,1,440.82,288.75Z"/><path class="cls-7" d="M474.88,293.12h-.05c-.07,0-1.76-.26-7.25-3s-15.57-5.61-15.67-5.64a.36.36,0,0,1-.25-.44.37.37,0,0,1,.44-.24h0c.1,0,10.34,3,15.8,5.69s7,2.93,7,2.93a.35.35,0,0,1,.3.39h0A.34.34,0,0,1,474.88,293.12Z"/><path class="cls-7" d="M494.23,282.11c-1.21,0-6.24-.09-9.86-1.57a49.88,49.88,0,0,0-9.85-2.48.34.34,0,0,1-.3-.37v0a.35.35,0,0,1,.39-.3h0a52.17,52.17,0,0,1,10,2.53c3.92,1.61,9.78,1.52,9.84,1.52a.34.34,0,0,1,.36.32v0h0a.35.35,0,0,1-.35.35h-.24Z"/><path class="cls-7" d="M448.67,302.64a.31.31,0,0,1-.2-.07l-8.63-5.8a.36.36,0,0,1-.1-.49h0a.32.32,0,0,1,.45-.11h0l8.63,5.8a.36.36,0,0,1,.1.5h0A.37.37,0,0,1,448.67,302.64Z"/><path class="cls-7" d="M472.32,278.45a.39.39,0,0,1-.25-.1.36.36,0,0,1,0-.49,31.77,31.77,0,0,1,4.45-3.65,72,72,0,0,0,6.79-5.79.36.36,0,0,1,.49,0h0a.34.34,0,0,1,0,.48h0a72.51,72.51,0,0,1-6.88,5.87,32.23,32.23,0,0,0-4.34,3.56A.36.36,0,0,1,472.32,278.45Z"/><path class="cls-7" d="M449.94,285.22h-.14a.36.36,0,0,1-.19-.46,30.73,30.73,0,0,1,3.38-4.69,123.23,123.23,0,0,0,7.15-10.67.36.36,0,0,1,.5-.09.36.36,0,0,1,.11.45,129.16,129.16,0,0,1-7.21,10.75c-2.83,3.51-3.26,4.45-3.28,4.52A.33.33,0,0,1,449.94,285.22Z"/><path class="cls-7" d="M427.62,303s-8.77,3.18-10.76-1.43c-2.33-5.44-1.16-17.27-.07-22.63,2-9.89,10.41-4.11,11.66-9.1s-1.3-18.49,4.57-23.45,5.65,3.28,15.69-11.92,11.57-5.12,17.05-8.34,16.32-13.93,19.48-8.9-13,24.63-19.07,31-3.6,7.64.5,9.47-2.07,13.61-14,20-9,8.14-6.79,11.76S444.53,302.11,427.62,303Z"/><path class="cls-6" d="M424.85,297.7l-.91-.26c6.35-22.79,20.74-41.93,31.7-54a172.21,172.21,0,0,1,22.48-20.88l.55.76a172.32,172.32,0,0,0-22.35,20.77C445.42,256.09,431.12,275.09,424.85,297.7Z"/><path class="cls-6" d="M437.44,269l-.39-.86a75.82,75.82,0,0,1,21-6.11l.1.94A74.87,74.87,0,0,0,437.44,269Z"/><path class="cls-6" d="M450.93,250.29l-.81-.47c6.36-11,5-19.84,5-19.93l.93-.15C456.13,230.12,457.48,239,450.93,250.29Z"/><path class="cls-6" d="M439.12,266.42l-.89-.3c3.22-9.55,1.21-16.45,1.18-16.52l.91-.27C440.41,249.62,442.44,256.59,439.12,266.42Z"/><path class="cls-6" d="M457.43,242.83l-.38-.86a32.06,32.06,0,0,1,11-2.51h.12v.94h-.11A31.66,31.66,0,0,0,457.43,242.83Z"/><path class="cls-7" d="M91.57,235.34c0-.18-.73-18-6.7-30.63l.85-.4c6,12.78,6.81,30.82,6.81,31Z"/><path class="cls-7" d="M90.62,221.55s-5.51-9-10.26-15.28S66.91,209.81,90.62,221.55Z"/><path class="cls-7" d="M91.27,227s2.16-8.65,2.21-14.34,4.37-7.42,6-1.34S91.27,227,91.27,227Z"/><path class="cls-7" d="M84.36,239.26s5.94-6.67,8.62-11.7,7.33-4.56,6,1.63S84.36,239.26,84.36,239.26Z"/><path class="cls-7" d="M86.16,206.41s-2.54-15.5-5.67-17.41-5.21,3-2.7,7.75S86.16,206.41,86.16,206.41Z"/><path class="cls-7" d="M89,283.72a80.31,80.31,0,0,0-9.59-8.37,50.28,50.28,0,0,1-7.81-6.75l1.24,10.83-4.26-8.9A47.93,47.93,0,0,0,54.75,265a34.33,34.33,0,0,1-13.16-6S46,279.45,55.08,287c0,0,9.23.49,11.54,2.44,0,0-8-.35-11.87,1.42a113.88,113.88,0,0,1,9.76,7.46c5,4.26,17.42,5.09,25.93,5.38s19,0,19,0-.9-4.25-6.75-9.43A165.84,165.84,0,0,0,89,283.72Z"/><path class="cls-6" d="M104.09,302.63c-8.41-1.4-17.71-7.91-25.91-13.67-3.15-2.2-6.12-4.28-8.9-6-10.12-6.23-27.73-23.46-27.91-23.63l.5-.5c.17.18,17.73,17.35,27.78,23.54,2.8,1.73,5.79,3.81,8.95,6,8.14,5.7,17.36,12.17,25.61,13.54Z"/><path class="cls-6" d="M61.68,277.46A36.43,36.43,0,0,0,54.82,276a48.46,48.46,0,0,1-8.71-2.17l.23-.67a51.18,51.18,0,0,0,8.55,2.14,36.46,36.46,0,0,1,7,1.54Z"/><path class="cls-6" d="M66.47,296a43,43,0,0,1-6-.45l.11-.7c.07,0,7.25,1.15,12.25-.31a40,40,0,0,0,5-1.86c2.2-.95,3.78-1.63,5.31-1.11l-.23.66c-1.27-.43-2.75.21-4.81,1.1a40.13,40.13,0,0,1-5,1.89A24.66,24.66,0,0,1,66.47,296Z"/><path class="cls-6" d="M84.4,293.26c-1.6-1.05-1.68-2.68-1.81-4.95a25,25,0,0,0-.61-4.87A59.87,59.87,0,0,0,79.79,276l.66-.26a60.23,60.23,0,0,1,2.22,7.57,26.31,26.31,0,0,1,.63,5c.11,2.12.19,3.53,1.48,4.38Z"/><path class="cls-6" d="M67.39,281.71a20.23,20.23,0,0,1-2.07-4.83c-.22-.67-.47-1.4-.75-2.18-1.08-3-2.6-7.11-2.62-7.15l.67-.25s1.53,4.13,2.62,7.16c.28.79.53,1.52.76,2.19a19.4,19.4,0,0,0,2,4.66Z"/><path class="cls-6" d="M84,302.61l-.27-.66s3.87-1.57,6-2.65c.61-.31,1.09-.58,1.49-.8,1-.59,1.58-.91,2.47-.45l-.32.63c-.53-.27-.78-.15-1.79.44-.39.22-.88.49-1.49.81C87.83,301,84,302.59,84,302.61Z"/><path class="cls-6" d="M114.73,303.79s10.56-.05,14.46-1.35c.33-.11,1-19-1.48-25.29-3.67-9.42-14.8-3.49-15.87-8.52s2-18.43-3.73-23.61-5.76,3.09-15.26-12.47S81.47,227,76.09,223.62,60.27,209.13,57,214s12.09,25.08,18,31.65,3.33,7.77-.84,9.44,1.6,13.71,13.28,20.47,8.69,8.45,6.37,12S97.86,302.3,114.73,303.79Z"/><path class="cls-7" d="M114.49,296.59l.92-.22c-5.55-23-19.25-42.63-29.78-55.05A173,173,0,0,0,63.9,219.66l-.59.74a171.18,171.18,0,0,1,21.62,21.54C95.38,254.28,109,273.78,114.49,296.59Z"/><path class="cls-7" d="M102.91,267.46l.43-.85a75.49,75.49,0,0,0-20.8-6.84l-.13.93A74.47,74.47,0,0,1,102.91,267.46Z"/><path class="cls-7" d="M90.05,248.29l.83-.44c-6-11.19-4.34-20-4.32-20.09l-.93-.18C85.57,228,83.93,236.79,90.05,248.29Z"/><path class="cls-7" d="M101.31,264.83l.9-.27c-2.89-9.66-.63-16.48-.61-16.55l-.89-.3C100.61,248,98.33,254.91,101.31,264.83Z"/><path class="cls-7" d="M83.84,240.61l.4-.85a31.9,31.9,0,0,0-10.88-2.88h-.12v.93h.12A31.57,31.57,0,0,1,83.84,240.61Z"/><rect class="cls-8" x="50.38" y="302.28" width="449.05" height="2.98"/><polygon class="cls-9" points="285.75 239.34 285.75 283.83 283.64 283.83 275.01 282.28 266.38 283.83 264.26 283.83 264.26 239.34 285.75 239.34"/><path class="cls-10" d="M105.19,95.24V93.73a25.84,25.84,0,0,0,4.3-.38l.26,1.48A25.78,25.78,0,0,1,105.19,95.24Zm-4.55-.39a26.51,26.51,0,0,1-4.45-1.17l.52-1.43a23.82,23.82,0,0,0,4.16,1.1Zm13.53-1.18-.52-1.43a25.65,25.65,0,0,0,3.9-1.83l.77,1.32A28,28,0,0,1,114.17,93.67ZM92.06,91.74a26.25,26.25,0,0,1-3.75-2.62l1-1.17a26,26,0,0,0,3.53,2.47Zm30-2.64-1-1.17a24.69,24.69,0,0,0,3-3.05l1.17,1A25.94,25.94,0,0,1,122,89.11Zm-37-3.22a26.29,26.29,0,0,1-2.64-3.74l1.32-.76a24.54,24.54,0,0,0,2.48,3.52Zm42.84-3.77-1.32-.78a23.48,23.48,0,0,0,1.83-3.9l1.43.52a26.55,26.55,0,0,1-1.92,4.16ZM80.5,78a26.21,26.21,0,0,1-1.18-4.42l1.48-.27a25.17,25.17,0,0,0,1.12,4.17ZM131,73.55l-1.48-.26a25.83,25.83,0,0,0,.37-4.3v-.06h1.52A26,26,0,0,1,131,73.5ZM78.92,69h0a26.48,26.48,0,0,1,.39-4.53l1.48.26A25.46,25.46,0,0,0,80.43,69Zm50.61-4.38a25.17,25.17,0,0,0-1.12-4.17l1.43-.52A27.09,27.09,0,0,1,131,64.37ZM81.91,60.56,80.48,60a27.9,27.9,0,0,1,1.93-4.15l1.32.76A24.78,24.78,0,0,0,81.91,60.56Zm44.66-4A23.29,23.29,0,0,0,124.1,53l1.17-1a27.05,27.05,0,0,1,2.63,3.74ZM86.21,53.12l-1.17-1a25.35,25.35,0,0,1,3.23-3.24l1,1.16A23.43,23.43,0,0,0,86.21,53.12ZM121,50a25.49,25.49,0,0,0-3.54-2.47l.74-1.31a26.72,26.72,0,0,1,3.8,2.62ZM92.77,47.58,92,46.27a26.31,26.31,0,0,1,4.14-2l.53,1.43A24.56,24.56,0,0,0,92.77,47.58Zm20.82-1.85a24.77,24.77,0,0,0-4.16-1.11l.26-1.48a26.51,26.51,0,0,1,4.45,1.17Zm-12.76-1.09-.26-1.48a25.85,25.85,0,0,1,4.56-.4v1.48a25.85,25.85,0,0,0-4.3.39Z"/><path class="cls-11" d="M445.4,210.93v-1.19a13.25,13.25,0,0,0,2.35-.21l.21,1.18A15.71,15.71,0,0,1,445.4,210.93Zm-2.56-.22a15.38,15.38,0,0,1-2.48-.66l.41-1.13a12.89,12.89,0,0,0,2.29.61Zm7.61-.67-.41-1.12a13.89,13.89,0,0,0,2.14-1l.6,1a14.08,14.08,0,0,1-2.33,1.08ZM438,209a15.38,15.38,0,0,1-2.11-1.48l.77-.92A14.39,14.39,0,0,0,438.6,208Zm16.86-1.48-.77-.92a13.17,13.17,0,0,0,1.67-1.67l.92.77a15.13,15.13,0,0,1-1.8,1.78Zm-20.77-1.81a14.8,14.8,0,0,1-1.48-2.11l1-.57A12.92,12.92,0,0,0,435,205Zm24.09-2.12-1-.6a13.89,13.89,0,0,0,1-2.14l1.12.41a14.13,14.13,0,0,1-1.09,2.33Zm-26.66-2.32a16.09,16.09,0,0,1-.67-2.47l1.18-.21a13.69,13.69,0,0,0,.61,2.28Zm28.41-2.5-1.18-.2a12.47,12.47,0,0,0,.2-2.36h1.2a15.51,15.51,0,0,1-.24,2.55Zm-29.3-2.54h0a14.44,14.44,0,0,1,.22-2.54l1.18.2a13.14,13.14,0,0,0-.21,2.34Zm28.12-2.41a13.71,13.71,0,0,0-.62-2.28l1.12-.41a14.09,14.09,0,0,1,.67,2.47Zm-26.12-2.23-1.12-.41a14.13,14.13,0,0,1,1.09-2.33l1,.6a13.89,13.89,0,0,0-1,2.14Zm24.49-2.19a12.92,12.92,0,0,0-1.36-1.93l.92-.77a15.29,15.29,0,0,1,1.48,2.1ZM435,187.47l-.91-.77a14.82,14.82,0,0,1,1.81-1.82l.78.91a13.49,13.49,0,0,0-1.7,1.68Zm19.11-1.71a15.28,15.28,0,0,0-1.94-1.35l.6-1a14,14,0,0,1,2.1,1.49Zm-15.5-1.33-.6-1a15,15,0,0,1,2.33-1.1l.4,1.13a13.51,13.51,0,0,0-2.15,1Zm11.42-1a13.8,13.8,0,0,0-2.29-.61l.21-1.17a15,15,0,0,1,2.47.66Zm-7-.6-.21-1.17a14.59,14.59,0,0,1,2.56-.23v1.2a12.57,12.57,0,0,0-2.37.2Z"/><path class="cls-12" d="M187.33,272.4v-1.8a22.2,22.2,0,0,0,3.55-.31l.31,1.77A22.7,22.7,0,0,1,187.33,272.4Zm-3.87-.33a23,23,0,0,1-3.75-1l.61-1.7a20,20,0,0,0,3.47.92Zm11.48-1-.62-1.69a20.24,20.24,0,0,0,3.23-1.52l.91,1.56a21.61,21.61,0,0,1-3.52,1.63Zm-18.75-1.64a21.82,21.82,0,0,1-3.18-2.22l1.16-1.38a20.11,20.11,0,0,0,2.92,2Zm25.44-2.24-1.15-1.41a21.51,21.51,0,0,0,2.52-2.53l1.38,1.17a21,21,0,0,1-2.75,2.75Zm-31.36-2.72A22.06,22.06,0,0,1,168,261.3l1.55-.9a20.5,20.5,0,0,0,2.06,2.92Zm36.34-3.2-1.56-.93a20.15,20.15,0,0,0,1.5-3.23l1.7.61a21.76,21.76,0,0,1-1.64,3.53Zm-40.22-3.49a22.06,22.06,0,0,1-1-3.75l1.77-.32a20.91,20.91,0,0,0,.93,3.47Zm42.84-3.8-1.77-.31a21.31,21.31,0,0,0,.31-3.56v-.05h1.8v.07a23.89,23.89,0,0,1-.34,3.87ZM165,250.15h0a22.34,22.34,0,0,1,.33-3.83l1.78.31a20.75,20.75,0,0,0-.31,3.52Zm42.45-3.65a20.54,20.54,0,0,0-.93-3.46l1.69-.62a22.06,22.06,0,0,1,1,3.75ZM168,243.14l-1.69-.59A21.18,21.18,0,0,1,168,239l1.56.9a20.09,20.09,0,0,0-1.51,3.22Zm37-3.3a20.43,20.43,0,0,0-2-2.92l1.37-1.16a21.86,21.86,0,0,1,2.24,3.17ZM171.62,237l-1.39-1.15A23,23,0,0,1,173,233.1l1.16,1.38a20.08,20.08,0,0,0-2.51,2.54Zm28.82-2.57a20.76,20.76,0,0,0-2.93-2l.9-1.56a20.58,20.58,0,0,1,3.18,2.22Zm-23.39-2-.9-1.55a22.47,22.47,0,0,1,3.51-1.65l.62,1.69a21.2,21.2,0,0,0-3.23,1.53Zm17.23-1.53a19.61,19.61,0,0,0-3.46-.92l.3-1.77a22.17,22.17,0,0,1,3.76,1Zm-10.56-.9-.32-1.78a21.83,21.83,0,0,1,3.87-.34v1.8a21.12,21.12,0,0,0-3.55.33Z"/><path class="cls-13" d="M95.3,149.34a8.69,8.69,0,1,1,8.68-8.7v0h0A8.7,8.7,0,0,1,95.3,149.34Zm0-16.24a7.56,7.56,0,1,0,7.55,7.58,7.55,7.55,0,0,0-7.55-7.58Z"/><path class="cls-14" d="M144.58,28.44a6.54,6.54,0,1,1,6.54-6.54h0A6.56,6.56,0,0,1,144.58,28.44Zm0-12.22a5.69,5.69,0,1,0,5.69,5.69h0A5.71,5.71,0,0,0,144.58,16.22Z"/><path class="cls-15" d="M362.21,260.51a14.6,14.6,0,1,1,14.61-14.6,14.6,14.6,0,0,1-14.61,14.6Zm0-27.29a12.7,12.7,0,1,0,12.69,12.71h0A12.71,12.71,0,0,0,362.21,233.22Z"/><path class="cls-16" d="M445.86,112.13a8.69,8.69,0,1,1,8.69-8.69,8.69,8.69,0,0,1-8.69,8.69Zm0-16.24a7.56,7.56,0,1,0,7.56,7.56h0A7.58,7.58,0,0,0,445.86,95.89Z"/><path class="cls-17" d="M275,255.59V282.3l-8.64,1.55L176.9,299.91a153.1,153.1,0,0,1-27.11,2.42h-6.34a2.86,2.86,0,0,1-2.87-2.87,2.83,2.83,0,0,1,.76-1.95,36.86,36.86,0,0,1,9.56-7.66c7.46-3.79,22.79-8.06,30.94-10.16l82.41-21.32Z"/><path class="cls-18" d="M275,255.59V282.3l8.63,1.55,89.46,16.06a153.1,153.1,0,0,0,27.11,2.42h6.36a2.87,2.87,0,0,0,2.12-4.82,36.91,36.91,0,0,0-9.57-7.66c-7.45-3.79-22.78-8.06-30.94-10.16l-82.43-21.32Z"/><rect class="cls-19" x="106.6" y="20.47" width="336.81" height="225.61" rx="10.9"/><rect class="cls-20" x="118.2" y="32.08" width="313.6" height="202.4" rx="9.39"/><rect class="cls-20" x="118.24" y="32.1" width="313.53" height="202.35" rx="9.39"/><rect class="cls-21" x="128.04" y="42.16" width="293.93" height="182.25" rx="3.23"/><g class="cls-22"><rect class="cls-20" x="211.71" y="65.01" width="81.1" height="82.31"/><rect class="cls-23" x="245.94" y="105.05" width="12.64" height="4.45"/><polygon class="cls-24" points="279.24 118.25 263.64 113.33 258.81 107.81 252.81 109.34 252.64 109.19 245.66 107.81 240.83 113.33 225.23 118.25 225.23 147.32 279.24 147.32 279.24 118.25"/><path class="cls-24" d="M225.43,118.22c-3.73.18-4.81,16.68-5.52,29.1h12.48C231.78,141.29,229.2,118.05,225.43,118.22Z"/><g class="cls-25"><path class="cls-26" d="M225.62,118.13l-.26.08.32.14c1.2.34,2.94,3.4,4.82,15.07.9,5.63,1.52,11.32,1.78,13.9h.2C231.86,141.32,229.38,118.79,225.62,118.13Z"/></g><path class="cls-24" d="M279.09,118.22c-3.78-.17-6.35,23.07-7,29.1h12.48C283.91,134.9,282.82,118.42,279.09,118.22Z"/><g class="cls-25"><path class="cls-26" d="M274,133.42c1.88-11.67,3.61-14.73,4.81-15.07l.33-.14-.26-.08c-3.76.66-6.25,23.19-6.84,29.18h.18C272.5,144.74,273.12,139.05,274,133.42Z"/></g><path class="cls-20" d="M258.81,107.8v7.71l-4.95,29.64-8.13-32.33v-5l4.61.86a8.35,8.35,0,0,0,4,.23Z"/><path class="cls-27" d="M253.86,146.25c0-.68-4.61-17-4.61-17s2.09-12,1.93-13.09,3.17-.64,3.17-.64L257,131Z"/><polygon class="cls-28" points="249.74 126.41 249.25 129.24 253.96 146.36 256.68 129.34 256.45 128 253.78 140.9 249.74 126.41"/><polygon class="cls-29" points="266.74 116.84 263.46 115.29 266.19 115.23 264.74 113.68 264.07 113.47 259.26 112.92 259.25 115.6 254.29 145.09 253.78 147.32 254.76 147.32 266.74 116.84"/><polygon class="cls-29" points="245.41 113.56 245.38 112.83 240.39 113.47 239.72 113.69 238.28 115.23 241 115.29 237.72 116.84 253.03 147.32 254.03 147.32 245.41 113.56"/><path class="cls-30" d="M254.24,146.34l-8.37-32.78-.24-5.76-6.9,7.42,2.73.07-3.28,1.54,15.33,30.48h.16A6.51,6.51,0,0,0,254.24,146.34Z"/><path class="cls-27" d="M250,111l1.21,5.34,3.22-.44s1.08-4.6.85-5.07S252.41,107.36,250,111Z"/><polygon class="cls-31" points="254.04 145.53 253.74 144.32 253.3 146.91 253.44 147.18 254.04 145.53"/><polygon class="cls-32" points="266.27 116.84 262.98 115.29 265.71 115.23 258.81 107.81 258.77 115.6 253.81 145.09 253.3 147.32 254.28 147.32 266.27 116.84"/><path class="cls-33" d="M239.07,93.3h5.23c3.77,0,7.55.11,11.32,0,1.88,0,3.75-.17,5.62-.23a18.63,18.63,0,0,0,2.79-.14,10.44,10.44,0,0,0,1.35-.19c.19-.83.37-1.69.55-2.56,2-9.74-5.05-17.93-13.57-17.93a13.87,13.87,0,0,0-10.26,4.94,15.52,15.52,0,0,0-3.56,14C238.72,91.93,238.91,92.62,239.07,93.3Z"/><path class="cls-34" d="M266.3,90.44a2.48,2.48,0,0,0-1.14-1.72,1.12,1.12,0,0,0-.31-.1.81.81,0,0,0-.22,0,19.55,19.55,0,0,0-1.1-3.76c-2.47-4.29-6.62-7.12-11.35-7.12s-8.9,2.83-11.34,7.12a18.83,18.83,0,0,0-1.09,3.76.89.89,0,0,0-.23,0,1.12,1.12,0,0,0-.31.1,2.53,2.53,0,0,0-1.15,1.72,7.81,7.81,0,0,0-.11,2.93c.28,2,1.16,3.6,2.13,4,1.7,6.39,6.47,11,12.1,11s10.39-4.61,12.11-11c1-.44,1.85-2,2.13-4A7.6,7.6,0,0,0,266.3,90.44Z"/></g><path class="cls-20" d="M243.13,161.82a9.14,9.14,0,0,1-.11,1.57,3.42,3.42,0,0,1-.41,1.2,2.67,2.67,0,0,1-1,1,2.52,2.52,0,0,1-1.34.36,2.58,2.58,0,0,1-1.52-.49,3,3,0,0,1-1-1.33,3.86,3.86,0,0,1-.25-1,7.67,7.67,0,0,1-.08-1.17,12.79,12.79,0,0,1,.09-1.52,5,5,0,0,1,.28-1.16,2.7,2.7,0,0,1,3.48-1.45,2.26,2.26,0,0,1,.82.54,3,3,0,0,1,.6.89A6.07,6.07,0,0,1,243.13,161.82Zm-1.52-.11a9.33,9.33,0,0,0-.13-1.67,2,2,0,0,0-.41-1,1,1,0,0,0-.8-.33,1,1,0,0,0-1,.74,7,7,0,0,0-.29,2.28,11,11,0,0,0,.13,1.72,2.15,2.15,0,0,0,.41,1,1.08,1.08,0,0,0,1.52.07l.07-.07a2.15,2.15,0,0,0,.41-1A12.68,12.68,0,0,0,241.61,161.71Z"/><path class="cls-20" d="M249.92,161.82a9.14,9.14,0,0,1-.11,1.57,3.88,3.88,0,0,1-.41,1.2,2.69,2.69,0,0,1-3.86.88,3,3,0,0,1-1-1.33,4.31,4.31,0,0,1-.25-1,7,7,0,0,1-.08-1.21,9.62,9.62,0,0,1,.09-1.52,4.56,4.56,0,0,1,.27-1.16A2.5,2.5,0,0,1,247,157.6a2.91,2.91,0,0,1,1.05.19,2.28,2.28,0,0,1,.82.55,3.17,3.17,0,0,1,.6.89A6.55,6.55,0,0,1,249.92,161.82Zm-1.52-.11a9.33,9.33,0,0,0-.13-1.67,2.15,2.15,0,0,0-.41-1,1,1,0,0,0-.8-.33,1,1,0,0,0-1,.74,7,7,0,0,0-.29,2.28,9.89,9.89,0,0,0,.13,1.72,2.15,2.15,0,0,0,.41,1,1,1,0,0,0,.78.35,1,1,0,0,0,.81-.36,2.15,2.15,0,0,0,.41-1A12.46,12.46,0,0,0,248.4,161.71Z"/><path class="cls-20" d="M251.41,160.61a.79.79,0,0,1,.25-.61.83.83,0,0,1,.6-.22.9.9,0,0,1,.59.22.81.81,0,0,1,.24.61.94.94,0,0,1-.83.84.79.79,0,0,1-.59-.26A.8.8,0,0,1,251.41,160.61Zm.85,5.36a.94.94,0,0,1-.6-.22.81.81,0,0,1-.25-.63.83.83,0,0,1,.24-.58.84.84,0,0,1,1.19,0h0a.78.78,0,0,1,.25.59.74.74,0,0,1-.25.62.79.79,0,0,1-.58.25Z"/><path class="cls-20" d="M258,165.12v-1h-2.82a1.12,1.12,0,0,1-.79-.25.84.84,0,0,1-.27-.65.74.74,0,0,1,0-.21,1,1,0,0,1,.12-.23l.16-.23.21-.28,3-4a3.35,3.35,0,0,1,.49-.57.63.63,0,0,1,.45-.18c.57,0,.85.33.85,1v4.32h.23a1.6,1.6,0,0,1,.68.12.49.49,0,0,1,.26.49.57.57,0,0,1-.21.5,1.19,1.19,0,0,1-.64.15h-.34v1a1,1,0,0,1-.18.64.72.72,0,0,1-1,0A1.07,1.07,0,0,1,258,165.12Zm-2.4-2.28H258V159.6Z"/><path class="cls-20" d="M264,160.9a1.4,1.4,0,0,0,.88-.3A1.15,1.15,0,0,0,265,159a1.08,1.08,0,0,0-.8-.31,1.35,1.35,0,0,0-.56.1.81.81,0,0,0-.35.25,1.47,1.47,0,0,0-.24.4c-.08.16-.15.31-.21.46a.52.52,0,0,1-.2.19,1,1,0,0,1-.34.06.59.59,0,0,1-.41-.18.65.65,0,0,1-.19-.49,1.28,1.28,0,0,1,.18-.61,2.27,2.27,0,0,1,.5-.61,2.44,2.44,0,0,1,.83-.47,3.55,3.55,0,0,1,1.12-.18,3.37,3.37,0,0,1,1,.15,2.29,2.29,0,0,1,.78.43,1.81,1.81,0,0,1,.66,1.44,1.83,1.83,0,0,1-.24,1,3.42,3.42,0,0,1-.7.77,3.27,3.27,0,0,1,.74.54,2,2,0,0,1,.6,1.45,2.44,2.44,0,0,1-.81,1.84,2.85,2.85,0,0,1-.94.58,3.07,3.07,0,0,1-1.2.21,2.77,2.77,0,0,1-1.2-.24,2.61,2.61,0,0,1-.87-.6,2.91,2.91,0,0,1-.52-.74,1.6,1.6,0,0,1-.17-.64.62.62,0,0,1,.2-.49.69.69,0,0,1,.53-.2.53.53,0,0,1,.3.09.51.51,0,0,1,.19.22,3.76,3.76,0,0,0,.62,1.15,1.2,1.2,0,0,0,.94.38,1.28,1.28,0,0,0,.66-.18,1.32,1.32,0,0,0,.53-.49,1.43,1.43,0,0,0,.21-.78,1.45,1.45,0,0,0-.36-1,1.33,1.33,0,0,0-1-.37h-.65a.69.69,0,0,1-.5-.15.63.63,0,0,1-.17-.43.55.55,0,0,1,.21-.43.91.91,0,0,1,.6-.16Z"/><circle class="cls-27" cx="298.95" cy="185.38" r="9.04"/><path class="cls-20" d="M293.2,187.83h2.32a.86.86,0,0,0,.83-.88v-1.17l.18-.05a8,8,0,0,1,2.43-.4,8.26,8.26,0,0,1,2.42.37l.18.05v1.17a.86.86,0,0,0,.84.87h2.32a.86.86,0,0,0,.84-.88h0v-.65h0a3.21,3.21,0,0,0-.21-.75,2.78,2.78,0,0,0-.37-.59c-1.12-1.42-2.86-2-6-2-4.36,0-5.94,1.94-6,2a3.67,3.67,0,0,0-.36.6,2.77,2.77,0,0,0-.2.75h0V187A.87.87,0,0,0,293.2,187.83Z"/><circle class="cls-35" cx="252.26" cy="185.38" r="9.04"/><path class="cls-20" d="M256,185.45h-.49a3.12,3.12,0,0,1-.35,1.44l.37.37A3.7,3.7,0,0,0,256,185.45Z"/><path class="cls-20" d="M252.26,187.91a2.44,2.44,0,0,0,1.36-.41l-3.84-3.8v1.77A2.48,2.48,0,0,0,252.26,187.91Z"/><path class="cls-20" d="M254.73,185.45v-3.61a2.47,2.47,0,0,0-4.9-.24l4.73,4.73A2.42,2.42,0,0,0,254.73,185.45Z"/><path class="cls-20" d="M252.51,189.14a3.74,3.74,0,0,0,2-.74l-.36-.36a3.21,3.21,0,0,1-4.47-.68,3.24,3.24,0,0,1-.62-1.9h-.5a3.71,3.71,0,0,0,3.47,3.69v1.73h-2.12v.5h4.73v-.5H252.5Z"/><rect class="cls-20" x="252.01" y="179" width="0.49" height="12.2" transform="translate(-57 232.59) rotate(-45)"/><circle class="cls-35" cx="228.91" cy="185.38" r="9.04"/><path class="cls-20" d="M225.78,183.2H224a.41.41,0,0,0-.41.41h0v3.54a.41.41,0,0,0,.41.41h1.74a.38.38,0,0,1,.25.09l3,2.42a.4.4,0,0,0,.56,0l0,0a.45.45,0,0,0,.09-.25V181a.41.41,0,0,0-.42-.4h0a.38.38,0,0,0-.25.09l-3,2.42A.4.4,0,0,1,225.78,183.2Z"/><g class="cls-36"><path class="cls-20" d="M232.61,185.38a2.52,2.52,0,0,0-1.8-2.42.14.14,0,0,0-.17.06h0a.15.15,0,0,0,0,.21h0a2.22,2.22,0,0,1,0,4.25.15.15,0,0,0-.11.18v0h0a.14.14,0,0,0,.17.07A2.54,2.54,0,0,0,232.61,185.38Z"/></g><g class="cls-37"><path class="cls-20" d="M233.4,185.38a3.33,3.33,0,0,0-2.12-3.1.14.14,0,0,0-.18.06h0a.15.15,0,0,0,0,.21h0a3,3,0,0,1,0,5.61.16.16,0,0,0-.09.2h0a.16.16,0,0,0,.18.06A3.34,3.34,0,0,0,233.4,185.38Z"/></g><g class="cls-38"><path class="cls-20" d="M234.19,185.38a4.12,4.12,0,0,0-2.47-3.77.15.15,0,0,0-.19.06h0a.15.15,0,0,0,0,.21h0a3.8,3.8,0,0,1,0,6.92.16.16,0,0,0-.09.2h0a.15.15,0,0,0,.19.06A4.12,4.12,0,0,0,234.19,185.38Z"/></g><circle class="cls-35" cx="205.56" cy="185.39" r="9.04"/><polygon class="cls-20" points="209.8 185.04 205.9 185.04 205.9 181.14 205.23 181.14 205.23 185.04 201.32 185.04 201.32 185.71 205.23 185.71 205.23 189.62 205.9 189.62 205.9 185.71 209.8 185.71 209.8 185.04"/><circle class="cls-35" cx="275.61" cy="185.37" r="9.04"/><path class="cls-20" d="M277.92,188.7h-6.46a.74.74,0,0,1-.74-.74V182.8a.75.75,0,0,1,.74-.75h6.46a.77.77,0,0,1,.75.75V184H279l1.64-1.32a.5.5,0,0,1,.5,0,.42.42,0,0,1,.25.41v4.78a.45.45,0,0,1-.45.45h0a.47.47,0,0,1-.28-.09L279,186.9h-.37V188a.74.74,0,0,1-.74.74h0Zm-6.46-6.18a.3.3,0,0,0-.28.28V188a.3.3,0,0,0,.28.28h6.46a.29.29,0,0,0,.29-.28h0v-1.2a.41.41,0,0,1,.4-.42H279a.42.42,0,0,1,.28.1l1.65,1.32V183l-1.64,1.32a.48.48,0,0,1-.28.1h-.42a.44.44,0,0,1-.42-.42v-1.2a.27.27,0,0,0-.26-.28h-6.45Z"/><rect class="cls-20" x="125.5" y="40.58" width="299" height="185.39" rx="8.77"/><circle class="cls-39" cx="413.9" cy="47.56" r="3.69"/><g class="cls-40"><circle class="cls-8" cx="403.11" cy="48.75" r="3.68"/></g><g class="cls-41"><circle class="cls-8" cx="392.74" cy="48.76" r="3.68"/></g><rect class="cls-8" x="132.65" y="56.95" width="284.71" height="2.67"/><path class="cls-42" d="M411.85,66.91,138.16,64.77a5.49,5.49,0,0,0-5.51,5.47h0V212.31a5.5,5.5,0,0,0,5.51,5.47h54.26l219.42-.29a5.48,5.48,0,0,0,5.5-5.46h0V72.38A5.49,5.49,0,0,0,411.85,66.91Z"/><path class="cls-8" d="M192.42,218.54H138.16a6.26,6.26,0,0,1-6.27-6.23V70.24A6.26,6.26,0,0,1,138.16,64l273.7,2.15a6.25,6.25,0,0,1,6.26,6.22V212a6.25,6.25,0,0,1-6.27,6.22Zm-54.27-153a4.72,4.72,0,0,0-4.74,4.7h0V212.31a4.74,4.74,0,0,0,4.75,4.71h54.26l219.41-.29a4.73,4.73,0,0,0,4.75-4.7V72.38a4.72,4.72,0,0,0-4.74-4.71Z"/><rect class="cls-43" x="142.41" y="74.85" width="265.19" height="38.91" rx="8.39"/><rect class="cls-44" x="142.41" y="121.81" width="265.19" height="38.91" rx="8.39"/><rect class="cls-45" x="142.41" y="168.78" width="265.19" height="38.91" rx="8.39"/><path class="cls-20" d="M181.24,94.3a15.27,15.27,0,0,1-4.68,11,16.14,16.14,0,0,1-1.48,1.26c-.16.12-.32.23-.5.34l-.44.29-.14.09-.21.13a15.66,15.66,0,0,1-2.06,1l-.5.2a15.3,15.3,0,0,1-2,.59l-.56.11a15.92,15.92,0,0,1-1.69.21h-1a14.17,14.17,0,0,1-2.06-.14l-.8-.13a15,15,0,0,1-5-1.94H158a5.18,5.18,0,0,1-.49-.32h-.07a15.3,15.3,0,1,1,23.87-12.66Z"/><rect class="cls-20" x="188.88" y="82.8" width="100.13" height="4.12"/><g class="cls-37"><rect class="cls-20" x="188.88" y="91.47" width="75.03" height="2.46"/><rect class="cls-20" x="188.88" y="97.41" width="29.75" height="2.46"/><rect class="cls-20" x="285.61" y="97.41" width="52.87" height="2.46"/><rect class="cls-20" x="226.7" y="97.41" width="51.97" height="2.46"/><rect class="cls-20" x="188.88" y="103.35" width="149.59" height="2.46"/></g><path class="cls-46" d="M170.39,85.08h0l.12.49.13.55h0l.18.1h.05l-.5,1.41-.07.22a1.58,1.58,0,0,0,.12.39h0v.12h0a.61.61,0,0,0,0,.19,1.85,1.85,0,0,0,.08.32l-.62.6-.47.43c-.37.35-.76.69-1.15,1l-.66.66-1.09.89h0l-.72.56h0l-.21.17h0l-.15.11h0l-1.09.84-.19.14h0l-.71.52h0a7.19,7.19,0,0,1-3.25-6.13v-.14h0v-.16h0a1.93,1.93,0,0,1,0-.34v0h0a.58.58,0,0,1,.05-.28v-.1h0v-.09h0a1.38,1.38,0,0,1,.1-.4V87a9.32,9.32,0,0,1,3.76-5h2.7c.21.79.34,1.11,1.15.86a3.18,3.18,0,0,0,1.29-.84h.49a1.22,1.22,0,0,1,.27,0l.29.07h0c.53.49.27,1.29.33,1.81V84a.53.53,0,0,0,.18.28l.19.08h.1l-.07.07-.87.71Z"/><path class="cls-47" d="M169.74,99.42a1.29,1.29,0,0,1,.57,1.73,1.62,1.62,0,0,1-.1.18h0c-.59.81-2,2-4.94,1.28a6.83,6.83,0,0,1-2.4-1.07,1.31,1.31,0,0,1-.32-1.8,1.61,1.61,0,0,1,.35-.34,1.54,1.54,0,0,0,.69-.8,31.18,31.18,0,0,0-.16-5.2c-.06-.54-.2-1.59-.2-1.59l5,2.38v2.37c0,.63.06,1.17.07,1.3C168.36,98.55,169.07,99.07,169.74,99.42Z"/><path class="cls-48" d="M165,92.92c-.16.45-1.09.52-2.07.17s-1.6-1-1.49-1.44c.16-.62,1.1-.52,2.09-.17S165.12,92.48,165,92.92Z"/><path class="cls-48" d="M168.19,94.23V96.6a2.69,2.69,0,0,1-1,.22c-2.56-.07-3.86-4.38-3.86-4.38Z"/><path class="cls-47" d="M170.89,91.45a4.51,4.51,0,0,1,0,.52,6.46,6.46,0,0,1-.11.75v.21a1,1,0,0,1-.05.24,3.73,3.73,0,0,1-2.5,2.83h-.08a4,4,0,0,1-3.75-1.79,6,6,0,0,1-.64-.94c-.11-.18-.2-.37-.29-.55h0c-.07-.16-.14-.31-.21-.5h0a7.28,7.28,0,0,1-.32-.93h0l-.12-.43-.09-.42a7.15,7.15,0,0,0,.27-1.3V89h0a3.83,3.83,0,0,1,.29-1h0l.09-.14h0a.75.75,0,0,1,.07-.12.28.28,0,0,1,.09-.1,1.76,1.76,0,0,1,.39-.38,2,2,0,0,1,.39-.25h.07a3.52,3.52,0,0,1,1.06-.32h0a3.36,3.36,0,0,0,.63-.06h.7a7.38,7.38,0,0,1,1.06.05h1.24a1.49,1.49,0,0,0,.69-.1c.1.2.18.41.26.61s.14.38.2.58,0,.11.05.16l.12.4h0v.12h0a.59.59,0,0,0,0,.19.54.54,0,0,0,.08.32v.09a9.25,9.25,0,0,1,.25,1.73A1.69,1.69,0,0,1,170.89,91.45Z"/><path class="cls-20" d="M169.45,93.35a5,5,0,0,1-3.12.32s.73,1.27,1.88,1.15S169.45,93.35,169.45,93.35Z"/><path class="cls-46" d="M170.31,85.13h0v.2a4.17,4.17,0,0,1,0,.5,3.47,3.47,0,0,1-.06.8,1.34,1.34,0,0,0,0,.52l-.1.08a3.91,3.91,0,0,1-3.41.74h0a4.85,4.85,0,0,0-.63-.16,3,3,0,0,0-.42-.06,1.5,1.5,0,0,0-1.49.56,1.75,1.75,0,0,0-.23.92c0,1,.36,2.2-.06,2.4h0a.45.45,0,0,1-.28,0,1.2,1.2,0,0,1-.53-.29l-.07-.07h0a5.31,5.31,0,0,1-1-1.44v-.15a2.67,2.67,0,0,1,0-.4,4.16,4.16,0,0,1,2.76-4.12h0c.06,0,4.59-.23,5.52-.26A.89.89,0,0,0,170.31,85.13Z"/><path class="cls-49" d="M173.84,100.62v-.4h0l-4-1.2h0l-.93-.28v.06l-.1.1a1.07,1.07,0,0,1-.14.16,3.31,3.31,0,0,1-.5.41c-.14.09-.28.18-.43.26h-.08a5.34,5.34,0,0,1-.76.28,3.51,3.51,0,0,1-.72.13A2.9,2.9,0,0,1,163.42,99l-.07-.09-.8.23-5.74,1.6V101c0,.19.05.49.08.86.08.9.2,2.28.33,3.87v.64a2.51,2.51,0,0,0,.05.61h.07l.5.32h.09a15,15,0,0,0,5,1.94l.8.13a14.4,14.4,0,0,0,2.07.14h1.07a16.1,16.1,0,0,0,1.7-.21l.56-.11a15.3,15.3,0,0,0,2-.59,4.34,4.34,0,0,0,.5-.2,15.66,15.66,0,0,0,2.06-1l.21-.13C174,104.26,173.87,101.61,173.84,100.62Z"/><path class="cls-50" d="M168.19,99.57l.16,1.56a1.09,1.09,0,0,1-.31.87h0a1.06,1.06,0,0,1-1.39.08h-.05a1,1,0,0,1-.42-.78l-.09-1.48.74-2Z"/><polygon class="cls-49" points="168.47 97.07 166.81 97.75 168.02 100.96 169.8 99.01 168.47 97.07"/><polygon class="cls-49" points="163.51 96.97 162.45 99.23 166.81 101.04 166.81 97.75 163.51 96.97"/><path class="cls-50" d="M169.21,109.25l-.56.11a15.92,15.92,0,0,1-1.69.21h-.88l.19-1.71h0l.57-5,.07-.63.05-.5.83-.38.13.71.12.67.85,4.71h0Z"/><path class="cls-51" d="M166.27,107.89h0l-2.44-5.72-1.11-2.6-.11-.26h0l-.09-.21-5.71,1.59h0V101l.09.79h0v0l.31,3.9V107h0l.07,0,.5.32h.09a15,15,0,0,0,5,1.94l.8.13a14.4,14.4,0,0,0,2.07.14H166q.44,0,.87,0Zm7.81-2.92-.24-4.35v-.4h0l-4-1.2h0v.41l-.29,2.68h0l-.57,5.36h0l-.24,1.88a2.31,2.31,0,0,0,.56-.11,15.27,15.27,0,0,0,2-.58c.18-.07.35-.14.49-.21a14.1,14.1,0,0,0,2.07-1l.21-.12.14-.09a18.4,18.4,0,0,0-.09-2.23Z"/><path class="cls-51" d="M158,107.39h-.1a5.18,5.18,0,0,1-.49-.32h-.07a15.31,15.31,0,0,1-3.13-2.83,10.7,10.7,0,0,1,2.57-3.43V101l.14.78.67,3.69h0Z"/><path class="cls-51" d="M176.56,105.31a16.14,16.14,0,0,1-1.48,1.26c-.16.12-.32.23-.5.34l-.44.29-.14.09-.21.13v-7.21a4.61,4.61,0,0,1,1.7,1.46A28.66,28.66,0,0,1,176.56,105.31Z"/><g class="cls-52"><path class="cls-53" d="M165.28,107.54l-2.11,1.24.71.67a3.53,3.53,0,0,1-.8-.14l-.66-.61,1.56-.92-2.23-.37-2.2-6.89.43-.14,2.12,6.67Z"/><path class="cls-53" d="M172.31,107.9h-1.42l.86.56-.49.2-1.88-1.21h2.54l.61-7H173Z"/></g><g class="cls-52"><path class="cls-53" d="M175.38,103l-.27,3.59a5.36,5.36,0,0,1-.49.34l.32-4Z"/></g><g class="cls-52"><path class="cls-53" d="M157.94,107.34c-.17-.1-.33-.21-.49-.32l-.17-1.18v-.14l-.52-3.84h.43l.49,3.7h0Z"/></g><polygon class="cls-54" points="165.65 100.7 163.32 99.87 163.4 99.66 165.73 100.49 165.65 100.7"/><rect class="cls-54" x="168.18" y="99.89" width="1.53" height="0.22" transform="translate(-23.19 140.35) rotate(-42.48)"/><path class="cls-55" d="M171.65,83.54h0a1.06,1.06,0,0,1-.21.59l-.09.11-.08.06-.86.71h-.27l-1,.28h0l-3.85,1.13h0l-1.06.3h-.1L162.3,87h-.25l-1.05.16h0l-.59.08h-.59L158.7,87a1,1,0,0,1-.85-1.13.5.5,0,0,1,0-.12l.22-.83a1,1,0,0,1,.33-.52l.22-.2a1.14,1.14,0,0,1,.23-.15l4.94-2.47h.07l.22,0h5.65a1.13,1.13,0,0,1,.26,0l.29.08h0a1,1,0,0,1,.5.31l.57.65A1.12,1.12,0,0,1,171.65,83.54Z"/><g class="cls-52"><path class="cls-56" d="M171.07,84.16h0a3,3,0,0,1-.65.88h-.08l-.19.13-.41.27-.6.39-1,.64-.14.09-.18.12-.2.12a5.76,5.76,0,0,1-2.08.74,4.92,4.92,0,0,1-.94,0h-4.76s-.94-.52-.58-.73c.2-.12.63.07,1.11.08a.81.81,0,0,0,.22,0,1.27,1.27,0,0,0,.89-.49A1.34,1.34,0,0,1,163,86l.23.06c.27.07.53.16.8.22.86.19.86,0,1.71-1.13l.09-.12h0c.74-.92,1.33-.36,2-.1a1.8,1.8,0,0,0,.4.1h0a.81.81,0,0,0,.22,0h.17a1.3,1.3,0,0,0,.39-.14c.63-.32,1-1,1.67-1h.16C171.09,83.84,171.12,84,171.07,84.16Z"/></g><path class="cls-55" d="M170.4,87.76l-.12.06-.13.05-.31.11h-.12l-.59.16-.4.08-.39.09c-.72.14-1.54.27-2.38.39h0l-1.48.17h-.79L163,89h-1.32a3.53,3.53,0,0,1-1.44-.21.37.37,0,0,1-.16-.17v-.29a1,1,0,0,1,.22-.39h0a2.4,2.4,0,0,1,.4-.38l.28-.19h0l.27-.17.89-.2.28-.07,6.49-1.48h.22a5.07,5.07,0,0,1,.54.09,2.91,2.91,0,0,1,.39.12h.06l.12.06a.68.68,0,0,1,.37.41h0a1,1,0,0,1,.17.1h.06C171.3,86.64,171.55,87.22,170.4,87.76Z"/><path class="cls-56" d="M170.66,86.19l-.4.1h-.2l-1.1.25-.43.11-.9.21-3.4.78-.83.19-.29.07-1.16.27-.22,0-1.48.34h-.16v-.09h0L160,88l-.12-.5h0l.39-.09h.21l.85-.2.89-.21.28-.06L169,85.47l1.19-.27h.26l.12.49.13.55h0Z"/><polygon class="cls-50" points="170.51 85.6 170.28 85.66 170.15 85.69 170.09 85.7 169.1 85.93 166.65 86.5 166.12 86.62 164.34 87.03 163.77 87.16 162.14 87.54 161.9 87.59 161.86 87.6 160.32 87.96 160.3 87.96 160.11 88.01 159.94 88.05 159.82 87.53 159.83 87.53 160.21 87.44 160.42 87.4 161.28 87.2 162.16 86.99 162.44 86.93 168.94 85.42 170.12 85.15 170.29 85.11 170.39 85.09 170.51 85.6"/><circle class="cls-20" cx="166.43" cy="141.27" r="15.3"/><rect class="cls-20" x="189.36" y="129.77" width="63.8" height="4.12"/><g class="cls-37"><rect class="cls-20" x="189.36" y="138.44" width="75.03" height="2.46"/><rect class="cls-20" x="189.36" y="144.37" width="29.75" height="2.46"/><rect class="cls-20" x="286.09" y="144.37" width="52.87" height="2.46"/><rect class="cls-20" x="227.18" y="144.37" width="51.97" height="2.46"/><rect class="cls-20" x="189.36" y="150.31" width="149.59" height="2.46"/></g><path class="cls-46" d="M164,141.82a7,7,0,0,1-3.05-7.41c1.1-4.92,6.1-7.26,6.43-6.1s.32,1.69,1.28,1.38c1.31-.41,1.21-1.3,2-.92,1.51.72-.29,2.69,1.56,2.48,1-.1,1.43.42,1.19,1.48C172.76,135.5,164,141.82,164,141.82Z"/><path class="cls-47" d="M170.2,146.38a1.28,1.28,0,0,1,.57,1.73h0a1.62,1.62,0,0,1-.1.18h0c-.59.81-2,2-4.94,1.29a7.1,7.1,0,0,1-2.4-1.07,1.31,1.31,0,0,1-.31-1.81,1.23,1.23,0,0,1,.35-.33,1.64,1.64,0,0,0,.68-.81,32.29,32.29,0,0,0-.16-5.2c-.06-.53-.2-1.59-.2-1.59l5,2.38v2.38c0,.63.05,1.17.06,1.3C168.82,145.52,169.53,146,170.2,146.38Z"/><path class="cls-48" d="M165.41,139.89c-.16.44-1.09.52-2.07.17s-1.6-1-1.49-1.44c.15-.63,1.1-.5,2.08-.17S165.58,139.44,165.41,139.89Z"/><path class="cls-48" d="M168.68,141.19v2.38a2.49,2.49,0,0,1-1,.21c-2.57-.07-3.86-4.37-3.86-4.37Z"/><path class="cls-47" d="M171.36,138.41a2.26,2.26,0,0,1,0,.52,4.81,4.81,0,0,1-.12.76.67.67,0,0,1,0,.2l-.06.24a3.69,3.69,0,0,1-2.43,2.85h-.08a4,4,0,0,1-3.75-1.79,6.76,6.76,0,0,1-.64-.94c-.11-.19-.2-.37-.29-.56h0c-.07-.15-.14-.3-.21-.47h0a7.24,7.24,0,0,1-.31-.93h0l-.12-.43-.09-.42a7,7,0,0,0,.27-1.29V136h0a3.42,3.42,0,0,1,.29-.94h0l.09-.15h0a.41.41,0,0,1,.07-.11.44.44,0,0,1,.08-.11,2.4,2.4,0,0,1,.4-.38,2,2,0,0,1,.39-.25h.07a3.52,3.52,0,0,1,1-.31h0a4.64,4.64,0,0,1,.64-.07h3a1.36,1.36,0,0,0,.69-.09c.08.17.17.38.26.61s.14.38.2.58a1,1,0,0,0,.05.16,2.66,2.66,0,0,0,.12.39h0v.12h0a.61.61,0,0,0,0,.19,1.85,1.85,0,0,0,.08.32c0,.1,0,.07,0,.1a10.14,10.14,0,0,1,.24,1.73A2.72,2.72,0,0,1,171.36,138.41Z"/><path class="cls-20" d="M169.91,140.32a5.14,5.14,0,0,1-3.12.32s.73,1.26,1.88,1.15S169.91,140.32,169.91,140.32Z"/><path class="cls-46" d="M170.77,132.1h0v.69c0,.18-.05.56-.07.8v.5l-.09.07a3.85,3.85,0,0,1-3.41.74h0l-.63-.15a3.18,3.18,0,0,0-.43-.06,1.5,1.5,0,0,0-1.49.56,1.75,1.75,0,0,0-.23.92c0,1,.36,2.2-.06,2.39h0a.37.37,0,0,1-.29,0,1.22,1.22,0,0,1-.52-.29l-.07-.06h0a5.31,5.31,0,0,1-1-1.44v-.55a4.16,4.16,0,0,1,2.76-4.12h0c.06,0,4.59-.24,5.52-.27Z"/><path class="cls-57" d="M174.3,147.6v-.4h0l-4-1.2h0l-.93-.28v.06l-.09.1-.15.16a3.23,3.23,0,0,1-.49.41,3.78,3.78,0,0,1-.43.26h-.09a4,4,0,0,1-.75.28,4.54,4.54,0,0,1-.72.13A2.88,2.88,0,0,1,164,145.9l-.07-.09-.81.23-5.7,1.58v.27a3.94,3.94,0,0,0,.08.87c.08.9.19,2.27.32,3.86v0a1,1,0,0,0,0,.25v1h.07c.17.12.33.22.5.32l.09.06a15,15,0,0,0,5,1.93c.27.06.53.1.8.14a14.39,14.39,0,0,0,2.07.13h1a16.1,16.1,0,0,0,1.7-.21l.56-.12a15.27,15.27,0,0,0,2-.58c.18-.07.35-.13.52-.21a14.49,14.49,0,0,0,2.06-1l.21-.12C174.42,151.23,174.33,148.59,174.3,147.6Z"/><path class="cls-58" d="M168.63,146.54l.16,1.56a1.1,1.1,0,0,1-.31.86h0a1.07,1.07,0,0,1-1.39.09H167a1,1,0,0,1-.41-.78l-.1-1.48.75-2Z"/><polygon class="cls-57" points="168.93 144.04 167.27 144.72 168.48 147.93 170.26 145.98 168.93 144.04"/><polygon class="cls-57" points="163.98 143.93 162.91 146.2 167.27 148 167.27 144.72 163.98 143.93"/><path class="cls-58" d="M169.67,156.21l-.56.12a13.67,13.67,0,0,1-1.69.2h-.88l.19-1.7h0l.57-5,.07-.63v-.5l.83-.38.13.71.12.67.85,4.71h0Z"/><path class="cls-51" d="M166.73,154.86h0l-2.44-5.73-1.11-2.6-.11-.26h0l-.09-.21-5.67,1.6h0V148l.08.79h0v.05l.31,3.89v.64l.05.61h.07l.49.32a.21.21,0,0,0,.1.06,15,15,0,0,0,5,1.93c.26.06.52.1.8.14a14.39,14.39,0,0,0,2.07.13h1Zm7.81-2.93-.24-4.34v-.4h0l-4-1.2h0v.4l-.29,2.68h0l-.57,5.36h0l-.24,1.89.56-.12a15.27,15.27,0,0,0,2-.58c.18-.07.35-.13.52-.21a14.49,14.49,0,0,0,2.06-1l.21-.12.14-.09c-.07-.78-.1-1.52-.15-2.27Z"/><path class="cls-51" d="M158.5,154.36a.21.21,0,0,1-.1-.06,5.14,5.14,0,0,1-.49-.32h-.07a15.31,15.31,0,0,1-3.13-2.83,10.6,10.6,0,0,1,2.57-3.44V148l.14.78.68,3.68h0Z"/><path class="cls-51" d="M177,152.28a14.72,14.72,0,0,1-1.49,1.25l-.49.35-.45.29-.14.09-.21.12v-7.2a4.64,4.64,0,0,1,1.71,1.46A25.44,25.44,0,0,1,177,152.28Z"/><g class="cls-52"><path class="cls-53" d="M165.74,154.52l-2.11,1.24.71.67a3.71,3.71,0,0,1-.81-.14l-.65-.61,1.56-.92-2.23-.37-2.2-6.92.43-.13,2.12,6.63Z"/><path class="cls-53" d="M172.77,154.87h-1.42l.86.55c-.16.08-.34.14-.52.21l-1.87-1.21h2.54l.61-7h.45Z"/></g><g class="cls-52"><path class="cls-53" d="M175.84,149.93l-.29,3.6-.5.35.32-4Z"/></g><g class="cls-52"><path class="cls-53" d="M158.4,154.3a5.14,5.14,0,0,1-.49-.32l-.17-1.17v-.15l-.53-3.83h.44l.49,3.7h0Z"/></g><polygon class="cls-49" points="166.11 147.67 163.78 146.83 163.86 146.62 166.19 147.46 166.11 147.67"/><rect class="cls-49" x="168.65" y="146.86" width="1.53" height="0.22" transform="translate(-54.78 152.99) rotate(-42.48)"/><circle class="cls-20" cx="166.43" cy="188.24" r="15.3"/><rect class="cls-20" x="189.36" y="176.74" width="125.94" height="4.12"/><g class="cls-37"><rect class="cls-20" x="189.36" y="185.4" width="75.03" height="2.46"/><rect class="cls-20" x="189.36" y="191.34" width="29.75" height="2.46"/><rect class="cls-20" x="286.09" y="191.34" width="52.87" height="2.46"/><rect class="cls-20" x="227.18" y="191.34" width="51.97" height="2.46"/><rect class="cls-20" x="189.36" y="197.28" width="149.59" height="2.46"/></g><path class="cls-46" d="M170.91,179h0l.12.5.13.55h0a1,1,0,0,1,.17.1h0l-.49,1.4-.07.22.12.39h0v.12h0a.29.29,0,0,0,.05.19l.09.32-.63.6-.47.43a13.27,13.27,0,0,1-1.15,1l-.7.59c-.37.31-.74.61-1.1.89h0l-.71.57h0l-.21.17h0l-.16.11h0c-.42.32-.78.61-1.1.84l-.18.14h0l-.7.49h0a7.18,7.18,0,0,1-3.25-6.12v-.14h0v-.16h0a2,2,0,0,1,0-.35v-.18a1.31,1.31,0,0,1,0-.28.06.06,0,0,1,0-.06h0v-.1h0a.06.06,0,0,1,0-.06,2.79,2.79,0,0,1,.1-.39v-.12a9.44,9.44,0,0,1,3.76-5.06h2.7c.21.79.34,1.12,1.16.86a3,3,0,0,0,1.28-.84h.76l.28.08h0c.53.49.27,1.29.33,1.8v.1a.53.53,0,0,0,.18.28.66.66,0,0,0,.19.09h.1l-.08.07-.86.7Z"/><path class="cls-47" d="M170.25,193.35a1.29,1.29,0,0,1,.59,1.73h0a1.62,1.62,0,0,1-.1.18h0c-.6.81-2,2-5,1.29a6.8,6.8,0,0,1-2.39-1.08,1.28,1.28,0,0,1-.33-1.78h0a1.14,1.14,0,0,1,.35-.34,1.64,1.64,0,0,0,.68-.81,32.29,32.29,0,0,0-.16-5.2c-.06-.53-.2-1.59-.2-1.59l5,2.37v2.37c0,.64.06,1.18.07,1.31C168.87,192.49,169.58,193,170.25,193.35Z"/><path class="cls-48" d="M165.47,186.86c-.16.44-1.1.52-2.08.17s-1.6-1-1.48-1.44c.15-.63,1.1-.53,2.08-.17S165.63,186.41,165.47,186.86Z"/><path class="cls-48" d="M168.72,188.15v2.37a2.69,2.69,0,0,1-1,.22c-2.57-.07-3.86-4.37-3.86-4.37Z"/><path class="cls-47" d="M171.41,185.38a2.26,2.26,0,0,1,0,.52,6.32,6.32,0,0,1-.11.76,1.17,1.17,0,0,1-.05.2.43.43,0,0,1-.05.24,3.68,3.68,0,0,1-2.42,2.84h-.09a4,4,0,0,1-3.75-1.79,6.76,6.76,0,0,1-.64-.94l-.29-.55h0c-.07-.16-.14-.31-.21-.5h0a7.28,7.28,0,0,1-.32-.93h0a2.26,2.26,0,0,0-.11-.43c0-.15-.07-.28-.09-.42a8.31,8.31,0,0,0,.26-1.3.24.24,0,0,1,0-.12h0a3.49,3.49,0,0,1,.29-1h0a.42.42,0,0,1,.09-.14h0a.75.75,0,0,1,.07-.12l.08-.1a2.79,2.79,0,0,1,.39-.38,2.59,2.59,0,0,1,.39-.25h.07a3.52,3.52,0,0,1,1.06-.32h0a2.28,2.28,0,0,0,.63-.06h.7a7.67,7.67,0,0,1,1.07.05h1.23a1.49,1.49,0,0,0,.69-.1,4.6,4.6,0,0,1,.25.61c.08.19.15.39.21.58a.43.43,0,0,0,.05.16l.12.4h0v.11h0a.26.26,0,0,0,0,.19,1.22,1.22,0,0,1,.09.32c0,.1,0,.07,0,.1a10.14,10.14,0,0,1,.24,1.73A2.35,2.35,0,0,1,171.41,185.38Z"/><path class="cls-20" d="M170,187.29a5.17,5.17,0,0,1-3.13.32s.73,1.26,1.88,1.14S170,187.29,170,187.29Z"/><path class="cls-46" d="M170.82,179.07h0v.2a4,4,0,0,1,0,.49,3.38,3.38,0,0,1-.06.8v.5l-.1.08a3.91,3.91,0,0,1-3.41.74h0a6.23,6.23,0,0,0-.62-.15,3.18,3.18,0,0,0-.43-.06,1.46,1.46,0,0,0-1.48.56,1.56,1.56,0,0,0-.23.92c0,1,.35,2.19-.07,2.39h0a.37.37,0,0,1-.29,0,1.22,1.22,0,0,1-.52-.29l-.07-.06h0a5.72,5.72,0,0,1-1-1.44v-.16a2.67,2.67,0,0,1,0-.4,4.17,4.17,0,0,1,2.76-4.11h0s4.59-.24,5.52-.26A1,1,0,0,0,170.82,179.07Z"/><path class="cls-49" d="M174.35,194.58v-.4h0l-4-1.19h0l-.93-.29,0,.06-.09.11-.15.15a3.23,3.23,0,0,1-.49.41,3.78,3.78,0,0,1-.43.26h-.08a4.07,4.07,0,0,1-.76.28,3.51,3.51,0,0,1-.72.13,2.9,2.9,0,0,1-2.69-1.21l-.07-.1-.81.23-5.69,1.61v.27a3.81,3.81,0,0,0,.08.86c.08.91.2,2.28.33,3.87v.05a1,1,0,0,0,0,.25v1l.08,0,.49.32.09.06a15,15,0,0,0,5,1.93c.27.06.53.1.8.14a16,16,0,0,0,2.07.13h1a15.92,15.92,0,0,0,1.69-.21l.56-.11a15.3,15.3,0,0,0,2-.59,4.34,4.34,0,0,0,.5-.2,15.78,15.78,0,0,0,2.07-1l.21-.13C174.48,198.2,174.38,195.54,174.35,194.58Z"/><path class="cls-59" d="M168.68,193.51l.16,1.56a1,1,0,0,1-.31.86h0a1.05,1.05,0,0,1-1.38.09h-.06a1.06,1.06,0,0,1-.42-.78l-.09-1.49.75-2Z"/><polygon class="cls-49" points="168.98 191 167.32 191.69 168.53 194.9 170.31 192.95 168.98 191"/><polygon class="cls-49" points="164.03 190.9 162.96 193.17 167.32 194.97 167.32 191.69 164.03 190.9"/><path class="cls-59" d="M169.72,203.18l-.56.11a15.92,15.92,0,0,1-1.69.21h-.87l.18-1.7h0l.57-5,.07-.63.06-.49.82-.39.13.71.12.67.85,4.71h0Z"/><path class="cls-51" d="M166.78,201.83h0l-2.43-5.72-1.11-2.61-.11-.27h0L163,193l-5.69,1.61h0v.31h0l.09.79h0v0l.31,3.9v1.19h.08l.49.32.09.06a15,15,0,0,0,5,1.93c.26.06.52.1.79.14a16,16,0,0,0,2.07.13h1Zm7.82-2.93-.25-4.35v-.39h0l-4-1.2h0v.41L170,196h0l-.58,5.37h0l-.23,1.88.56-.11a15.3,15.3,0,0,0,2-.59,4.34,4.34,0,0,0,.5-.2,15.78,15.78,0,0,0,2.07-1l.21-.12.14-.09C174.67,200.39,174.6,199.64,174.6,198.9Z"/><path class="cls-51" d="M158.55,201.33l-.09-.06L158,201h-.07a15.37,15.37,0,0,1-3.14-2.83,10.73,10.73,0,0,1,2.58-3.43V195h0l.14.78.67,3.68h0Z"/><path class="cls-51" d="M177.09,199.25a14.61,14.61,0,0,1-1.48,1.25,5.5,5.5,0,0,1-.5.34l-.44.3-.14.09-.21.12v-7.2a4.68,4.68,0,0,1,1.7,1.45A35.48,35.48,0,0,1,177.09,199.25Z"/><g class="cls-52"><path class="cls-53" d="M165.79,201.5l-2.11,1.24.71.67a3.63,3.63,0,0,1-.8-.14l-.65-.61,1.55-.92-2.23-.37-2.2-6.92.43-.14,2.12,6.64Z"/><path class="cls-53" d="M172.82,201.84H171.4l.86.55-.49.2-1.89-1.2h2.55l.61-7h.44Z"/></g><g class="cls-52"><path class="cls-53" d="M175.9,196.9l-.29,3.61a5.5,5.5,0,0,1-.5.34l.33-3.95Z"/></g><g class="cls-52"><path class="cls-53" d="M158.46,201.27,158,201l-.16-1.17v-.15l-.53-3.84h.44l.5,3.7h0Z"/></g><polygon class="cls-54" points="166.16 194.63 163.84 193.8 163.91 193.59 166.24 194.42 166.16 194.63"/><rect class="cls-54" x="168.7" y="193.81" width="1.53" height="0.22" transform="translate(-86.48 165.35) rotate(-42.48)"/><path class="cls-55" d="M172.17,177.47v.05a1.06,1.06,0,0,1-.21.6l-.1.1-.07.07-.86.71h-.26l-1,.29h0l-3.86,1.12h0l-1.06.31h-.1l-1.83.26h-.25l-1,.15h0l-.58.09h-.21l-.38.06h0l-1.12-.27a1.07,1.07,0,0,1-.78-1.3h0l.22-.83a1,1,0,0,1,.33-.5l.22-.2a1.14,1.14,0,0,1,.23-.15l4.94-2.47h.07l.22-.05h5.84l.28.08h0a1,1,0,0,1,.5.31l.57.65A1.1,1.1,0,0,1,172.17,177.47Z"/><g class="cls-52"><path class="cls-56" d="M171.58,178.09h0a3.52,3.52,0,0,1-.65.88h0l-.07.05-.19.12-.42.28-.6.39-1,.63-.15.1-.17.11-.2.13a5.76,5.76,0,0,1-2.08.74,7.37,7.37,0,0,1-.94,0h-4.76s-.94-.5-.58-.73c.2-.12.62.07,1.11.08h.22a1.31,1.31,0,0,0,.89-.49,1.33,1.33,0,0,1,1.51-.46.86.86,0,0,1,.23.06c.26.07.53.16.8.22.86.19.86,0,1.71-1.13l.09-.12h0c.74-.92,1.33-.36,2-.1a1.8,1.8,0,0,0,.4.1h.39a1.28,1.28,0,0,0,.39-.13c.63-.32,1.05-1,1.66-1h.17C171.61,177.76,171.65,177.92,171.58,178.09Z"/></g><path class="cls-55" d="M170.91,181.67l-.12.06-.13.05-.32.1h-.1l-.59.16-.4.08-.4.09c-.72.14-1.54.27-2.38.39h0l-1.48.17h-2.8a3.71,3.71,0,0,1-1.44-.22.29.29,0,0,1-.15-.16v-.09h0v-.16h0a1,1,0,0,1,.22-.38h0a2.41,2.41,0,0,1,.41-.37l.27-.2h0l.26-.16.9-.21.28-.06,6.49-1.49h.22a5.07,5.07,0,0,1,.54.09l.39.12h.06l.12.06a.7.7,0,0,1,.36.41h0l.18.1h0C171.81,180.57,172.06,181.15,170.91,181.67Z"/><path class="cls-56" d="M171.16,180.12l-.41.1-.2.05-1.1.25-.43.1-.9.21-3.39.78-.83.2-.29.06-1.17.27-.21.05-1.48.35h-.17v-.09h0l-.11-.5-.12-.49h0l.39-.09H161l.84-.2.9-.21.28-.06,6.49-1.48,1.19-.28h.26l.12.49.13.56h0Z"/><polygon class="cls-50" points="171.02 179.53 170.79 179.59 170.67 179.62 170.6 179.63 169.61 179.86 167.16 180.43 166.63 180.55 164.85 180.96 164.29 181.09 162.66 181.47 162.42 181.53 162.38 181.53 160.83 181.89 160.81 181.9 160.63 181.94 160.45 181.98 160.34 181.47 160.34 181.47 160.73 181.38 160.94 181.33 161.78 181.13 162.68 180.93 162.96 180.86 169.45 179.36 170.64 179.08 170.81 179.04 170.9 179.02 171.02 179.53"/><circle class="cls-20" cx="373.81" cy="93.92" r="9.35"/><circle class="cls-20" cx="373.82" cy="187.61" r="9.35"/><circle class="cls-20" cx="373.81" cy="141.23" r="9.35"/><path class="cls-60" d="M373.1,145.45a.76.76,0,0,1-.55-.23l-3.46-3.35a.79.79,0,0,1,1.11-1.13h0l2.81,2.71,4.35-6a.78.78,0,0,1,1.09-.19h0a.79.79,0,0,1,.19,1.1h0l-4.9,6.75a.83.83,0,0,1-.58.32Z"/><path class="cls-60" d="M374.54,95v1.07a.87.87,0,0,1-.93.81h0a.91.91,0,0,1-1-.81v-1.8a.93.93,0,0,1,1-.81,1.88,1.88,0,1,0,.72-3.69,1.75,1.75,0,0,0-.72,0,2.26,2.26,0,0,0-1.88.9,1.07,1.07,0,0,1-1.33.3A.73.73,0,0,1,370,90l0-.06a.61.61,0,0,1,.07-.14,4.3,4.3,0,0,1,3.54-1.72c2.26,0,4.12,1.55,4.12,3.46A3.62,3.62,0,0,1,374.54,95Zm0,3.61v.29a.87.87,0,0,1-.92.82h0a.9.9,0,0,1-1-.77v-.33a.9.9,0,0,1,1-.81h0a.87.87,0,0,1,1,.75.09.09,0,0,1,0,0Z"/><path class="cls-60" d="M374.8,189.3v1.07a.87.87,0,0,1-.93.81h0a.91.91,0,0,1-1-.81v-1.79a.92.92,0,0,1,1-.81,1.88,1.88,0,1,0,.72-3.69,1.75,1.75,0,0,0-.72,0,2.23,2.23,0,0,0-1.88.9,1.06,1.06,0,0,1-1.32.3.75.75,0,0,1-.44-.95l0-.05a1.09,1.09,0,0,1,.08-.15,4.27,4.27,0,0,1,3.54-1.71c2.26,0,4.12,1.55,4.12,3.46A3.65,3.65,0,0,1,374.8,189.3Zm0,3.61v.29a.87.87,0,0,1-.93.81h0a.91.91,0,0,1-1-.79v-.31a.91.91,0,0,1,1-.81.87.87,0,0,1,1,.73.17.17,0,0,1,0,.07Z"/><path class="cls-7" d="M178.32,302.3H119.9s4.34-12.75,18.1-8.11c0,0,3.46-10.88,13-10.5s12.6,9.3,12.6,9.3S176.49,291.44,178.32,302.3Z"/><path class="cls-7" d="M338.87,302.3H296.05s3.19-9.34,13.27-5.93c0,0,2.55-8,9.55-7.7s9.24,6.79,9.24,6.79S337.53,294.33,338.87,302.3Z"/><path class="cls-6" d="M221.33,302.3H192.21a6.8,6.8,0,0,1,8.69-4.12l.31.12s1.74-5.42,6.5-5.24A7.19,7.19,0,0,1,214,297.7S220.42,296.88,221.33,302.3Z"/><path class="cls-6" d="M421,302.3H387.87a7.73,7.73,0,0,1,9.82-4.78l.46.18s2-6.17,7.41-6a8.13,8.13,0,0,1,7.16,5.28S420,296.13,421,302.3Z"/><path class="cls-4" d="M160.81,191.09h-.66a9.13,9.13,0,0,1-2.93-1.8,39.23,39.23,0,0,1-3-2.76c-.39-.41-.79-.83-1.18-1.26l-.62-.69a39.88,39.88,0,0,1-2.55-3.18l-.25-.34h0l-.12-.34a5.63,5.63,0,0,1-.35-1.05v-.11a1.63,1.63,0,0,0-.13-.37c-2.3-5.28,3.37-15.07,3.37-15.07s.15,0,1,1.23c.25.37.56.86,1,1.48h0c1.18,1.93,3.08,5.22,6.09,10.83a21.92,21.92,0,0,1,1,2.07c.28.68.5,1.25.7,1.84.08.25.16.49.22.74v.09c.07.25.14.49.19.75a16.6,16.6,0,0,1,.31,1.85C163.19,188.4,162.07,190.54,160.81,191.09Z"/><path class="cls-4" d="M162.56,183.17l-8.32,3.36c-.39-.41-.79-.83-1.18-1.26l-.62-.69a39.88,39.88,0,0,1-2.55-3.18l-.25-.34h0l-.12-.34a5.63,5.63,0,0,1-.35-1.05v-.11c-1.16-5.44,3.73-13.91,3.73-13.91s.64,0,1.44,1.2h0c1.18,1.93,3.08,5.22,6.09,10.83a19.71,19.71,0,0,1,1,2.07c.28.68.5,1.25.7,1.84.08.24.16.49.22.74a.14.14,0,0,1,0,.09C162.44,182.68,162.5,182.93,162.56,183.17Z"/><path class="cls-4" d="M162.94,181.28l-9.89,4-.87.35-2.29-4.22-.75-1.36a1.11,1.11,0,0,0-.13-.87c-2.29-5.27,3.37-15.07,3.37-15.07s.62,0,1.44,1.22C154.84,166.82,162.75,180.69,162.94,181.28Z"/><path class="cls-46" d="M136.35,156.5a14.16,14.16,0,0,1-6.24-9.76c-.9-7.53,6.82-8.64,9.48-12.23a15.29,15.29,0,0,0,1.82-3,.43.43,0,0,1,.57-.22h0a.45.45,0,0,1,.25.32,12.91,12.91,0,0,1,.28,3.22c-.18,1.48-.25,1.74-.25,1.74a41.68,41.68,0,0,0,2.29-3.86,7.13,7.13,0,0,0,.85-2.54.43.43,0,0,1,.46-.39.42.42,0,0,1,.36.24,10.87,10.87,0,0,1,1.57,5.55l-.06,2.39a3.33,3.33,0,0,0,1.79-1.2h0a.43.43,0,0,1,.6-.12h0a.47.47,0,0,1,.19.38,14.7,14.7,0,0,1-2,6.11C145.93,147.45,136.35,156.5,136.35,156.5Z"/><path class="cls-47" d="M145.35,162.72a2.2,2.2,0,0,1,1,2.95l0,.05a1.92,1.92,0,0,1-.18.31v.06c-1,1.4-3.37,3.46-8.45,2.29a11.82,11.82,0,0,1-4.13-1.8,2.22,2.22,0,0,1-.59-3.07,2.36,2.36,0,0,1,.59-.59,2.78,2.78,0,0,0,1.16-1.39,48.63,48.63,0,0,0-.37-8.91c-.11-.9-.36-2.72-.36-2.72l8.61,4s0,2.24.12,4.06a22,22,0,0,0,.13,2.23C143,161.26,144.2,162.14,145.35,162.72Z"/><path class="cls-48" d="M137.06,151.68c-.27.77-1.87.92-3.56.34s-2.74-1.64-2.55-2.45c.24-1.08,1.87-.91,3.55-.32S137.34,150.92,137.06,151.68Z"/><path class="cls-48" d="M142.64,153.86s.05,2.25.12,4.06a4.56,4.56,0,0,1-1.74.4c-4.4-.08-6.69-7.42-6.69-7.42Z"/><path class="cls-47" d="M133.17,147.42c.05.24.1.5.16.73,1.41,5.71,5.55,9.65,9.25,8.8,2.08-.5,3.57-2.37,4.24-4.95a2.13,2.13,0,0,1,.1-.4l.07-.36a11.39,11.39,0,0,0,.17-1.29,5.56,5.56,0,0,1,.05-.9V148a16.85,16.85,0,0,0-.45-3,3.07,3.07,0,0,0-.19-.7l-.09-.33c0-.11,0-.14-.07-.21h0a21.11,21.11,0,0,0-1.1-3,9.38,9.38,0,0,1-3.3.11c-3-.15-6.36-.24-7.82,2.42C133.53,144.46,133.42,147.13,133.17,147.42Z"/><path class="cls-48" d="M142.42,150.36l.5-.14c.32-.09.52-.38.43-.62l-.69-1.84a.51.51,0,0,0-.64-.24h0a.57.57,0,0,0-.45.55l.22,2C141.8,150.3,142.1,150.45,142.42,150.36Z"/><path class="cls-61" d="M137.49,147.22c.08.39.38.67.68.61a.66.66,0,0,0,.39-.82c-.08-.4-.38-.67-.68-.61A.66.66,0,0,0,137.49,147.22Z"/><path class="cls-46" d="M139.38,145a1,1,0,0,0-.13-.16,3.39,3.39,0,0,0-.42-.33l-.33-.16-.39-.11a3.23,3.23,0,0,0-.44,0,2.4,2.4,0,0,0-.46,0,3.19,3.19,0,0,0-.44.13l-.39.21-.31.26a1.55,1.55,0,0,0-.24.27,1.32,1.32,0,0,0-.16.25,2,2,0,0,0-.1.21,1.34,1.34,0,0,0-.07.18l.18-.08.19-.1a1.15,1.15,0,0,1,.25-.12l.28-.14.3-.13.33-.12a2,2,0,0,1,.33-.08,4.06,4.06,0,0,1,.69-.08h1.14Z"/><path class="cls-61" d="M144.59,146.15a.61.61,0,0,0,.64.64.76.76,0,0,0-.21-1.44A.66.66,0,0,0,144.59,146.15Z"/><path class="cls-46" d="M146.61,144a.66.66,0,0,0-.12-.17,2,2,0,0,0-.4-.36,2.58,2.58,0,0,0-.7-.31H145a1.77,1.77,0,0,0-.46,0,2.46,2.46,0,0,0-.45.11c-.14,0-.27.12-.4.18l-.33.24a3.07,3.07,0,0,0-.25.26,1.08,1.08,0,0,0-.18.24,1.28,1.28,0,0,0-.11.2l-.09.18.19-.07.2-.1.25-.1c.09,0,.19-.09.29-.12l.31-.12.33-.09a1,1,0,0,1,.35-.06h1.33a2.78,2.78,0,0,1,.49.08Z"/><g class="cls-52"><path class="cls-48" d="M135.85,150.66a2,2,0,1,0,1.83-2.25A2.07,2.07,0,0,0,135.85,150.66Z"/></g><g class="cls-52"><path class="cls-48" d="M144.62,149.76a2,2,0,0,0,2.13,1.86h.17l.07-.36a11.39,11.39,0,0,0,.17-1.29,5.56,5.56,0,0,1,.05-.9,14.53,14.53,0,0,0-.13-1.48,2.29,2.29,0,0,0-.64,0,2,2,0,0,0-1.83,2.16v0Z"/></g><path class="cls-20" d="M144.77,152.35a8.74,8.74,0,0,1-5.34.59s1.26,2.16,3.24,1.94S144.77,152.35,144.77,152.35Z"/><path class="cls-46" d="M131.79,146.43s1.33,2.74,2.76,3,.58-2.08.56-4.13,1.36-3.21,4.74-2.21a6.77,6.77,0,0,0,6-1.45s.27-3.82.21-3.86-9.62.49-9.72.54h0a7.17,7.17,0,0,0-4.59,7.78Z"/><path class="cls-4" d="M124,210.16h.16a136.36,136.36,0,0,0,14.49,2.26l.49.06c1.48.17,2.86.28,4.09.33h1.1c8.55.09,10.27-2.8,10.27-2.8l-.08-.39c-.43-2-2.28-10.71-2.64-14.9-.11-1.41.23-6.08.28-9.93.13-9.09.35-20.71.35-20.71l-8.51-2.3c-3,2.66-6.1,2.65-9.17.07l-.12-.1-10,2.28s.87,28.52.87,30.53c0,1.29.41,6.65-.93,11h0Z"/><path class="cls-47" d="M145.88,207.56s-.21.79-.61,2.11c-.13.45-.28,1-.46,1.53a.9.9,0,0,1-.08.25c-.55,1.76-1.27,4-2.15,6.43-.41,1.15-.86,2.35-1.34,3.57v.05c-.53,1.35-1.1,2.73-1.7,4.09-.3.67-.61,1.35-.92,2-.21.44-.42.87-.64,1.3V229a43.6,43.6,0,0,1-3.55,6c-.89,1.22-1.64,2.31-2.3,3.31a35.68,35.68,0,0,0-2.83,5c-.09.21-.18.41-.26.61a15.21,15.21,0,0,0-1.06,5.66,49.93,49.93,0,0,1-4.87,19.34c-2.83,6-4.45,8-5.51,11.67-.31,1-.57,2-.8,2.88-.07.26-.14.5-.2.74s-.14.58-.21.91c-.23,1.07-.43,2.38-.63,3.74a1,1,0,0,1,0,.25h0c-.17,1.18-.33,2.4-.49,3.53-.11.84-.22,1.62-.33,2.32h0c-.26,1.68-.53,2.83-.82,2.79a7,7,0,0,1-1.31-.53c-.46-.22-1-.5-1.56-.82s-.91-.55-1.37-.85h0c-2-1.29-3.68-2.9-3-4.1l.13-.23c.38-.65.88-1.41,1.41-2.23l.57-.89c.26-.41.52-.85.78-1.29l.3-.53h0a19.27,19.27,0,0,0,1.31-2.8,10.61,10.61,0,0,0,.4-1.36,4,4,0,0,0,.09-.5c.06-.37.11-.93.15-1.64.19-3.4.16-7.61.45-14,1.22-5.78,2.63-12.33,4.06-18.68.78-1.78,1.54-3.46,2.21-5.16l.16-.39A33.7,33.7,0,0,0,121.05,231c.1-2,.32-4.48.62-7.1.19-1,.37-1.87.54-2.75.09-.46.17-.9.25-1.34.22-1.12.41-2.16.58-3.14l.15-.82c.21-1.25.4-2.38.57-3.35a3.32,3.32,0,0,1,.06-.44.76.76,0,0,1,.06-.37,2.38,2.38,0,0,0,.08-.5c0-.16,0-.21.05-.32h0c.33-2.11.5-3.28.5-3.37h0a3.83,3.83,0,0,1,.59-1.32h19.19Z"/><path class="cls-62" d="M114.88,299.85a1.93,1.93,0,0,1-2,1.34c-5.34-.44-8.46-4.62-8.57-6.81a1,1,0,0,1,.16-.59l2.58-3.9c-.07.09-1.09,3.68,4.3,4.92h0c3.82.83,4.3-3.9,4.3-3.9S115.82,296.68,114.88,299.85Z"/><path class="cls-8" d="M110.49,299.19l.12.05a4.73,4.73,0,0,0,2.54.43c2.55-.49,2.43-3.67,2.61-5.83a27.63,27.63,0,0,0-.05-4.07,3.88,3.88,0,0,0-.06-.76,6.3,6.3,0,0,1-1.09,2.83,3,3,0,0,1-3.21,1.07h0c-5.29-1.22-1.82-5.82-1.63-6.07l-.1.1c-.65.62-3.79,3.76-4.21,6.43C105,295.46,107.9,298.09,110.49,299.19Z"/><path class="cls-47" d="M150.39,289.2l-.06.72-.12,1.51-.05.63v.77a4,4,0,0,1-2.89,1.18,3.12,3.12,0,0,1-2.6-1.1h0v-.18a3.42,3.42,0,0,0-.07-.59h0a2.15,2.15,0,0,0-.09-.7,10,10,0,0,1-.16-1.29v-.58h0c-.58-4.67-1.67-13.44-2.5-19.06,0,0,.06-22.92.24-24.34h0a6.4,6.4,0,0,0-.11-2V244c-.35-1.8-1.27-4.73-3-11.38h0l-.15-4s.54-21.37.56-22.23h14.26c.08.61.15,1.3.22,2l0,.5h0v.49c0,.5.08,1,.11,1.48v1.22a5.81,5.81,0,0,0,0,.59v.59c.05.92.09,1.87.14,2.85v.68a1.41,1.41,0,0,1,0,.29l.05,1.15a14.74,14.74,0,0,0,.05,1.49V228C154.46,230.23,150.93,284.74,150.39,289.2Z"/><path class="cls-8" d="M108.4,293.55l1,1.58a3.19,3.19,0,0,0,3.83,1.21l.16-.07a3.16,3.16,0,0,0,1.84-2.54l.44-4,.11-.91h-.32a5.57,5.57,0,0,1-1,0A6.15,6.15,0,0,1,110,286.3l-.41.64-.91,1.41a3.32,3.32,0,0,0-.5,1.25l-.26,1.72A3.19,3.19,0,0,0,108.4,293.55Z"/><path class="cls-8" d="M110.61,299.24a4.73,4.73,0,0,0,2.54.43c2.55-.49,2.43-3.67,2.61-5.83a27.63,27.63,0,0,0-.05-4.07l.11-.91h-.32a5.57,5.57,0,0,1-1,0,13.68,13.68,0,0,1,0,3,12.49,12.49,0,0,1-.89,3.66c-.13.3-.26.58-.4.84A6.83,6.83,0,0,1,110.61,299.24Z"/><path class="cls-48" d="M150.39,289.2l-.06.72-.12,1.51h-5.76l-.23-1.87h0c-.5-8.37-2.36-41.57-2.26-43.4h0a6.71,6.71,0,0,0-.1-2V244c-.43-2.64-4.05-32.4-4.05-32.4l2.31-.11,5.16-.27,8.48-.44h.12a5.2,5.2,0,0,0,.05.88V212C154.51,221.25,150.93,284.74,150.39,289.2Z"/><path class="cls-8" d="M137,223.69l1.54,2.59.05,1.33L141,289.92h11.38s3.08-66.09,2.1-80.73h-.77l-8.48.44-5.16.26-2.31.12Z"/><path class="cls-48" d="M111.93,280l5.6.6c-.31,1-.57,2-.8,2.88-.07.25-.14.49-.2.74s-.14.58-.21.9l-5-1.63Z"/><path class="cls-8" d="M108.7,281.34l3,.8,5,1.35,2.64.71,18.78-54.26.49-1.52,2.61-7,1.35-3.58.89-7.42-3.36-.52-4-.61-11.65-1.8h0c0,.21-.79,6.22-2.83,16.41-.84,4.22-1.91,9.15-3.22,14.69-.66,2.79-1.34,5.74-2,8.72-1.43,6.35-2.84,12.9-4.05,18.68C110.24,276.18,108.7,281.34,108.7,281.34Z"/><rect class="cls-62" x="144.42" y="300.07" width="19.99" height="2.24"/><path class="cls-8" d="M144.45,300.07a3.8,3.8,0,0,1-.32-1.52c-.07-1.66.44-6.43.44-6.43l6.36-.08s8.71,2,10.73,3,2.78,5,2.78,5Z"/><circle class="cls-62" cx="148.4" cy="296.23" r="2.12"/><path class="cls-62" d="M154.92,293.1a16.75,16.75,0,0,1-4.1-.69l-.62-.2.55-.34c.13-.08,3.05-1.88,4.9-1.88a1.48,1.48,0,0,1,1.63,1.31h0v.12a1.3,1.3,0,0,1-.33,1.05A2.68,2.68,0,0,1,154.92,293.1Zm-3.25-1.1a14.27,14.27,0,0,0,3.25.49,2.23,2.23,0,0,0,1.6-.42.76.76,0,0,0,.18-.6c0-.62-.37-.9-1-.9A11.37,11.37,0,0,0,151.67,292Z"/><path class="cls-62" d="M153.45,296.8h0c-1.76,0-2.75-3.43-3-4.48a.31.31,0,0,1,.06-.29.35.35,0,0,1,.27-.13h.14c1,.42,4.09,1.91,4.16,3.39a1.39,1.39,0,0,1-.85,1.26A1.53,1.53,0,0,1,153.45,296.8Zm-2.3-4.11c.44,1.48,1.29,3.51,2.3,3.51h0a.88.88,0,0,0,.5-.14c.57-.33.56-.61.55-.71C154.44,294.58,152.86,293.48,151.15,292.69Z"/><path class="cls-62" d="M150,294.39a4.25,4.25,0,0,1,.2-1.84,2.49,2.49,0,0,0-1.12.93l-.5-.31a2.81,2.81,0,0,1,2.12-1.31h.55l-.3.47a3.46,3.46,0,0,0-.35,2Z"/><rect class="cls-63" x="124.01" y="206.2" width="30.48" height="5.25"/><rect class="cls-64" x="125.57" y="209.61" width="27.45" height="0.75"/><g class="cls-65"><rect class="cls-8" x="132.81" y="219.89" width="14.2" height="0.75" transform="translate(-101.08 320.35) rotate(-80.13)"/></g><g class="cls-65"><polygon class="cls-8" points="139.39 223.75 139.24 223.01 142.14 222.43 145.2 211.66 145.92 211.86 142.74 223.08 139.39 223.75"/></g><g class="cls-65"><path class="cls-8" d="M125,222.12l-.17-.73c6.17-1.42,7.38-9.4,7.42-9.5l.74.11C132.92,212.08,131.64,220.58,125,222.12Z"/></g><g class="cls-65"><path class="cls-8" d="M153.89,223.16c-6.32-1.46-7.51-9.25-7.55-9.58l.74-.11c0,.08,1.16,7.62,7,9Z"/></g><polygon class="cls-4" points="126.01 190.84 123.01 212.2 155.62 212.2 151.81 190.49 126.01 190.84"/><path class="cls-47" d="M129.67,180.85l-1,4.23h0v.14h0l-.95,4-8.59-.44h0l.16-1.52a2,2,0,0,1,.07-.63,9.78,9.78,0,0,0,.13-1.07c.05-.38.06-.6.1-.92s.06-.49.09-.78c.68-5.94,1.81-15.33,2.25-16.85a4.44,4.44,0,0,1,.27-.72l2.24-2.17h0l.14-.05L129,176.26Z"/><path class="cls-47" d="M126.09,185l.57-.09c2.4-.1,18.94,3.31,18.94,3.31l-.74,4.94h0c-1.34.15-20,.69-21.7.29-3-.72-4.36-2.39-4.08-4.57C119.37,186.51,124.37,185.33,126.09,185Z"/><path class="cls-47" d="M144.86,193.14s2.64,1,4.42.3a28.71,28.71,0,0,0,4-2s3.59,2.72,7.05,2.79a.67.67,0,0,0,.68-.66h0a.66.66,0,0,0-.21-.51,47,47,0,0,0-6.33-5c-1.72-1-8.9.17-8.9.17Z"/><path class="cls-48" d="M129.12,185.15l-.49.11-8.27,1.82-1.12.25c0-.2.05-.41.07-.63s.08-.69.13-1.07.06-.6.1-.92.06-.49.09-.78l8,1h0l1,.13Z"/><path class="cls-4" d="M130.29,185.18l-12.12.5s1.48-10.46,2.34-15.12c.91-5,4-6.43,4-6.43h0A23.08,23.08,0,0,1,130,178.07Z"/><path class="cls-66" d="M140.14,193.07h19.48a1,1,0,0,1,1,1h0a1,1,0,0,1-1,1H140.14a1,1,0,0,1-1-1h0A1,1,0,0,1,140.14,193.07Z"/><path class="cls-66" d="M184.35,172.22H158.9a1.31,1.31,0,0,0-1.28,1.07l-3.56,20.28a1.3,1.3,0,0,0,1.08,1.49H180.8a1.28,1.28,0,0,0,1.27-1.07l3.56-20.28a1.3,1.3,0,0,0-1.07-1.48h-.21Z"/><circle class="cls-4" cx="170.07" cy="184.15" r="2.9"/><path class="cls-47" d="M184,189.63l1.11-2.09a.26.26,0,0,0-.09-.35h-.11a1.3,1.3,0,0,0-1.17.38c-.53.62-1.49,2.08-1.49,2.08Z"/><path class="cls-47" d="M184,191.78l-3.91,1a.13.13,0,0,1-.16-.09h0a.09.09,0,0,1,0-.07,2.4,2.4,0,0,1,1.38-1.55,26.16,26.16,0,0,1,2.63-.56l.27.87a.3.3,0,0,1-.19.38h0Z"/><path class="cls-47" d="M182.53,194.91l-3,.78a.16.16,0,0,1-.21-.11v0a.21.21,0,0,1,0-.11,2.36,2.36,0,0,1,1.35-1.48,23.83,23.83,0,0,1,2.64-.56h0a1.18,1.18,0,0,1-.73,1.49h0Z"/><path class="cls-47" d="M183.17,193.59l-3.95.9a.16.16,0,0,1-.21-.11v0a.15.15,0,0,1,0-.13,3.69,3.69,0,0,1,1.8-1.73,28.77,28.77,0,0,1,2.9-.62l.15.5A1.1,1.1,0,0,1,183.17,193.59Z"/><path class="cls-47" d="M184,190.49l-3.46.91a.16.16,0,0,1-.21-.11v0a.21.21,0,0,1,0-.11,2.36,2.36,0,0,1,1.35-1.45c.69-.19,1.38-.35,2.08-.47a.63.63,0,0,1,.72.44h0a.65.65,0,0,1-.42.8Z"/><path class="cls-47" d="M183.24,193.8a2.05,2.05,0,0,0,.6-.71,1.35,1.35,0,0,0,.06-.69,4,4,0,0,0,.39-.81,4.15,4.15,0,0,0,.05-.93,2.93,2.93,0,0,0,.14-1.14.58.58,0,0,0-.58-.56h0a6.14,6.14,0,0,0-.94.23Z"/></g></svg>