<?xml version="1.0" encoding="UTF-8"?>
<svg id="Layer_1" data-name="Layer 1" xmlns="http://www.w3.org/2000/svg" xmlns:xlink="http://www.w3.org/1999/xlink" viewBox="0 0 5920.57 969.21">
  <defs>
    <style>
      .cls-1 {
        fill: url(#linear-gradient);
      }

      .cls-1, .cls-2, .cls-3 {
        stroke-width: 0px;
      }

      .cls-2 {
        fill: url(#linear-gradient-2);
      }

      .cls-3 {
        fill: #0a0a0a;
      }
    </style>
    <linearGradient id="linear-gradient" x1="0" y1="283.85" x2="942.48" y2="283.85" gradientUnits="userSpaceOnUse">
      <stop offset="0" stop-color="#1c78ad"/>
      <stop offset=".99" stop-color="#32ca9b"/>
    </linearGradient>
    <linearGradient id="linear-gradient-2" x1="227.26" y1="685.36" x2="1169.73" y2="685.36" xlink:href="#linear-gradient"/>
  </defs>
  <g>
    <path class="cls-1" d="M637.5,0h276.14c22.17,0,36.02,24,24.93,43.2l-132.18,228.82c-5.14,8.91-14.65,14.39-24.93,14.39h-292.62c-10.29,0-19.79,5.49-24.93,14.39l-145.83,252.51c-5.14,8.91-14.65,14.39-24.93,14.39H28.84c-22.17,0-36.02-24-24.93-43.19L298.42,14.55c5.14-8.9,14.64-14.39,24.92-14.39l314.16-.15Z"/>
    <path class="cls-2" d="M864.76,401.51h276.13c22.17,0,36.02,24,24.93,43.2l-132.2,228.8c-5.14,8.9-14.65,14.39-24.93,14.39h-292.62c-10.29,0-19.79,5.49-24.93,14.39l-145.83,252.52c-5.14,8.91-14.65,14.39-24.93,14.39h-264.27c-22.17,0-36.02-24-24.93-43.19l294.5-509.96c5.14-8.9,14.64-14.39,24.92-14.4l314.18-.15Z"/>
  </g>
  <g>
    <path class="cls-3" d="M4372.44,762.14l194.92-176.68c27.29-25.79,51.54-48.54,71.28-69.78,20.48-21.24,37.14-40.95,50.03-59.91,12.92-18.96,22.77-38.68,28.85-57.64,6.04-18.96,9.07-39.44,9.07-61.41,0-25.03-5.3-47.79-15.14-69.78-9.11-21.22-22.77-40.18-39.44-55.36-16.7-15.92-36.4-28.05-59.17-37.16-23.48-9.09-48.51-12.89-75.83-12.89s-53.06,3.04-74.32,9.85c-21.96,6.07-41.69,15.16-59.88,27.31-18.22,12.13-34.14,26.55-49.32,43.23-14.4,16.68-28.81,35.64-43.21,56.88l35.66,23.49c26.51-37.92,54.58-67.48,82.65-87.96,28.81-20.48,62.95-30.33,103.9-30.33,18.96,0,37.14,3.02,54.58,9.85,17.44,6.07,32.62,15.16,46.25,27.31,12.92,11.37,23.51,25.77,31.1,43.21,7.59,16.7,12.15,35.66,12.15,56.14,0,16.66-3.04,33.36-7.59,48.53-4.55,15.92-12.89,32.6-23.51,49.29-11.37,17.44-25.77,35.64-43.99,54.6-18.18,19.72-40.18,40.95-65.95,64.47l-238.13,214.62v35.64h435.27v-45.51h-360.21Z"/>
    <path class="cls-3" d="M5142.78,609.06V161.54h-43.52l-366.6,453.64,16.82,35.13h347.47v157.33h45.83v-157.33h104.64v-41.24h-104.64ZM5096.95,609.06h-306.23l306.23-378.8v378.8Z"/>
    <path class="cls-3" d="M5350.18,110.46l-.67,748.32h39.88l.63-748.32h-39.83Z"/>
    <path class="cls-3" d="M5492.1,161.54v46.16h374.61l-293.07,599.98h52.32l294.61-611.51v-34.63h-428.47Z"/>
  </g>
  <g>
    <path class="cls-3" d="M1895.61,442.29h-291.25v-178.07h295.81c6.87,0,13.22-3.67,16.66-9.62l37.05-64.23c7.39-12.82-1.86-28.84-16.66-28.84h-426.33c-10.62,0-19.23,8.61-19.23,19.23v607.68c0,10.62,8.61,19.23,19.23,19.23h74.24c10.62,0,19.23-8.61,19.23-19.23v-243.84h254.27c6.86,0,13.2-3.66,16.64-9.59l36.98-63.85c7.43-12.82-1.83-28.87-16.64-28.87Z"/>
    <path class="cls-3" d="M2476.87,705.37h-305.6V180.77c0-10.62-8.61-19.23-19.23-19.23h-74.24c-10.62,0-19.23,8.61-19.23,19.23v607.68c0,10.62,8.61,19.23,19.23,19.23h362.35c6.88,0,13.24-3.68,16.67-9.64l36.72-63.84c7.37-12.82-1.88-28.82-16.67-28.82Z"/>
    <path class="cls-3" d="M3046.4,705.37h-316.27c-10.62,0-19.23-8.61-19.23-19.23v-134.23c0-10.62,8.61-19.23,19.23-19.23h233.54c6.86,0,13.2-3.66,16.64-9.59l36.96-63.84c7.42-12.82-1.83-28.87-16.64-28.87h-270.5c-10.62,0-19.23-8.61-19.23-19.23v-127.69c0-10.62,8.61-19.23,19.23-19.23h274.67c6.87,0,13.22-3.67,16.66-9.62l37.05-64.23c7.39-12.82-1.86-28.84-16.66-28.84h-424.39c-10.62,0-19.23,8.61-19.23,19.23v607.68c0,10.62,8.61,19.23,19.23,19.23h391.99c6.86,0,13.2-3.66,16.64-9.59l36.96-63.84c7.42-12.82-1.83-28.87-16.64-28.87Z"/>
    <path class="cls-3" d="M3615.93,705.36h-316.27c-10.62,0-19.23-8.61-19.23-19.23v-134.23c0-10.62,8.61-19.23,19.23-19.23h233.54c6.86,0,13.2-3.66,16.64-9.59l36.96-63.84c7.42-12.82-1.83-28.87-16.64-28.87h-270.5c-10.62,0-19.23-8.61-19.23-19.23v-127.69c0-10.62,8.61-19.23,19.23-19.23h274.67c6.87,0,13.22-3.67,16.66-9.62l37.05-64.23c7.39-12.82-1.86-28.84-16.66-28.84h-424.39c-10.62,0-19.23,8.61-19.23,19.23v607.68c0,10.62,8.61,19.23,19.23,19.23h391.99c6.86,0,13.2-3.66,16.64-9.59l36.96-63.84c7.42-12.82-1.83-28.87-16.64-28.87Z"/>
    <path class="cls-3" d="M4227.07,161.54h-470.56c-10.62,0-19.23,8.61-19.23,19.23v66.92c0,10.62,8.61,19.23,19.23,19.23h166.54c10.62,0,19.23,8.61,19.23,19.23v502.3c0,10.62,8.61,19.23,19.23,19.23h75.76c10.62,0,19.23-8.61,19.23-19.23v-502.3c0-10.62,8.61-19.23,19.23-19.23h112.74c6.87,0,13.23-3.67,16.66-9.62l38.59-66.92c7.39-12.82-1.86-28.84-16.66-28.84Z"/>
  </g>
</svg>