<svg id="Layer_1" data-name="Layer 1" xmlns="http://www.w3.org/2000/svg" xmlns:xlink="http://www.w3.org/1999/xlink" viewBox="0 0 550 310"><defs><style>.cls-1{fill:none;}.cls-2{opacity:0.18;}.cls-3{opacity:0.56;}.cls-4{fill:#43bb94;}.cls-5{opacity:0.34;}.cls-6{fill:#9dc89e;}.cls-7{fill:#599e85;}.cls-8{fill:#10213a;}.cls-9{fill:url(#linear-gradient);}.cls-10{fill:url(#linear-gradient-2);}.cls-11{fill:url(#linear-gradient-3);}.cls-12{fill:url(#linear-gradient-4);}.cls-13{fill:url(#linear-gradient-5);}.cls-14{fill:url(#linear-gradient-6);}.cls-15{fill:url(#linear-gradient-7);}.cls-16{fill:url(#linear-gradient-8);}.cls-17{fill:url(#linear-gradient-9);}.cls-18{fill:url(#linear-gradient-10);}.cls-19{fill:url(#linear-gradient-11);}.cls-20,.cls-23{fill:#fff;}.cls-21{fill:url(#linear-gradient-12);}.cls-22{fill:url(#linear-gradient-13);}.cls-23,.cls-31,.cls-32{isolation:isolate;}.cls-23,.cls-31{opacity:0.3;}.cls-24{fill:#1a7aae;}.cls-25{clip-path:url(#clip-path);}.cls-26{fill:url(#linear-gradient-14);}.cls-27{fill:#333;}.cls-28{opacity:0.8;}.cls-29{fill:#29292b;}.cls-30{fill:#f73859;}.cls-31{fill:#225a81;}.cls-32{fill:#2e2e2e;opacity:0.4;}.cls-33{fill:#2b2b2b;}.cls-34{fill:#262626;}.cls-35{fill:#292929;}.cls-36{fill:#603813;}.cls-37{fill:url(#linear-gradient-15);}.cls-38{opacity:0.2;}.cls-39{opacity:0.6;}.cls-40{opacity:0.9;}.cls-41{fill:#2e2f4d;}.cls-42{fill:#f6a49d;}.cls-43{fill:#d47c74;}.cls-44{fill:#4f1d30;}.cls-45{opacity:0.5;}.cls-46{fill:#ffefe7;}.cls-47{fill:#7986cb;}.cls-48{fill:#5f6fb2;}.cls-49{opacity:0.44;}.cls-50{fill:#2f426b;}</style><linearGradient id="linear-gradient" x1="264.23" y1="261.84" x2="285.76" y2="261.84" gradientUnits="userSpaceOnUse"><stop offset="0" stop-color="#1d78ac"/><stop offset="1" stop-color="#4abc96"/></linearGradient><linearGradient id="linear-gradient-2" x1="78.44" y1="68.79" x2="131.07" y2="68.79" xlink:href="#linear-gradient"/><linearGradient id="linear-gradient-3" x1="431" y1="196.28" x2="460.6" y2="196.28" xlink:href="#linear-gradient"/><linearGradient id="linear-gradient-4" x1="164.75" y1="250.33" x2="209.4" y2="250.33" xlink:href="#linear-gradient"/><linearGradient id="linear-gradient-5" x1="86.14" y1="140.62" x2="103.56" y2="140.62" xlink:href="#linear-gradient"/><linearGradient id="linear-gradient-6" x1="137.69" y1="21.58" x2="150.81" y2="21.58" xlink:href="#linear-gradient"/><linearGradient id="linear-gradient-7" x1="347.77" y1="246.13" x2="377.05" y2="246.13" xlink:href="#linear-gradient"/><linearGradient id="linear-gradient-8" x1="437.55" y1="103.29" x2="454.97" y2="103.29" xlink:href="#linear-gradient"/><linearGradient id="linear-gradient-9" x1="140.26" y1="279.26" x2="275" y2="279.26" xlink:href="#linear-gradient"/><linearGradient id="linear-gradient-10" x1="275" y1="279.26" x2="409.77" y2="279.26" xlink:href="#linear-gradient"/><linearGradient id="linear-gradient-11" x1="106.19" y1="133.22" x2="443.81" y2="133.22" xlink:href="#linear-gradient"/><linearGradient id="linear-gradient-12" x1="127.67" y1="133.23" x2="422.31" y2="133.23" xlink:href="#linear-gradient"/><linearGradient id="linear-gradient-13" x1="125.13" y1="133.23" x2="424.85" y2="133.23" xlink:href="#linear-gradient"/><clipPath id="clip-path"><circle class="cls-1" cx="252.19" cy="106.05" r="40.13"/></clipPath><linearGradient id="linear-gradient-14" x1="245.86" y1="-127.84" x2="258.54" y2="-127.84" gradientTransform="translate(0 235)" gradientUnits="userSpaceOnUse"><stop offset="0" stop-color="#e0aa7e"/><stop offset="0.5" stop-color="#facc99"/><stop offset="1" stop-color="#e4af79"/></linearGradient><linearGradient id="linear-gradient-15" x1="252.14" y1="-126.7" x2="252.14" y2="-157.44" xlink:href="#linear-gradient-14"/></defs><g id="Layer_12" data-name="Layer 12"><g class="cls-2"><g class="cls-3"><path class="cls-4" d="M501.81,260.75c-.06,1.78-.2,3.58-.43,5.4a5.82,5.82,0,0,1-.13.92,57.63,57.63,0,0,1-1.85,8.31c-.09.29-.18.58-.28.86-.57,1.85-1.26,3.7-2,5.57h0a76.93,76.93,0,0,1-12.71,20.06q-1.62,1.88-3.41,3.75H50.31c0-1.23.09-2.48.19-3.75a74.33,74.33,0,0,1,5.24-22.81,73.56,73.56,0,0,1,4.9-9.91,8.09,8.09,0,0,1,.5-.79c.24-.41.5-.81.75-1.22l.44-.69c1.24-1.92,2.59-3.83,4.08-5.73.18-.24.37-.47.56-.71h0l.83-1a91.21,91.21,0,0,1,9.92-10.22A115.31,115.31,0,0,1,97,235l.66-.38h0q4.13-2.34,8.71-4.58l3.24-1.57h.06l.9-.45.15-.08h0c.25-.12.5-.24.73-.37l2.08-1c1.74-.86,3.43-1.72,5.06-2.56,64.16-33,42.21-40.29,44.83-91.3,0-.55.07-1.11.12-1.66a2.16,2.16,0,0,1,.08-.72C170,75.9,310.25-17.21,376.33,9a69.56,69.56,0,0,1,35.52,30.4c22.68,39.19,9.54,97.38-2.15,113.44-.57.79-1.11,1.61-1.62,2.48l-.37.65c-.14.26-.28.5-.42.78l-.29.58c-.1.2-.23.46-.33.69s-.23.47-.33.7c-9.57,21.25-3.88,59.41,28.84,57.93h1c1.36-.09,2.78-.26,4.23-.5a53.35,53.35,0,0,0,6-1.28c1.29-.34,2.59-.74,4-1.19a32.91,32.91,0,0,1,7.73-1.6,31.44,31.44,0,0,1,4-.11,8.34,8.34,0,0,1,1,0,35.22,35.22,0,0,1,10.28,2.28h0a10.37,10.37,0,0,1,1,.42,39.59,39.59,0,0,1,8.58,5C494.4,228.23,502.34,243.35,501.81,260.75Z"/></g><g class="cls-3"><path class="cls-4" d="M509.05,262.47q-.09,1.41-.27,2.82l-.12.9c-.21,1.49-.5,3-.81,4.46-2.32,10.41-7.75,21.11-17.16,31.23-1.18,1.26-2.41,2.51-3.71,3.75H56.29c.27-1.22.57-2.48.9-3.75a93.29,93.29,0,0,1,4-11.74c.53-1.29,1.11-2.6,1.73-3.9.42-.92.87-1.83,1.33-2.75a98.16,98.16,0,0,1,5.2-9l.45-.68.23-.34c.18-.25.34-.49.53-.77,1.21-1.76,2.51-3.53,3.89-5.29L76,265.53c.73-.89,1.48-1.77,2.27-2.66q2.28-2.58,4.84-5.13A109.77,109.77,0,0,1,91.7,250l.83-.67h0c2.75-2.21,5.67-4.38,8.81-6.5h0l.63-.42q3.65-2.44,7.67-4.81l.69-.39c.73-.43,1.49-.86,2.23-1.27l.53-.3.25-.13.1-.06.65-.36c2.27-1.23,4.63-2.43,7.07-3.62,79-38.34,39.4-44.8,42.17-98.81,0-.55.07-1.11.12-1.67a5.31,5.31,0,0,1,.08-.71C170.19,76.22,319-5,385,21.21c11.56,4.57,20.3,10.79,26.81,18.14,31.37,35.34,10.72,95.76-2.15,113.45-.57.78-1.11,1.61-1.62,2.47l-.37.66c-.14.26-.28.49-.42.78s-.19.37-.29.57-.23.46-.33.7-.23.47-.33.7c-9,20.32-2.48,54.63,28.53,54.31h.77a8.34,8.34,0,0,0,1,0,48.53,48.53,0,0,0,6.9-.85h0a5.64,5.64,0,0,0,1-.19h0a68.43,68.43,0,0,0,7.85-2.14A37.6,37.6,0,0,1,477,210l1.09.4a42.12,42.12,0,0,1,7.86,4C500.54,223.8,510.53,242.1,509.05,262.47Z"/></g></g><g class="cls-5"><g class="cls-3"><ellipse class="cls-4" cx="454.82" cy="156.64" rx="35.04" ry="28.51" transform="translate(41.44 402.64) rotate(-49.76)"/></g><g class="cls-3"><ellipse class="cls-4" cx="452.9" cy="163.67" rx="35.04" ry="28.51" transform="translate(35.39 403.66) rotate(-49.76)"/></g></g><g class="cls-5"><g class="cls-3"><ellipse class="cls-4" cx="115.35" cy="144.83" rx="49.2" ry="40.03" transform="translate(-69.72 139.32) rotate(-49.76)"/></g><g class="cls-3"><ellipse class="cls-4" cx="112.65" cy="154.69" rx="49.2" ry="40.03" transform="translate(-78.21 140.75) rotate(-49.76)"/></g></g><g class="cls-5"><g class="cls-3"><ellipse class="cls-4" cx="134.06" cy="49.63" rx="23.82" ry="19.38" transform="translate(-3.18 89.62) rotate(-36.56)"/></g><g class="cls-3"><ellipse class="cls-4" cx="131.69" cy="53.98" rx="23.82" ry="19.38" transform="translate(-6.24 89.06) rotate(-36.56)"/></g></g><path class="cls-6" d="M436,259.9c-3.43-3.28-11.13,14.3-11.13,14.3q4.49-4.32,9.38-8.18C437.54,263.68,437,260.88,436,259.9Z"/><path class="cls-6" d="M424.84,282l-.83-.21c.05-.66.1-1.33.16-2a2.81,2.81,0,0,1,.05-.64h0c.2-2.37.4-4.68.63-6.91.13-1.37.27-2.7.4-4l.05-.34h0c1.11-10.27,2.28-17.92,2.45-19a.24.24,0,0,1,0-.12l.83.12s-.1.62-.26,1.67c-.27,1.83-.73,5.09-1.26,9.26h0a6.85,6.85,0,0,1-.13,1c-.41,3.39-.86,7.32-1.28,11.59-.22,2.22-.43,4.54-.62,6.94h0v.49l-.09,1.17Z"/><path class="cls-6" d="M425.3,268.32s-7-14.57-4.46-19.19,5.74-1.12,5.07,6S425.3,268.32,425.3,268.32Z"/><path class="cls-6" d="M426.77,261.2s1.83-9.69,6.55-13.11,6,1.07,1.86,5.18S427.37,259.66,426.77,261.2Z"/><path class="cls-6" d="M428.22,251.22s-2.83-12.24-.37-16,5.87.55,3.34,6.7A42.88,42.88,0,0,0,428.22,251.22Z"/><path class="cls-6" d="M420.14,303.23s7.76-21.48,25.93-28.35l-4.71,9.77,8.93-10.91a40.73,40.73,0,0,1,13.91-4c7.8-.74,9.64-.54,9.64-.54l-5.65,6.9,12.46-7.23s15.74,0,28.26,5c0,0-8,1.31-13.16,7.43a26.73,26.73,0,0,1-12.81,7.94,24.23,24.23,0,0,0-11.11-2.63s6.18,2.75,7.31,4.73a87.88,87.88,0,0,0-8.78,4.55c-3,2-9.91,4.59-9.91,4.59l-9.21-4.31,5.71,5.67s-4.79,3.78-13.85,2.29S420.14,303.23,420.14,303.23Z"/><path class="cls-7" d="M441.21,289.07a.37.37,0,0,1-.33-.22.36.36,0,0,1,.19-.46c.32-.15,33-14.13,63.23-15.06a.36.36,0,0,1,.36.34.35.35,0,0,1-.33.37h0c-30.1.93-62.63,14.87-62.95,15Z"/><path class="cls-7" d="M475.35,293.45h-.05c-.07,0-1.77-.26-7.27-3s-15.61-5.62-15.71-5.65a.35.35,0,0,1-.24-.43h0a.36.36,0,0,1,.43-.24h0c.11,0,10.37,3,15.84,5.7s7,2.93,7,2.93a.38.38,0,0,1,.3.41A.35.35,0,0,1,475.35,293.45Z"/><path class="cls-7" d="M494.75,282.41c-1.22,0-6.26-.09-9.89-1.57a50.07,50.07,0,0,0-9.87-2.48.37.37,0,0,1-.3-.4.35.35,0,0,1,.39-.3h0a51.46,51.46,0,0,1,10,2.54c3.93,1.61,9.81,1.52,9.87,1.52a.37.37,0,0,1,.36.35h0a.37.37,0,0,1-.35.36h0Z"/><path class="cls-7" d="M449.08,303a.36.36,0,0,1-.2-.06l-8.66-5.82a.36.36,0,0,1-.1-.49h0a.34.34,0,0,1,.47-.11h0l8.65,5.82a.36.36,0,0,1-.17.65Z"/><path class="cls-7" d="M472.78,278.75a.39.39,0,0,1-.25-.1.37.37,0,0,1,0-.5A31.37,31.37,0,0,1,477,274.5a75.25,75.25,0,0,0,6.8-5.81.36.36,0,0,1,.49,0h0a.34.34,0,0,1,0,.48h0a70.33,70.33,0,0,1-6.9,5.89,32.23,32.23,0,0,0-4.34,3.56A.4.4,0,0,1,472.78,278.75Z"/><path class="cls-7" d="M450.35,285.53a.3.3,0,0,1-.33-.44h0c0-.05.44-1.05,3.39-4.71a123.82,123.82,0,0,0,7.16-10.7.36.36,0,0,1,.51-.05.37.37,0,0,1,.1.42A125.15,125.15,0,0,1,454,280.81c-2.84,3.52-3.27,4.46-3.29,4.53A.34.34,0,0,1,450.35,285.53Z"/><path class="cls-7" d="M428,303.37s-8.79,3.19-10.79-1.44c-2.34-5.45-1.17-17.31-.08-22.68,2-9.92,10.45-4.12,11.7-9.13s-1.31-18.52,4.57-23.5,5.67,3.29,15.73-12,11.6-5.13,17.1-8.36,16.36-14,19.52-8.92-13,24.69-19.11,31.07-3.61,7.67.5,9.5-2.08,13.64-14,20-9,8.16-6.8,11.79S444.92,302.47,428,303.37Z"/><path class="cls-6" d="M425.19,298l-.9-.25c6.36-22.85,20.79-42,31.77-54.11a170.92,170.92,0,0,1,22.53-20.92l.56.75a172.51,172.51,0,0,0-22.41,20.82C445.82,256.33,431.49,275.38,425.19,298Z"/><path class="cls-6" d="M437.82,269.26l-.39-.85a75.64,75.64,0,0,1,21.07-6.13l.1.94A75,75,0,0,0,437.82,269.26Z"/><path class="cls-6" d="M451.34,250.52l-.81-.48c6.37-11,5.05-19.88,5-20l.93-.15C456.56,230.3,457.91,239.21,451.34,250.52Z"/><path class="cls-6" d="M439.5,266.69l-.89-.31c3.23-9.57,1.21-16.48,1.19-16.55l.91-.28C440.79,249.85,442.83,256.83,439.5,266.69Z"/><path class="cls-6" d="M457.86,243l-.38-.86a31.84,31.84,0,0,1,11-2.52h.12v1h-.11C463.52,240.61,457.91,243,457.86,243Z"/><path class="cls-7" d="M91.12,235.53c0-.18-.73-18.06-6.72-30.7l.86-.41c6.06,12.82,6.82,30.9,6.82,31.08Z"/><path class="cls-7" d="M90.16,221.71s-5.52-9-10.28-15.31S66.4,209.94,90.16,221.71Z"/><path class="cls-7" d="M90.82,227.21S93,218.54,93,212.84s4.39-7.44,6.07-1.34S90.82,227.21,90.82,227.21Z"/><path class="cls-7" d="M83.89,239.47s6-6.69,8.64-11.73,7.35-4.57,6,1.62S83.89,239.47,83.89,239.47Z"/><path class="cls-7" d="M85.69,206.54S83.15,191,80,189.08s-5.23,3-2.71,7.77S85.69,206.54,85.69,206.54Z"/><path class="cls-7" d="M88.56,284A79.17,79.17,0,0,0,79,275.64a50.48,50.48,0,0,1-7.83-6.77l1.24,10.86-4.27-8.92a48.2,48.2,0,0,0-13.88-5.52,34.46,34.46,0,0,1-13.19-6s4.46,20.5,13.52,28.11c0,0,9.26.49,11.57,2.44,0,0-8-.35-11.89,1.43a117.62,117.62,0,0,1,9.73,7.5c5,4.28,17.45,5.11,26,5.4s19,0,19,0-.9-4.27-6.76-9.46S88.56,284,88.56,284Z"/><path class="cls-6" d="M103.67,303c-8.43-1.41-17.75-7.94-26-13.71-3.16-2.21-6.14-4.29-8.93-6C58.63,277,41,259.75,40.8,259.58l.5-.5c.17.17,17.77,17.4,27.85,23.6,2.81,1.73,5.8,3.82,9,6,8.16,5.72,17.41,12.2,25.68,13.58Z"/><path class="cls-6" d="M61.16,277.75a36.74,36.74,0,0,0-6.88-1.51,49.53,49.53,0,0,1-8.73-2.17l.23-.67a50.65,50.65,0,0,0,8.57,2.13,36.51,36.51,0,0,1,7,1.56Z"/><path class="cls-6" d="M66,296.29a41.13,41.13,0,0,1-6.07-.45l.12-.7c.06,0,7.26,1.15,12.27-.3a40,40,0,0,0,5-1.87c2.21-1,3.8-1.64,5.33-1.12l-.23.67c-1.27-.43-2.76.21-4.82,1.1a43.16,43.16,0,0,1-5,1.9A24.09,24.09,0,0,1,66,296.29Z"/><path class="cls-6" d="M83.93,293.59c-1.6-1-1.69-2.68-1.81-5a25.85,25.85,0,0,0-.61-4.88,61.17,61.17,0,0,0-2.2-7.49L80,276a60.91,60.91,0,0,1,2.23,7.58,26.31,26.31,0,0,1,.63,5c.11,2.13.19,3.54,1.48,4.39Z"/><path class="cls-6" d="M66.88,282a19.74,19.74,0,0,1-2.07-4.84q-.33-1-.75-2.19c-1.09-3-2.61-7.12-2.63-7.16l.67-.25s1.53,4.14,2.62,7.18c.29.78.53,1.52.76,2.2a19.3,19.3,0,0,0,2,4.67Z"/><path class="cls-6" d="M83.48,303l-.27-.65s3.88-1.58,6-2.66c.61-.31,1.08-.58,1.48-.8,1-.59,1.59-.92,2.48-.46l-.32.63c-.52-.27-.78-.14-1.79.44-.4.22-.88.5-1.49.82C87.37,301.37,83.52,303,83.48,303Z"/><path class="cls-6" d="M114.34,304.15s10.58,0,14.49-1.36c.33-.11,1-19-1.49-25.35-3.68-9.44-14.83-3.49-15.9-8.54s2-18.47-3.74-23.66-5.78,3.09-15.3-12.5-11.4-5.54-16.79-9-15.87-14.53-19.2-9.63,12.12,25.14,18,31.73,3.34,7.78-.85,9.46S75.17,269,86.88,275.82s8.71,8.47,6.39,12S97.43,302.65,114.34,304.15Z"/><path class="cls-7" d="M114.1,296.93l.91-.22c-5.55-23.06-19.29-42.73-29.85-55.18a172.47,172.47,0,0,0-21.78-21.71l-.58.73a174,174,0,0,1,21.66,21.6C94.94,254.52,108.58,274.06,114.1,296.93Z"/><path class="cls-7" d="M102.49,267.73l.42-.85A75.57,75.57,0,0,0,82.06,260l-.12.93A75.68,75.68,0,0,1,102.49,267.73Z"/><path class="cls-7" d="M89.6,248.52l.83-.45c-6-11.21-4.35-20-4.34-20.13l-.92-.18C85.11,228.13,83.46,237,89.6,248.52Z"/><path class="cls-7" d="M100.88,265.09l.9-.27c-2.89-9.68-.63-16.52-.61-16.59l-.89-.3C100.18,248.21,97.9,255.15,100.88,265.09Z"/><path class="cls-7" d="M83.37,240.82l.4-.85a32,32,0,0,0-10.9-2.9h-.12V238h.11A31.45,31.45,0,0,1,83.37,240.82Z"/><rect class="cls-8" x="49.83" y="302.63" width="450.13" height="2.99"/><polygon class="cls-9" points="285.76 239.54 285.76 284.14 283.65 284.14 275 282.59 266.34 284.14 264.23 284.14 264.23 239.54 285.76 239.54"/><path class="cls-10" d="M104.77,95.1V93.58a24.93,24.93,0,0,0,4.31-.38l.26,1.49A26,26,0,0,1,104.77,95.1Zm-4.56-.39a26.4,26.4,0,0,1-4.46-1.18l.52-1.43a25.25,25.25,0,0,0,4.18,1.11Zm13.56-1.19-.52-1.43a25.42,25.42,0,0,0,3.92-1.83l.76,1.32A27.6,27.6,0,0,1,113.77,93.52ZM91.61,91.59A28.51,28.51,0,0,1,87.85,89l1-1.17a24.18,24.18,0,0,0,3.54,2.48Zm30.08-2.65-1-1.17a26.56,26.56,0,0,0,3-3l1.17,1A25.94,25.94,0,0,1,121.63,89ZM84.61,85.72A26.72,26.72,0,0,1,82,82l1.32-.76a24.73,24.73,0,0,0,2.48,3.54Zm43-3.78-1.32-.78a25.42,25.42,0,0,0,1.83-3.92l1.43.52a25.81,25.81,0,0,1-2,4.18ZM80,77.81a25.2,25.2,0,0,1-1.19-4.43l1.48-.26a26.19,26.19,0,0,0,1.12,4.17Zm50.65-4.46-1.48-.26a25.83,25.83,0,0,0,.37-4.3v-.07h1.53a27.21,27.21,0,0,1-.42,4.59ZM78.44,68.82v-.06a26.59,26.59,0,0,1,.39-4.54l1.48.27A25.42,25.42,0,0,0,80,68.76Zm50.73-4.4a24.91,24.91,0,0,0-1.12-4.17l1.43-.53a25.2,25.2,0,0,1,1.19,4.43ZM81.44,60.34,80,59.82a26.6,26.6,0,0,1,1.93-4.16l1.32.76A24.42,24.42,0,0,0,81.44,60.34Zm44.77-4a24.09,24.09,0,0,0-2.48-3.53l1.17-1a27.21,27.21,0,0,1,2.64,3.75ZM85.74,52.87l-1.17-1a27.63,27.63,0,0,1,3.24-3.25l1,1.17A24.14,24.14,0,0,0,85.74,52.87Zm34.92-3.12a24.73,24.73,0,0,0-3.54-2.48l.73-1.31a27.34,27.34,0,0,1,3.77,2.63ZM92.33,47.32,91.58,46a24.53,24.53,0,0,1,4.15-2l.53,1.43A23.83,23.83,0,0,0,92.33,47.32Zm20.86-1.86a26.13,26.13,0,0,0-4.17-1.1l.26-1.49a25.49,25.49,0,0,1,4.46,1.18Zm-12.78-1.09-.27-1.48a26,26,0,0,1,4.57-.4V44a24.81,24.81,0,0,0-4.3.38Z"/><path class="cls-11" d="M445.8,211.06v-1.19a13.36,13.36,0,0,0,2.36-.21l.2,1.18A14.67,14.67,0,0,1,445.8,211.06Zm-2.57-.22a15.38,15.38,0,0,1-2.48-.66l.41-1.13a12.89,12.89,0,0,0,2.29.61Zm7.63-.67-.41-1.12a13.89,13.89,0,0,0,2.14-1l.6,1A14.26,14.26,0,0,1,450.86,210.17Zm-12.46-1.08a14.1,14.1,0,0,1-2.11-1.49l.77-.92A12.28,12.28,0,0,0,439,208Zm16.9-1.49-.77-.92a13.25,13.25,0,0,0,1.68-1.67l.91.77a14.22,14.22,0,0,1-1.82,1.82Zm-20.82-1.81a14.8,14.8,0,0,1-1.48-2.11l1-.58a12.51,12.51,0,0,0,1.36,1.94Zm24.15-2.12-1-.6a14.45,14.45,0,0,0,1-2.15l1.13.41a15.59,15.59,0,0,1-1.1,2.34Zm-26.72-2.32a14.44,14.44,0,0,1-.67-2.48l1.18-.21a12.78,12.78,0,0,0,.61,2.28Zm28.47-2.51-1.18-.21a12.47,12.47,0,0,0,.2-2.36h1.2a13.7,13.7,0,0,1-.24,2.56ZM431,196.29h0a15.59,15.59,0,0,1,.22-2.55l1.18.2a14.25,14.25,0,0,0-.2,2.35Zm28.19-2.41a13.83,13.83,0,0,0-.62-2.29l1.12-.42a15.45,15.45,0,0,1,.68,2.48ZM433,191.63l-1.12-.4a14.57,14.57,0,0,1,1.08-2.34l1,.6a13.89,13.89,0,0,0-1,2.14Zm24.55-2.19a13.69,13.69,0,0,0-1.36-1.93l.91-.77a14,14,0,0,1,1.49,2.1Zm-22.19-1.89-.92-.77a15,15,0,0,1,1.82-1.83l.77.91a13.49,13.49,0,0,0-1.69,1.69Zm19.15-1.71a13.09,13.09,0,0,0-1.95-1.36l.6-1a13.6,13.6,0,0,1,2.11,1.49ZM439,184.5l-.6-1a15.59,15.59,0,0,1,2.34-1.1l.4,1.13a13.22,13.22,0,0,0-2.16,1Zm11.45-1a13.8,13.8,0,0,0-2.29-.61l.2-1.18a14.44,14.44,0,0,1,2.48.67Zm-7-.6-.21-1.18a15.84,15.84,0,0,1,2.57-.23v1.2a13.59,13.59,0,0,0-2.38.21Z"/><path class="cls-12" d="M187.11,272.68v-1.81a20.3,20.3,0,0,0,3.56-.31l.31,1.78A21.83,21.83,0,0,1,187.11,272.68Zm-3.88-.33a22.17,22.17,0,0,1-3.76-1l.62-1.7a20.91,20.91,0,0,0,3.47.93Zm11.51-1-.62-1.69a20.35,20.35,0,0,0,3.24-1.52l.9,1.57a22.48,22.48,0,0,1-3.52,1.63Zm-18.8-1.63a23.39,23.39,0,0,1-3.19-2.23l1.16-1.38a22.6,22.6,0,0,0,2.93,2Zm25.51-2.25-1.16-1.41a20.16,20.16,0,0,0,2.52-2.54l1.39,1.17a23.13,23.13,0,0,1-2.75,2.76ZM170,264.74a22.69,22.69,0,0,1-2.23-3.18l1.56-.91a20.59,20.59,0,0,0,2.06,2.93Zm36.43-3.21-1.56-.93a21.66,21.66,0,0,0,1.51-3.24l1.7.62a23.23,23.23,0,0,1-1.65,3.54ZM166.12,258a22.17,22.17,0,0,1-1-3.76l1.78-.32a20,20,0,0,0,.92,3.47Zm42.95-3.81-1.78-.31a21.33,21.33,0,0,0,.3-3.57h1.81v.07a24.8,24.8,0,0,1-.33,3.85Zm-44.32-3.85h0a22.57,22.57,0,0,1,.33-3.85l1.78.32a21,21,0,0,0-.31,3.53Zm42.55-3.66a20.94,20.94,0,0,0-.94-3.47l1.7-.62a22.17,22.17,0,0,1,1,3.76Zm-39.5-3.37-1.7-.59a22.16,22.16,0,0,1,1.64-3.53l1.56.9a20.15,20.15,0,0,0-1.5,3.23Zm37-3.31a20.5,20.5,0,0,0-2.06-2.92l1.38-1.17a22,22,0,0,1,2.24,3.18Zm-33.48-2.87L170,236a23,23,0,0,1,2.74-2.75l1.17,1.38a19,19,0,0,0-2.52,2.55Zm28.89-2.58a20.76,20.76,0,0,0-2.93-2l.9-1.57a22.79,22.79,0,0,1,3.19,2.23Zm-23.45-2-.9-1.56a22.58,22.58,0,0,1,3.52-1.65L180,231a20.44,20.44,0,0,0-3.24,1.54ZM194.07,231a20,20,0,0,0-3.47-.92l.31-1.78a22.17,22.17,0,0,1,3.76,1Zm-10.58-.9-.32-1.78a22,22,0,0,1,3.88-.35v1.81a21.33,21.33,0,0,0-3.56.33Z"/><path class="cls-13" d="M94.85,149.33a8.71,8.71,0,1,1,8.71-8.71h0a8.71,8.71,0,0,1-8.71,8.71Zm0-16.28a7.58,7.58,0,1,0,7.58,7.59,7.58,7.58,0,0,0-7.58-7.59Z"/><path class="cls-14" d="M144.26,28.14a6.56,6.56,0,1,1,6.55-6.57h0A6.56,6.56,0,0,1,144.26,28.14Zm0-12.25a5.7,5.7,0,1,0,5.7,5.7h0A5.7,5.7,0,0,0,144.26,15.89Z"/><path class="cls-15" d="M362.41,260.77a14.64,14.64,0,1,1,14.64-14.64A14.63,14.63,0,0,1,362.41,260.77Zm0-27.37a12.73,12.73,0,1,0,12.72,12.75h0A12.75,12.75,0,0,0,362.41,233.4Z"/><path class="cls-16" d="M446.26,112a8.71,8.71,0,1,1,8.71-8.71h0A8.71,8.71,0,0,1,446.26,112Zm0-16.28a7.58,7.58,0,1,0,7.58,7.58h0a7.59,7.59,0,0,0-7.58-7.54Z"/><path class="cls-17" d="M275,255.83V282.6l-8.65,1.55-89.68,16.11a153.77,153.77,0,0,1-27.17,2.42h-6.35a2.87,2.87,0,0,1-2.89-2.85,2.83,2.83,0,0,1,.76-2,37,37,0,0,1,9.6-7.69c7.47-3.8,22.83-8.07,31-10.18l82.6-21.37Z"/><path class="cls-18" d="M275,255.83V282.6l8.66,1.55,89.68,16.11a153.77,153.77,0,0,0,27.17,2.42h6.38a2.87,2.87,0,0,0,2.12-4.82,37,37,0,0,0-9.59-7.69c-7.47-3.8-22.84-8.07-31-10.18l-82.63-21.37Z"/><rect class="cls-19" x="106.19" y="20.15" width="337.62" height="226.15" rx="10.93"/><rect class="cls-20" x="117.81" y="31.78" width="314.35" height="202.89" rx="9.41"/><rect class="cls-20" x="117.85" y="31.81" width="314.28" height="202.84" rx="9.41"/><rect class="cls-21" x="127.67" y="41.89" width="294.64" height="182.68" rx="3.24"/><rect class="cls-22" x="125.13" y="40.31" width="299.72" height="185.84" rx="8.79"/><rect class="cls-23" x="345.53" y="54.23" width="67.84" height="158" rx="7.11"/><circle class="cls-20" cx="361.83" cy="74.71" r="7.91"/><circle class="cls-20" cx="361.83" cy="101.43" r="7.91"/><circle class="cls-20" cx="361.84" cy="128.1" r="7.91"/><circle class="cls-20" cx="361.83" cy="154.81" r="7.91"/><circle class="cls-20" cx="361.84" cy="181.48" r="7.91"/><path class="cls-20" d="M399.69,71.32H374.84a.79.79,0,0,1-.86-.73.8.8,0,0,1,.73-.87h25a.79.79,0,0,1,.86.73.8.8,0,0,1-.73.87Z"/><path class="cls-20" d="M394.23,77.69H374.84A.79.79,0,0,1,374,77a.8.8,0,0,1,.73-.87h19.52a.8.8,0,0,1,.86.74h0a.8.8,0,0,1-.73.86Z"/><path class="cls-20" d="M393.63,98.25H374.84a.8.8,0,0,1-.8-.8.79.79,0,0,1,.67-.79h18.92a.8.8,0,1,1,.12,1.59Z"/><path class="cls-20" d="M386,104.6H374.84a.8.8,0,0,1-.13-1.59H386a.8.8,0,0,1,0,1.59Z"/><path class="cls-20" d="M393.63,125.18H374.84a.79.79,0,0,1-.86-.73.8.8,0,0,1,.73-.87h18.92a.8.8,0,0,1,.12,1.6Z"/><path class="cls-20" d="M403.93,131.54H374.84a.8.8,0,0,1-.13-1.6h29.22a.81.81,0,0,1,.74.86A.83.83,0,0,1,403.93,131.54Z"/><path class="cls-20" d="M403.93,152.1H374.84a.8.8,0,0,1-.13-1.59h29.22a.8.8,0,0,1,0,1.59Z"/><path class="cls-20" d="M397.27,158.49H374.84a.81.81,0,0,1-.86-.74.79.79,0,0,1,.73-.85h0a.29.29,0,0,1,.13,0h22.43a.8.8,0,0,1,0,1.59Z"/><path class="cls-20" d="M393.63,179.83H374.84a.81.81,0,0,1-.86-.74.79.79,0,0,1,.73-.85h0a.29.29,0,0,1,.13,0h18.79a.8.8,0,1,1,.12,1.59Z"/><path class="cls-20" d="M400.6,186.19H374.82a.81.81,0,0,1-.86-.74.8.8,0,0,1,.74-.85h25.9a.8.8,0,1,1,.12,1.59Z"/><path class="cls-24" d="M361,78.89a.82.82,0,0,1-.56-.22L357,75.31a.82.82,0,0,1,0-1.13.79.79,0,0,1,1.12,0h0L361,76.9l4.36-6a.8.8,0,0,1,1.29.93h0l-4.9,6.78a.77.77,0,0,1-.57.33Z"/><path class="cls-24" d="M361,105a.82.82,0,0,1-.56-.22L357,101.44a.81.81,0,0,1,0-1.12.79.79,0,0,1,1.12,0h0L361,103l4.36-6a.8.8,0,0,1,1.11-.17.79.79,0,0,1,.19,1.1h0l-4.9,6.77a.77.77,0,0,1-.57.33Z"/><path class="cls-24" d="M361,158.88a.82.82,0,0,1-.56-.22L357,155.29a.8.8,0,0,1,.06-1.12h0a.81.81,0,0,1,1,0l2.82,2.72,4.36-6a.8.8,0,0,1,1.29.93l-4.9,6.78a.8.8,0,0,1-.58.32Z"/><g class="cls-25"><rect class="cls-20" x="211.54" y="64.79" width="81.3" height="82.51"/><rect class="cls-26" x="245.86" y="104.93" width="12.68" height="4.46"/><polygon class="cls-27" points="279.24 118.16 263.6 113.23 258.76 107.69 252.75 109.23 252.57 109.08 245.57 107.69 240.74 113.23 225.1 118.16 225.1 147.3 279.24 147.3 279.24 118.16"/><path class="cls-27" d="M225.3,118.14c-3.74.17-4.82,16.71-5.54,29.16h12.51C231.66,141.26,229.08,118,225.3,118.14Z"/><g class="cls-28"><path class="cls-29" d="M225.49,118l-.26.08.32.14c1.2.34,2.95,3.41,4.83,15.11.91,5.64,1.52,11.34,1.79,13.93h.19C231.75,141.29,229.26,118.7,225.49,118Z"/></g><path class="cls-27" d="M279.09,118.14c-3.79-.18-6.37,23.12-7,29.16h12.52C283.92,134.85,282.83,118.33,279.09,118.14Z"/><g class="cls-28"><path class="cls-29" d="M274,133.37c1.89-11.7,3.63-14.77,4.83-15.11l.33-.14-.26-.08c-3.77.66-6.26,23.25-6.86,29.25h.18C272.49,144.71,273.1,139,274,133.37Z"/></g><path class="cls-20" d="M258.77,107.69v7.73l-5,29.71-8.15-32.41-.05-5,4.63.85a8.34,8.34,0,0,0,4,.24Z"/><path class="cls-30" d="M253.8,146.23c0-.68-4.62-17-4.62-17s2.09-12,1.93-13.13,3.18-.64,3.18-.64l2.6,15.5Z"/><polygon class="cls-31" points="249.66 126.34 249.18 129.18 253.9 146.34 256.62 129.28 256.39 127.93 253.72 140.86 249.66 126.34"/><polygon class="cls-32" points="266.71 116.75 263.42 115.2 266.16 115.13 264.71 113.58 264.03 113.37 259.22 112.82 259.21 115.51 254.23 145.06 253.71 147.3 254.7 147.3 266.71 116.75"/><polygon class="cls-32" points="245.33 113.46 245.3 112.73 240.29 113.37 239.62 113.58 238.18 115.13 240.91 115.2 237.62 116.75 252.97 147.3 253.97 147.3 245.33 113.46"/><path class="cls-33" d="M254.17,146.32l-8.38-32.86-.24-5.77-6.92,7.44,2.74.06-3.29,1.55,15.37,30.55h.16C253.75,146.94,254.07,146.69,254.17,146.32Z"/><path class="cls-30" d="M249.91,110.85l1.21,5.35,3.23-.44s1.08-4.61.86-5.09S252.35,107.25,249.91,110.85Z"/><polygon class="cls-34" points="253.98 145.5 253.68 144.29 253.24 146.89 253.38 147.16 253.98 145.5"/><polygon class="cls-35" points="266.24 116.75 262.94 115.2 265.68 115.13 258.76 107.69 258.73 115.51 253.75 145.06 253.24 147.3 254.22 147.3 266.24 116.75"/><path class="cls-36" d="M239,93.15h5.24c3.78,0,7.56.12,11.34,0,1.89,0,3.76-.17,5.64-.23a18.63,18.63,0,0,0,2.79-.14,10.59,10.59,0,0,0,1.36-.19c.19-.83.37-1.69.55-2.57,2-9.76-5.06-18-13.61-18A13.92,13.92,0,0,0,242,77a15.52,15.52,0,0,0-3.56,14C238.62,91.77,238.81,92.47,239,93.15Z"/><path class="cls-37" d="M266.27,90.29a2.45,2.45,0,0,0-1.14-1.73,1.19,1.19,0,0,0-.32-.1h-.22a19.85,19.85,0,0,0-1.1-3.77c-2.48-4.3-6.63-7.13-11.37-7.13s-8.93,2.83-11.37,7.13a19.85,19.85,0,0,0-1.1,3.77h-.23a1.12,1.12,0,0,0-.31.1A2.45,2.45,0,0,0,238,90.29a7.66,7.66,0,0,0-.12,2.94c.28,2,1.16,3.61,2.13,4,1.71,6.4,6.49,11,12.14,11s10.41-4.62,12.13-11c1-.44,1.86-2,2.14-4A7.66,7.66,0,0,0,266.27,90.29Z"/></g><path class="cls-20" d="M243.05,161.84a10.27,10.27,0,0,1-.11,1.57,3.65,3.65,0,0,1-.42,1.2,2.82,2.82,0,0,1-1,1,2.62,2.62,0,0,1-2.87-.14,2.93,2.93,0,0,1-1-1.33,3.86,3.86,0,0,1-.25-1,7.67,7.67,0,0,1-.08-1.17,13.08,13.08,0,0,1,.09-1.53,5,5,0,0,1,.28-1.16,2.53,2.53,0,0,1,2.45-1.65,2.86,2.86,0,0,1,1,.19,2.56,2.56,0,0,1,.83.55,2.94,2.94,0,0,1,.59.89A6.37,6.37,0,0,1,243.05,161.84Zm-1.54-.12a9.32,9.32,0,0,0-.12-1.67,2.15,2.15,0,0,0-.41-1,1,1,0,0,0-.81-.34,1.06,1.06,0,0,0-1,.75,6.83,6.83,0,0,0-.28,2.29,9.88,9.88,0,0,0,.12,1.72,2.17,2.17,0,0,0,.42,1,1.08,1.08,0,0,0,1.52.08l.07-.08a2.15,2.15,0,0,0,.41-1,11.39,11.39,0,0,0,.08-1.75Z"/><path class="cls-20" d="M249.85,161.84a9.14,9.14,0,0,1-.11,1.57,3.88,3.88,0,0,1-.41,1.2,2.82,2.82,0,0,1-1,1,2.68,2.68,0,0,1-2.87-.12,3,3,0,0,1-1-1.34,4.9,4.9,0,0,1-.26-1,9.87,9.87,0,0,1-.08-1.22,12.79,12.79,0,0,1,.09-1.52,5,5,0,0,1,.28-1.16A2.49,2.49,0,0,1,247,157.6a2.65,2.65,0,0,1,1,.19,2.53,2.53,0,0,1,.83.54,3.22,3.22,0,0,1,.6.9A6.45,6.45,0,0,1,249.85,161.84Zm-1.53-.12a9.32,9.32,0,0,0-.12-1.67,2.15,2.15,0,0,0-.41-1,1.1,1.1,0,0,0-1.56,0,1.18,1.18,0,0,0-.28.45,6.84,6.84,0,0,0-.29,2.29,9,9,0,0,0,.13,1.72,2.15,2.15,0,0,0,.41,1,1.09,1.09,0,0,0,1.54.06l.06-.06a2.42,2.42,0,0,0,.4-1A10.23,10.23,0,0,0,248.32,161.72Z"/><path class="cls-20" d="M251.34,160.62a.79.79,0,0,1,.25-.61.89.89,0,0,1,.6-.22.85.85,0,0,1,.59.22.79.79,0,0,1,.25.61.92.92,0,0,1-.84.84.79.79,0,0,1-.58-.25A.82.82,0,0,1,251.34,160.62Zm.85,5.38a.86.86,0,0,1-.59-.23.77.77,0,0,1-.26-.62.85.85,0,0,1,.84-.84.89.89,0,0,1,.6.24.84.84,0,0,1,.25.6.81.81,0,0,1-.25.62A.86.86,0,0,1,252.19,166Z"/><path class="cls-20" d="M258,165.15v-1h-2.82a1.2,1.2,0,0,1-.8-.24.86.86,0,0,1-.27-.66.74.74,0,0,1,0-.21,1,1,0,0,1,.12-.23l.16-.23.21-.28,3-4a5.27,5.27,0,0,1,.49-.57.66.66,0,0,1,.45-.17c.57,0,.85.32.85,1v4.33h.23a1.62,1.62,0,0,1,.69.12.47.47,0,0,1,.25.49.51.51,0,0,1-.21.5,1.15,1.15,0,0,1-.63.15h-.35v1a1,1,0,0,1-.18.64.72.72,0,0,1-1,0A.92.92,0,0,1,258,165.15Zm-2.41-2.3H258v-3.24Z"/><path class="cls-20" d="M263.92,160.91a1.37,1.37,0,0,0,.89-.3,1.08,1.08,0,0,0,.37-.87,1,1,0,0,0-.3-.74,1.08,1.08,0,0,0-.8-.31,1.53,1.53,0,0,0-.56.09,1.1,1.1,0,0,0-.35.26,1.47,1.47,0,0,0-.24.4c-.08.16-.15.32-.21.46a.52.52,0,0,1-.2.19.79.79,0,0,1-.34.06.54.54,0,0,1-.41-.18.65.65,0,0,1-.19-.49,1.28,1.28,0,0,1,.18-.61,2.44,2.44,0,0,1,.49-.62,2.76,2.76,0,0,1,.84-.46,3.11,3.11,0,0,1,1.13-.18,3.37,3.37,0,0,1,1,.15,2.56,2.56,0,0,1,.78.42,1.84,1.84,0,0,1,.66,1.45,1.75,1.75,0,0,1-.24,1,3.46,3.46,0,0,1-.7.78,3,3,0,0,1,.74.54,2,2,0,0,1,.6,1.45,2.66,2.66,0,0,1-.2,1,2.52,2.52,0,0,1-.61.84,2.72,2.72,0,0,1-.94.59,3.58,3.58,0,0,1-1.21.21,2.93,2.93,0,0,1-1.2-.25,2.61,2.61,0,0,1-.87-.6,2.42,2.42,0,0,1-.52-.74,1.8,1.8,0,0,1-.18-.64.7.7,0,0,1,.74-.69.5.5,0,0,1,.29.09.47.47,0,0,1,.2.22,3.76,3.76,0,0,0,.62,1.15,1.2,1.2,0,0,0,.94.38,1.38,1.38,0,0,0,.66-.17,1.52,1.52,0,0,0,.53-2.1,1.43,1.43,0,0,0-.14-.2,1.33,1.33,0,0,0-1-.37h-.65a.66.66,0,0,1-.5-.16.59.59,0,0,1-.17-.42.58.58,0,0,1,.21-.44.93.93,0,0,1,.6-.16Z"/><circle class="cls-30" cx="299" cy="185.45" r="9.06"/><path class="cls-20" d="M293.23,187.91h2.33a.86.86,0,0,0,.83-.88v-1.18h.18a8.35,8.35,0,0,1,2.43-.4,8.08,8.08,0,0,1,2.44.38l.17,0V187a.87.87,0,0,0,.85.87h2.32a.87.87,0,0,0,.84-.88v-.65h0a2.47,2.47,0,0,0-.21-.75,2.31,2.31,0,0,0-.37-.6c-1.12-1.43-2.87-2-6-2-4.36,0-6,1.95-6,2a3.37,3.37,0,0,0-.36.61,2.7,2.7,0,0,0-.2.74h0V187A.88.88,0,0,0,293.23,187.91Z"/><circle class="cls-23" cx="252.19" cy="185.45" r="9.06"/><path class="cls-20" d="M255.9,185.52h-.49a3.2,3.2,0,0,1-.35,1.45l.37.37A3.61,3.61,0,0,0,255.9,185.52Z"/><path class="cls-20" d="M252.19,188a2.47,2.47,0,0,0,1.37-.41l-3.85-3.81v1.77A2.48,2.48,0,0,0,252.19,188Z"/><path class="cls-20" d="M254.67,185.52v-3.61a2.48,2.48,0,0,0-4.91-.25l4.74,4.74A2.42,2.42,0,0,0,254.67,185.52Z"/><path class="cls-20" d="M252.44,189.22a3.82,3.82,0,0,0,2-.74l-.36-.36a3.2,3.2,0,0,1-4.47-.68h0a3.19,3.19,0,0,1-.63-1.9h-.49a3.72,3.72,0,0,0,3.47,3.7V191h-2.12v.5h4.74V191h-2.12Z"/><rect class="cls-20" x="251.94" y="179.06" width="0.5" height="12.23" transform="translate(-57.07 232.56) rotate(-45)"/><circle class="cls-23" cx="228.79" cy="185.45" r="9.06"/><path class="cls-20" d="M225.65,183.27h-1.74a.41.41,0,0,0-.41.41h0v3.56a.41.41,0,0,0,.41.41h1.74a.38.38,0,0,1,.25.09l3,2.43a.41.41,0,0,0,.58-.07h0a.45.45,0,0,0,.09-.25v-8.79a.41.41,0,0,0-.41-.41h0a.38.38,0,0,0-.25.09l-3,2.43A.39.39,0,0,1,225.65,183.27Z"/><g class="cls-38"><path class="cls-20" d="M232.5,185.45a2.56,2.56,0,0,0-1.81-2.43.14.14,0,0,0-.17.07h0a.15.15,0,0,0,0,.21h0a2.23,2.23,0,0,1,1.49,2.77,2.19,2.19,0,0,1-1.49,1.48.16.16,0,0,0-.1.2h0a.14.14,0,0,0,.17.07A2.54,2.54,0,0,0,232.5,185.45Z"/></g><g class="cls-39"><path class="cls-20" d="M233.29,185.45a3.33,3.33,0,0,0-2.13-3.1.14.14,0,0,0-.18.05h0a.16.16,0,0,0,0,.22h0a3,3,0,0,1,0,5.63.16.16,0,0,0-.08.2h0a.16.16,0,0,0,.18.06A3.35,3.35,0,0,0,233.29,185.45Z"/></g><g class="cls-40"><path class="cls-20" d="M234.08,185.45a4.1,4.1,0,0,0-2.47-3.77.18.18,0,0,0-.2,0h0a.16.16,0,0,0,0,.22h0a3.81,3.81,0,0,1,0,6.94.16.16,0,0,0-.09.2h0a.17.17,0,0,0,.2.05A4.13,4.13,0,0,0,234.08,185.45Z"/></g><circle class="cls-23" cx="205.38" cy="185.46" r="9.06"/><polygon class="cls-20" points="209.63 185.12 205.72 185.12 205.72 181.2 205.05 181.2 205.05 185.12 201.13 185.12 201.13 185.78 205.05 185.78 205.05 189.7 205.72 189.7 205.72 185.78 209.63 185.78 209.63 185.12"/><circle class="cls-23" cx="275.6" cy="185.45" r="9.06"/><path class="cls-20" d="M277.92,188.78h-6.47a.74.74,0,0,1-.75-.73h0v-5.17a.74.74,0,0,1,.73-.75h6.49a.76.76,0,0,1,.75.75V184H279l1.66-1.32a.44.44,0,0,1,.49-.06.45.45,0,0,1,.26.41v4.8a.46.46,0,0,1-.46.45.42.42,0,0,1-.28-.1l-1.67-1.3h-.36V188a.74.74,0,0,1-.74.74h0Zm-6.47-6.2a.3.3,0,0,0-.29.29V188a.3.3,0,0,0,.29.28h6.47a.29.29,0,0,0,.28-.28h0v-1.21a.41.41,0,0,1,.41-.41H279a.39.39,0,0,1,.29.09l1.65,1.33V183l-1.64,1.32a.51.51,0,0,1-.29.1h-.41a.44.44,0,0,1-.42-.42v-1.2a.29.29,0,0,0-.27-.29h-6.49Z"/><path class="cls-7" d="M178.08,302.65H119.52s4.35-12.78,18.14-8.13c0,0,3.47-10.91,13.07-10.52s12.64,9.32,12.64,9.32S176.24,291.76,178.08,302.65Z"/><path class="cls-7" d="M339,302.65H296.09s3.19-9.36,13.3-5.94c0,0,2.55-8,9.58-7.72s9.26,6.81,9.26,6.81S337.67,294.67,339,302.65Z"/><path class="cls-6" d="M221.2,302.65H192a6.81,6.81,0,0,1,8.71-4.11l.29.11s1.74-5.43,6.52-5.25a7.19,7.19,0,0,1,6.3,4.65S220.28,297.22,221.2,302.65Z"/><path class="cls-6" d="M421.38,302.65H388.13a7.74,7.74,0,0,1,9.85-4.78l.45.17s2-6.19,7.44-6a8.14,8.14,0,0,1,7.17,5.29S420.34,296.47,421.38,302.65Z"/><path class="cls-4" d="M160.52,191.17a.66.66,0,0,1-.2.06h-.46a9,9,0,0,1-2.93-1.81,37.41,37.41,0,0,1-3-2.77c-.39-.4-.79-.83-1.18-1.26l-.62-.69c-.91-1-1.79-2.13-2.57-3.18l-.24-.34h0a1,1,0,0,0-.13-.35,5.59,5.59,0,0,1-.34-1.05v-.11a2.32,2.32,0,0,0-.13-.37c-2.31-5.29,3.37-15.11,3.37-15.11s.16,0,1,1.23c.26.38.57.86,1,1.49h0c1.18,1.94,3.08,5.23,6.11,10.85.37.68.7,1.37,1,2.08s.5,1.25.69,1.84a7.16,7.16,0,0,1,.23.75v.08c.07.26.14.5.19.75a16.4,16.4,0,0,1,.31,1.86C162.91,188.48,161.78,190.63,160.52,191.17Z"/><path class="cls-4" d="M162.28,183.24l-8.34,3.36c-.39-.4-.79-.83-1.18-1.26l-.62-.69a39.59,39.59,0,0,1-2.56-3.18l-.25-.34h0a1,1,0,0,0-.13-.35,5.59,5.59,0,0,1-.34-1.05v-.11c-1.17-5.45,3.74-13.94,3.74-13.94s.63,0,1.44,1.2h0c1.18,1.94,3.08,5.23,6.11,10.85.37.68.7,1.37,1,2.08s.5,1.25.69,1.84c.09.25.17.5.23.74v.09C162.16,182.74,162.22,183,162.28,183.24Z"/><path class="cls-4" d="M162.66,181.34l-9.92,4-.87.35-2.29-4.22-.75-1.37a1.11,1.11,0,0,0-.13-.87c-2.3-5.29,3.37-15.11,3.37-15.11s.63,0,1.45,1.22C154.54,166.85,162.47,180.75,162.66,181.34Z"/><path class="cls-41" d="M136,156.5a14.19,14.19,0,0,1-6.25-9.78c-.91-7.55,6.84-8.66,9.5-12.26a15.67,15.67,0,0,0,1.82-3.05.44.44,0,0,1,.83.09,13,13,0,0,1,.28,3.23c-.18,1.49-.25,1.75-.25,1.75a44.29,44.29,0,0,0,2.3-3.87,7.18,7.18,0,0,0,.85-2.55.43.43,0,0,1,.46-.39.42.42,0,0,1,.36.24,11,11,0,0,1,1.58,5.57l-.07,2.39a3.32,3.32,0,0,0,1.8-1.2h0a.43.43,0,0,1,.6-.12h0a.44.44,0,0,1,.19.37,14.64,14.64,0,0,1-2,6.13C145.61,147.43,136,156.5,136,156.5Z"/><path class="cls-42" d="M145,162.74a2.22,2.22,0,0,1,1,3v0a1.49,1.49,0,0,1-.18.3v.07c-1,1.4-3.37,3.47-8.47,2.29a11.87,11.87,0,0,1-4.14-1.8,2.22,2.22,0,0,1-.59-3.08,2.36,2.36,0,0,1,.59-.59,2.73,2.73,0,0,0,1.17-1.4c.23-.86-.06-6.21-.38-8.92-.1-.91-.36-2.73-.36-2.73l8.63,4s0,2.25.12,4.07c0,1.08.12,2,.13,2.23C142.64,161.28,143.88,162.16,145,162.74Z"/><path class="cls-43" d="M136.72,151.68c-.28.76-1.87.91-3.57.33s-2.75-1.64-2.56-2.45c.25-1.08,1.87-.92,3.56-.33S137,150.91,136.72,151.68Z"/><path class="cls-43" d="M142.31,153.86s.05,2.25.12,4.07a4.37,4.37,0,0,1-1.74.39c-4.41-.08-6.7-7.43-6.7-7.43Z"/><path class="cls-42" d="M132.82,147.4a3,3,0,0,0,.16.73c1.41,5.73,5.56,9.68,9.27,8.82,2.09-.5,3.58-2.37,4.25-5a2.13,2.13,0,0,1,.1-.4l.08-.36a11.36,11.36,0,0,0,.16-1.29V148a16.85,16.85,0,0,0-.45-3c0-.21-.12-.45-.19-.71l-.09-.32-.06-.22h0a22.45,22.45,0,0,0-1.11-3,10,10,0,0,1-3.31.11c-3-.15-6.37-.24-7.84,2.42C133.18,144.43,133.07,147.11,132.82,147.4Z"/><path class="cls-43" d="M142.09,150.35l.5-.14c.32-.09.53-.38.43-.63l-.69-1.84a.5.5,0,0,0-.64-.23h0a.56.56,0,0,0-.45.54l.22,2C141.47,150.29,141.77,150.44,142.09,150.35Z"/><path class="cls-44" d="M137.15,147.2c.08.4.38.67.68.61a.66.66,0,0,0,.39-.82c-.08-.4-.38-.67-.68-.61A.66.66,0,0,0,137.15,147.2Z"/><path class="cls-41" d="M139,145a1,1,0,0,0-.13-.16,1.7,1.7,0,0,0-.42-.33,1.26,1.26,0,0,0-.33-.16,1.9,1.9,0,0,0-.39-.11,3.23,3.23,0,0,0-.44,0,1.77,1.77,0,0,0-.46,0,2.35,2.35,0,0,0-.45.14,2.82,2.82,0,0,0-.38.21l-.32.26a2,2,0,0,0-.23.27,1,1,0,0,0-.17.25l-.1.21a1.34,1.34,0,0,0-.07.18l.18-.08.2-.11.24-.12.28-.13.31-.14c.11,0,.21-.08.33-.11A1.36,1.36,0,0,1,137,145a5.4,5.4,0,0,1,.69-.08h.65a4.1,4.1,0,0,1,.49.06Z"/><path class="cls-44" d="M144.27,146.12a.61.61,0,0,0,.64.65.63.63,0,0,0,.43-.79c-.05-.4-.34-.69-.64-.65A.63.63,0,0,0,144.27,146.12Z"/><path class="cls-41" d="M146.29,144a.66.66,0,0,0-.12-.17,2.32,2.32,0,0,0-.71-.53,3,3,0,0,0-.39-.14h-.45a1.77,1.77,0,0,0-.46,0,2.18,2.18,0,0,0-.44.11,3,3,0,0,0-.41.19l-.33.24-.25.25a1.08,1.08,0,0,0-.18.24l-.11.2-.09.19.19-.08.2-.09.26-.11.28-.12.32-.11.33-.1a4.08,4.08,0,0,1,.69-.09h1l.5.08Z"/><g class="cls-45"><path class="cls-43" d="M135.51,150.64a2,2,0,1,0,0-.09S135.51,150.61,135.51,150.64Z"/></g><g class="cls-45"><path class="cls-43" d="M144.3,149.75a2,2,0,0,0,2.13,1.86h.17l.08-.36a11.36,11.36,0,0,0,.16-1.29v-.9a14.72,14.72,0,0,0-.13-1.49,2.29,2.29,0,0,0-.64,0,2,2,0,0,0-1.83,2.16s0,.05,0,.07Z"/></g><path class="cls-20" d="M144.45,152.34a8.67,8.67,0,0,1-5.36.59s1.26,2.17,3.25,1.95S144.45,152.34,144.45,152.34Z"/><path class="cls-41" d="M131.44,146.41s1.33,2.74,2.76,3.05.58-2.08.56-4.13,1.37-3.22,4.75-2.22a6.75,6.75,0,0,0,6.05-1.45s.28-3.83.22-3.87-9.64.49-9.75.54h0a7.19,7.19,0,0,0-4.59,7.79Z"/><path class="cls-4" d="M123.59,210.29h.15a137.1,137.1,0,0,0,14.53,2.26l.49.06c1.49.18,2.87.29,4.1.34H144c8.57.09,10.3-2.81,10.3-2.81l-.08-.39c-.43-2-2.29-10.74-2.64-14.93-.12-1.42.22-6.1.28-10,.12-9.11.34-20.76.34-20.76l-8.53-2.31c-3,2.67-6.11,2.66-9.19.08l-.12-.1L124.25,164s.87,28.59.87,30.61c0,1.29.41,6.67-.93,11h0Z"/><path class="cls-42" d="M145.55,207.69s-.2.79-.6,2.11c-.13.45-.29,1-.47,1.53a2.41,2.41,0,0,1-.08.25c-.54,1.77-1.27,4-2.15,6.45-.41,1.15-.86,2.36-1.34,3.58h0c-.54,1.35-1.11,2.73-1.71,4.09-.3.68-.61,1.36-.92,2-.21.44-.42.87-.64,1.3v.09a42.68,42.68,0,0,1-3.56,6c-.89,1.22-1.65,2.32-2.3,3.32a35.74,35.74,0,0,0-2.84,5c-.09.2-.18.4-.26.61a15.3,15.3,0,0,0-1.06,5.67,50.18,50.18,0,0,1-4.88,19.38c-2.84,6-4.46,8-5.53,11.7-.31,1-.57,2-.8,2.89-.07.26-.14.5-.2.74s-.14.59-.21.91c-.23,1.08-.44,2.39-.63,3.75a1,1,0,0,1,0,.25h0c-.17,1.19-.33,2.41-.5,3.54-.11.84-.22,1.63-.33,2.33h0c-.26,1.68-.52,2.83-.82,2.79a7,7,0,0,1-1.31-.53c-.46-.22-1-.5-1.56-.82s-.92-.55-1.38-.85h0c-2-1.29-3.69-2.91-3-4.12l.13-.22c.38-.65.88-1.41,1.41-2.24l.57-.89c.26-.41.53-.85.78-1.29l.31-.53h0a18.33,18.33,0,0,0,1.3-2.81,9.38,9.38,0,0,0,.41-1.37,3.86,3.86,0,0,0,.09-.49c.06-.38.11-.94.15-1.65.19-3.41.16-7.63.45-14,1.22-5.79,2.63-12.35,4.07-18.71.78-1.79,1.55-3.47,2.22-5.18l.15-.4a33.47,33.47,0,0,0,2.25-10.78c.1-2,.32-4.48.62-7.11.19-1,.37-1.88.55-2.76.08-.46.16-.9.25-1.34.21-1.13.4-2.17.57-3.15.06-.29.1-.56.15-.83.22-1.25.41-2.38.57-3.36a3.21,3.21,0,0,1,.07-.43.72.72,0,0,1,.06-.37c.06-.11,0-.34.08-.5s0-.22,0-.33h0c.33-2.11.5-3.28.5-3.38h0a3.83,3.83,0,0,1,.59-1.32H144Z"/><path class="cls-46" d="M114.48,300.2a1.92,1.92,0,0,1-2,1.34c-5.35-.44-8.48-4.63-8.59-6.82a1.06,1.06,0,0,1,.16-.6l2.58-3.9c-.07.08-1.09,3.68,4.32,4.92h0c3.83.84,4.31-3.91,4.31-3.91S115.43,297,114.48,300.2Z"/><path class="cls-8" d="M110.09,299.54h.12a4.83,4.83,0,0,0,2.54.43c2.56-.5,2.44-3.68,2.62-5.85a27.63,27.63,0,0,0-.05-4.07,3.93,3.93,0,0,0-.06-.77,6.35,6.35,0,0,1-1.1,2.84,3,3,0,0,1-3.21,1.07h-.06c-5.3-1.22-1.81-5.83-1.63-6.08l-.1.1c-.65.62-3.79,3.76-4.22,6.44C104.6,295.8,107.49,298.44,110.09,299.54Z"/><path class="cls-42" d="M150.08,289.52l-.06.72-.12,1.52-.05.63v.77a4,4,0,0,1-2.9,1.19,3.16,3.16,0,0,1-2.6-1.11h0v-.18a3.42,3.42,0,0,0-.07-.59h0c0-.19-.06-.42-.09-.7s-.1-.8-.16-1.3v-.22a2.23,2.23,0,0,0-.05-.36h0c-.58-4.68-1.67-13.47-2.5-19.11,0,0,.06-23,.24-24.39h0a6.4,6.4,0,0,0-.11-2v-.17c-.35-1.8-1.27-4.74-3.05-11.4h0l-.15-4s.54-21.42.56-22.27H153.2c.08.61.16,1.29.23,2v.5h0v.49c0,.5.08,1,.11,1.49v.88a.11.11,0,0,1,0,.08v.26a2.91,2.91,0,0,0,0,.59v.59c0,.92.09,1.88.14,2.86v.68a1.31,1.31,0,0,1,0,.28v1.16a14.74,14.74,0,0,0,0,1.49v8.47C154.16,230.41,150.63,285.05,150.08,289.52Z"/><path class="cls-8" d="M108,293.88l1,1.59a3.2,3.2,0,0,0,3.84,1.21l.17-.07a3.23,3.23,0,0,0,1.84-2.55l.44-4,.11-.91h-.32a5.57,5.57,0,0,1-1,0,6.12,6.12,0,0,1-4.55-2.59l-.42.63-.91,1.42a3.32,3.32,0,0,0-.5,1.25l-.27,1.73A3.26,3.26,0,0,0,108,293.88Z"/><path class="cls-8" d="M110.21,299.59a4.83,4.83,0,0,0,2.54.43c2.56-.5,2.44-3.68,2.62-5.85a27.63,27.63,0,0,0-.05-4.07l.11-.91h-.32a5.57,5.57,0,0,1-1,0,15,15,0,0,1,0,3,12.26,12.26,0,0,1-.9,3.67c-.13.31-.26.59-.4.85A6.89,6.89,0,0,1,110.21,299.59Z"/><path class="cls-43" d="M150.08,289.52l-.06.72-.12,1.52h-5.77c-.07-.5-.14-1.14-.24-1.88h0c-.49-8.38-2.37-41.67-2.26-43.5h0a6.42,6.42,0,0,0-.11-2v-.1c-.42-2.64-4.05-32.47-4.05-32.47l2.32-.12,5.17-.27,8.5-.43h.12v1.22C154.21,221.41,150.63,285.05,150.08,289.52Z"/><path class="cls-8" d="M136.69,223.85l1.54,2.6.05,1.33,2.43,62.46h11.4s3.1-66.24,2.11-80.92h-.77l-8.5.44-5.17.27-2.32.11Z"/><path class="cls-43" d="M111.52,280.31l5.62.6c-.31,1-.57,2-.8,2.89-.07.25-.14.49-.2.74s-.14.58-.21.9l-5.05-1.63Z"/><path class="cls-8" d="M108.29,281.64l3,.8,5.06,1.36,2.65.71,18.82-54.39.49-1.52,2.62-7,1.35-3.59.9-7.43-3.38-.52-4-.62-11.68-1.81h0c0,.22-.8,6.24-2.84,16.46-.84,4.22-1.91,9.17-3.23,14.72-.66,2.8-1.34,5.75-2,8.75-1.43,6.36-2.85,12.92-4.06,18.71C109.83,276.47,108.29,281.64,108.29,281.64Z"/><rect class="cls-46" x="144.1" y="300.41" width="20.04" height="2.24"/><path class="cls-8" d="M144.13,300.41a3.49,3.49,0,0,1-.32-1.52c-.07-1.66.43-6.44.43-6.44l6.38-.08s8.74,2.05,10.76,3,2.78,5,2.78,5Z"/><circle class="cls-46" cx="148.08" cy="296.57" r="2.13"/><path class="cls-46" d="M154.62,293.43a16.38,16.38,0,0,1-4.11-.7l-.62-.19.55-.34c.13-.08,3.06-1.88,4.92-1.88a1.48,1.48,0,0,1,1.63,1.31h0v.12a1.31,1.31,0,0,1-.34,1.05A2.68,2.68,0,0,1,154.62,293.43Zm-3.26-1.1a14.36,14.36,0,0,0,3.26.49,2.25,2.25,0,0,0,1.61-.42.79.79,0,0,0,.18-.61c0-.62-.38-.89-1-.89A11,11,0,0,0,151.36,292.33Z"/><path class="cls-46" d="M153.15,297.14h0c-1.77,0-2.76-3.43-3-4.49a.31.31,0,0,1,.06-.29.32.32,0,0,1,.27-.14h.15c1,.43,4.09,1.93,4.17,3.4a1.4,1.4,0,0,1-.86,1.27A1.6,1.6,0,0,1,153.15,297.14ZM150.84,293c.44,1.48,1.3,3.52,2.31,3.52h0a1,1,0,0,0,.49-.14c.58-.33.57-.62.56-.71-.06-.78-1.65-1.87-3.36-2.67Z"/><path class="cls-46" d="M149.7,294.72a4.25,4.25,0,0,1,.2-1.84,2.47,2.47,0,0,0-1.13.94l-.49-.32a2.78,2.78,0,0,1,2.12-1.31h.6l-.29.47a3.37,3.37,0,0,0-.36,2Z"/><rect class="cls-47" x="123.63" y="206.32" width="30.56" height="5.26"/><rect class="cls-48" x="125.2" y="209.74" width="27.52" height="0.75"/><g class="cls-49"><rect class="cls-8" x="132.46" y="220.05" width="14.24" height="0.75" transform="translate(-101.52 320.16) rotate(-80.13)"/></g><g class="cls-49"><polygon class="cls-8" points="139.05 223.91 138.9 223.17 141.81 222.59 144.88 211.79 145.6 212 142.41 223.24 139.05 223.91"/></g><g class="cls-49"><path class="cls-8" d="M124.6,222.28l-.17-.73c6.18-1.43,7.4-9.42,7.43-9.52l.75.11C132.57,212.22,131.28,220.74,124.6,222.28Z"/></g><g class="cls-49"><path class="cls-8" d="M153.59,223.33c-6.34-1.47-7.53-9.28-7.57-9.61l.74-.11c0,.08,1.16,7.64,7,9Z"/></g><polygon class="cls-4" points="125.64 190.92 122.63 212.34 155.32 212.34 151.5 190.57 125.64 190.92"/><path class="cls-42" d="M129.31,180.91l-1,4.25h0v.13h0l-1,4-8.61-.44h0s.06-.57.17-1.52a2.09,2.09,0,0,1,.07-.64,8,8,0,0,0,.12-1.07c0-.39.07-.6.1-.92s.07-.49.1-.78c.68-6,1.81-15.37,2.25-16.89a3.7,3.7,0,0,1,.28-.72L124,164.2h.13l4.47,12.16Z"/><path class="cls-42" d="M125.72,185.07a5.81,5.81,0,0,1,.58-.09c2.4-.1,19,3.32,19,3.32l-.75,5h0c-1.33.14-20,.68-21.74.28-3-.72-4.38-2.4-4.1-4.58C119,186.59,124,185.4,125.72,185.07Z"/><path class="cls-42" d="M144.53,193.23s2.66,1,4.44.3a28.17,28.17,0,0,0,4-2s3.6,2.73,7.06,2.79a.68.68,0,0,0,.69-.66.7.7,0,0,0-.22-.51,46.32,46.32,0,0,0-6.34-5c-1.72-1-8.92.17-8.92.17Z"/><path class="cls-43" d="M128.76,185.22l-.5.11L120,187.16l-1.12.25a2.09,2.09,0,0,1,.07-.64,8,8,0,0,0,.12-1.07c0-.39.07-.6.1-.92s.07-.49.1-.78l8,1h0l1,.14Z"/><path class="cls-4" d="M129.94,185.26l-12.16.49s1.49-10.48,2.35-15.15c.91-5,4-6.45,4-6.45h0a23.23,23.23,0,0,1,5.45,14Z"/><path class="cls-50" d="M139.8,193.16h19.53a1,1,0,0,1,1,1h0a1,1,0,0,1-1,1H139.8a1,1,0,0,1-1-1h0A1,1,0,0,1,139.8,193.16Z"/><path class="cls-50" d="M184.13,172.26H158.61a1.31,1.31,0,0,0-1.28,1.08l-3.57,20.32a1.3,1.3,0,0,0,1.08,1.49h25.72a1.31,1.31,0,0,0,1.28-1.08l3.56-20.33a1.29,1.29,0,0,0-1.07-1.48h-.2Z"/><circle class="cls-4" cx="169.81" cy="184.22" r="2.9"/><path class="cls-42" d="M183.73,189.72l1.11-2.11a.25.25,0,0,0-.09-.34.17.17,0,0,0-.1,0,1.33,1.33,0,0,0-1.18.37c-.53.63-1.49,2.09-1.49,2.09Z"/><path class="cls-42" d="M183.75,191.87l-3.92,1a.12.12,0,0,1-.15-.07,0,0,0,0,1,0,0,.09.09,0,0,1,0-.07,2.39,2.39,0,0,1,1.39-1.55,23.65,23.65,0,0,1,2.63-.56l.27.87a.3.3,0,0,1-.19.38h0Z"/><path class="cls-42" d="M182.3,195l-3,.78a.18.18,0,0,1-.22-.13h0a.21.21,0,0,1,0-.11,2.39,2.39,0,0,1,1.36-1.49,26.35,26.35,0,0,1,2.64-.56h0a1.18,1.18,0,0,1-.73,1.49h0Z"/><path class="cls-42" d="M182.94,193.68l-4,.91a.2.2,0,0,1-.23-.15.25.25,0,0,1,0-.12,3.67,3.67,0,0,1,1.81-1.73,28.77,28.77,0,0,1,2.9-.62l.16.5A1.12,1.12,0,0,1,182.94,193.68Z"/><path class="cls-42" d="M183.78,190.57l-3.47.92a.18.18,0,0,1-.22-.13h0a.11.11,0,0,1,0-.11,2.33,2.33,0,0,1,1.35-1.46c.69-.19,1.38-.35,2.08-.47a.62.62,0,0,1,.72.45h0a.61.61,0,0,1-.4.78h-.06Z"/><path class="cls-42" d="M183,193.9a2.09,2.09,0,0,0,.6-.72,1.35,1.35,0,0,0,.06-.69,4.11,4.11,0,0,0,.39-.82,3.64,3.64,0,0,0,.06-.93,3.16,3.16,0,0,0,.13-1.14.57.57,0,0,0-.57-.56h0a5.19,5.19,0,0,0-.94.24Z"/></g></svg>