<?xml version="1.0" encoding="utf-8"?>
<!-- Generator: Adobe Illustrator 26.0.1, SVG Export Plug-In . SVG Version: 6.00 Build 0)  -->
<svg version="1.1" id="Layer_1" xmlns="http://www.w3.org/2000/svg" xmlns:xlink="http://www.w3.org/1999/xlink" x="0px" y="0px"
	 viewBox="0 0 74 74" style="enable-background:new 0 0 74 74;" xml:space="preserve">
<style type="text/css">
	.st0{fill:url(#SVGID_1_);}
	.st1{fill:url(#SVGID_00000093885736444110819310000018364751092738162339_);}
	.st2{fill:url(#SVGID_00000011713340566720299870000003693817229747673748_);}
	.st3{fill:url(#SVGID_00000102520028653965667660000005218919460549613220_);}
	.st4{fill:url(#SVGID_00000005245478500976714210000016507673557438866067_);}
	.st5{fill:url(#SVGID_00000180341548341149251280000005151590745456615322_);}
	.st6{fill:url(#SVGID_00000138550905870184256560000005851537937345064588_);}
	.st7{fill:url(#SVGID_00000048478379219614592450000002526860103936848519_);}
	.st8{fill:url(#SVGID_00000165220462286905849310000002822426805566330031_);}
	.st9{fill:url(#SVGID_00000052061905614433850450000001424401530977481118_);}
	.st10{fill:url(#SVGID_00000070105121451219770970000013899042880428465072_);}
	.st11{fill:url(#SVGID_00000091006765937561448480000017138080304883837374_);}
	.st12{fill:url(#SVGID_00000088094890538609362000000000233532967497792903_);}
	.st13{fill:url(#SVGID_00000125583888719700463230000006013979933491054721_);}
	.st14{fill:url(#SVGID_00000039845906561661495310000012084603229837289359_);}
	.st15{fill:url(#SVGID_00000013882326868795741200000015387919927207044776_);}
	.st16{fill:url(#SVGID_00000044869240324223978500000005504398544800229821_);}
	.st17{fill:url(#SVGID_00000139282608253035911850000010228055889050140313_);}
	.st18{fill:url(#SVGID_00000036964728278337381830000002128440414709780922_);}
	.st19{fill:url(#SVGID_00000152969743528245308500000001685306396333631876_);}
	.st20{fill:url(#SVGID_00000026157583284750373700000001364422805207077047_);}
	.st21{fill:url(#SVGID_00000018197032619743273780000011042833468673201058_);}
	.st22{fill:url(#SVGID_00000041988575354648602630000014445140056884144297_);}
	.st23{fill:url(#SVGID_00000149359776194393350140000011040619696215891588_);}
	.st24{fill:url(#SVGID_00000106117075754640794500000012078459227800875922_);}
	.st25{fill:url(#SVGID_00000024720971226053180220000013607516023077924524_);}
	.st26{fill:url(#SVGID_00000174588379164859702340000017667880511794657968_);}
	.st27{fill:url(#SVGID_00000071554897109660864490000017871942550454720401_);}
	.st28{fill:url(#SVGID_00000014603286484198416310000014412966430676061318_);}
	.st29{fill:url(#SVGID_00000169531836695324822830000013101316915580480148_);}
	.st30{fill:url(#SVGID_00000057850091305924611380000017425525202595109536_);}
	.st31{fill:url(#SVGID_00000054951059372509274910000012911830405269731510_);}
	.st32{fill:url(#SVGID_00000167398491092592180410000008699318447020015292_);}
	.st33{fill:url(#SVGID_00000070117857762481783530000014326295324463190183_);}
	.st34{fill:url(#SVGID_00000159457412377916767010000014461008528322509741_);}
	.st35{fill:url(#SVGID_00000179615730055556764980000014269404188160672655_);}
	.st36{fill:url(#SVGID_00000037652234762985569020000008557254694645583015_);}
	.st37{fill:url(#SVGID_00000051376333547682530450000007375785472982648243_);}
	.st38{fill:url(#SVGID_00000156553543790937853860000013391132816865880766_);}
	.st39{fill:url(#SVGID_00000044138279212264796290000003157392176259540363_);}
	.st40{fill:url(#SVGID_00000027562961261908881630000001885935130845702796_);}
	.st41{fill:url(#SVGID_00000083056924229229801780000017542498173047046027_);}
	.st42{fill:url(#SVGID_00000050627445216677800420000001107817591102579630_);}
	.st43{fill:url(#SVGID_00000164510902109666886570000005048631659419522690_);}
	.st44{fill:url(#SVGID_00000075846481544227336700000009945661585235380910_);}
	.st45{fill:url(#SVGID_00000016044313265404771290000005712196802637321149_);}
	.st46{fill:url(#SVGID_00000155111146977919165610000004426982822443652025_);}
	.st47{fill:url(#SVGID_00000049190437089815476700000015357403901775315889_);}
	.st48{fill:url(#SVGID_00000029019130472787182000000002232647585895716509_);}
	.st49{fill:url(#SVGID_00000127007485564861909210000007412915510576722346_);}
	.st50{fill:url(#SVGID_00000118388575401466932840000009454787885154135965_);}
	.st51{fill:url(#SVGID_00000119088815519152992950000015419454104489084551_);}
	.st52{fill:url(#SVGID_00000103260216447615081620000005650574360455839419_);}
	.st53{fill:url(#SVGID_00000011726715134099674180000001140733222986133437_);}
	.st54{fill:url(#SVGID_00000072260977242009222450000015327338038057788324_);}
	.st55{fill:url(#SVGID_00000145753541120486282810000010708007352307772342_);}
</style>
<g>
	<linearGradient id="SVGID_1_" gradientUnits="userSpaceOnUse" x1="52.4634" y1="69.0359" x2="14.7255" y2="26.0015">
		<stop  offset="0" style="stop-color:#1C78AD"/>
		<stop  offset="0.9944" style="stop-color:#32CA9B"/>
	</linearGradient>
	<path class="st0" d="M11.9,50.1c0.6-2.2,2.1-3.5,4-4.6c0.8-0.5,1.7-0.3,2.1,0.4c0.4,0.7,0.2,1.5-0.7,2.1c-0.6,0.4-1.2,0.8-1.8,1.3
		c-1.1,1-1.1,1.9,0,3c1.1,1.1,2.4,1.7,3.8,2.2c2.6,1,5.3,1.6,8,2c3.3,0.5,6.6,0.7,9.9,0.7c4.9-0.1,9.7-0.6,14.4-2
		c1.8-0.6,3.6-1.2,5.1-2.4c0.3-0.3,0.7-0.6,0.9-0.9c0.6-0.7,0.6-1.4,0-2.1c-0.7-0.7-1.5-1.2-2.2-1.8c-0.6-0.4-0.9-1-0.7-1.7
		c0.3-0.8,1.1-1.3,1.9-0.9c1.6,0.8,3.1,1.9,3.9,3.5c0.2,0.4,0.3,0.8,0.5,1.2c0,0.4,0,0.9,0,1.3c-0.4,1.7-1.5,3-2.9,4
		c-1.6,1.1-3.4,1.9-5.3,2.4c-3.7,1.2-7.5,1.8-11.3,2C40.6,59.9,39.8,60,39,60c-1.7,0-3.5,0-5.2,0c-0.2,0-0.3-0.1-0.5-0.1
		c-2.7-0.1-5.4-0.4-8.1-0.9c-2.9-0.5-5.8-1.3-8.5-2.6c-2.2-1.1-4.2-2.5-4.8-5.1C11.9,51,11.9,50.5,11.9,50.1z"/>
	
		<linearGradient id="SVGID_00000021826554767665166860000000359371637876071317_" gradientUnits="userSpaceOnUse" x1="53.5758" y1="68.0605" x2="15.8379" y2="25.026">
		<stop  offset="0" style="stop-color:#1C78AD"/>
		<stop  offset="0.9944" style="stop-color:#32CA9B"/>
	</linearGradient>
	<path style="fill:url(#SVGID_00000021826554767665166860000000359371637876071317_);" d="M49.8,48.5c-2-1.5-4.3-1.8-6.6-2.3
		c0.5-0.8,1-1.7,1.4-2.4c0-0.1,0.2-0.1,0.3-0.1c2.3,0.4,4.6,1,6.5,2.4c0.9,0.7,1.4,1.6,1.3,2.8c-0.1,1-0.7,1.6-1.4,2.2
		c-1.4,1-3,1.5-4.6,2c-3.9,1-7.9,1.2-12,1.1c-3.4-0.1-6.8-0.5-10.1-1.6c-1-0.3-2-0.8-2.9-1.5c-2-1.4-2-3.7,0-5.1
		c1.4-1.1,3.1-1.6,4.9-2c0.2,0,0.3-0.1,0.5-0.1c1.1-0.2,1.1-0.2,1.7,0.8c0.3,0.5,0.6,1,0.9,1.5c0,0,0,0.1,0,0.1
		c-2.3,0.5-4.6,0.8-6.6,2.2c0.7,0.7,1.5,1,2.3,1.3c2.1,0.7,4.2,1.1,6.4,1.2c2.3,0.1,4.6,0.2,6.8,0.2c3-0.1,6-0.4,8.9-1.4
		C48.3,49.5,49.1,49.2,49.8,48.5z"/>
	
		<linearGradient id="SVGID_00000003089820181185296890000016341316924223544462_" gradientUnits="userSpaceOnUse" x1="63.6362" y1="59.2383" x2="25.8983" y2="16.2038">
		<stop  offset="0" style="stop-color:#1C78AD"/>
		<stop  offset="0.9944" style="stop-color:#32CA9B"/>
	</linearGradient>
	<path style="fill:url(#SVGID_00000003089820181185296890000016341316924223544462_);" d="M36.9,14.6c-4.8-0.2-8.7,1.9-11.2,6
		c-2.5,4.1-2.6,8.4-0.4,12.7c0.6,1.1,1.3,2.1,2.1,3.1c3,4,6,8,9,12.1c0.2-0.3,0.4-0.4,0.5-0.5c3.2-4.2,6.3-8.4,9.5-12.6
		c1.3-1.8,2.2-3.7,2.6-5.9C50.2,21.7,44.7,14.9,36.9,14.6z M41.3,30.9c0,0-0.1,0.1-0.1,0.1c-0.1,0.1-0.1,0.1-0.2,0.2
		c-0.2,0.2-0.4,0.4-0.6,0.6c-0.5,0.4-1.1,0.8-1.7,1c-0.1,0-0.2,0.1-0.3,0.1c-0.7,0.2-1.4,0.4-2.1,0.4c-1.6,0-3.2-0.7-4.3-1.8
		c-0.1-0.1-0.2-0.2-0.3-0.3c-0.1-0.1-0.1-0.2-0.2-0.3c-0.1-0.1-0.1-0.2-0.2-0.2c-0.7-1-1.1-2.1-1.1-3.3c0-3.5,2.7-6.2,6.1-6.2
		c3.3,0,6.1,2.7,6.1,6.1C42.6,28.6,42.1,29.9,41.3,30.9z"/>
</g>
<linearGradient id="SVGID_00000091000904875342894190000014035824085182169506_" gradientUnits="userSpaceOnUse" x1="173.0491" y1="37.3111" x2="245.1888" y2="37.3111" gradientTransform="matrix(-1 0 0 1 245.551 0)">
	<stop  offset="0" style="stop-color:#1C78AD"/>
	<stop  offset="0.9944" style="stop-color:#32CA9B"/>
</linearGradient>
<path style="fill:url(#SVGID_00000091000904875342894190000014035824085182169506_);" d="M36.4,73.4c19.9,0,36.1-16.2,36.1-36.1
	c0-19.9-16.2-36.1-36.1-36.1S0.4,17.4,0.4,37.3C0.4,57.2,16.5,73.4,36.4,73.4z M36.4,2c19.5,0,35.3,15.8,35.3,35.3
	S55.9,72.6,36.4,72.6S1.1,56.8,1.1,37.3S17,2,36.4,2z"/>
</svg>
