<svg id="Layer_1" data-name="Layer 1" xmlns="http://www.w3.org/2000/svg" xmlns:xlink="http://www.w3.org/1999/xlink" viewBox="0 0 74 74"><defs><style>.cls-1{fill:url(#linear-gradient);}.cls-2{fill:url(#linear-gradient-2);}.cls-3{fill:url(#linear-gradient-3);}.cls-4{fill:url(#linear-gradient-4);}.cls-5{fill:url(#linear-gradient-5);}.cls-6{fill:url(#linear-gradient-6);}.cls-7{fill:url(#linear-gradient-7);}.cls-8{fill:url(#linear-gradient-8);}.cls-9{fill:url(#linear-gradient-9);}.cls-10{fill:url(#linear-gradient-10);}.cls-11{fill:url(#linear-gradient-11);}.cls-12{fill:url(#linear-gradient-12);}.cls-13{fill:url(#linear-gradient-13);}.cls-14{fill:url(#linear-gradient-14);}.cls-15{fill:url(#linear-gradient-15);}.cls-16{fill:url(#linear-gradient-16);}.cls-17{fill:url(#linear-gradient-17);}.cls-18{fill:url(#linear-gradient-18);}.cls-19{fill:url(#linear-gradient-19);}.cls-20{fill:url(#linear-gradient-20);}.cls-21{fill:url(#linear-gradient-21);}.cls-22{fill:url(#linear-gradient-22);}.cls-23{fill:url(#linear-gradient-23);}.cls-24{fill:url(#linear-gradient-24);}.cls-25{fill:url(#linear-gradient-25);}.cls-26{fill:url(#linear-gradient-26);}.cls-27{fill:url(#linear-gradient-27);}.cls-28{fill:url(#linear-gradient-28);}.cls-29{fill:url(#linear-gradient-29);}.cls-30{fill:url(#linear-gradient-30);}.cls-31{fill:url(#linear-gradient-31);}.cls-32{fill:url(#linear-gradient-32);}</style><linearGradient id="linear-gradient" x1="50.26" y1="62.35" x2="10.7" y2="16.01" gradientUnits="userSpaceOnUse"><stop offset="0" stop-color="#1c78ad"/><stop offset="0.99" stop-color="#32ca9b"/></linearGradient><linearGradient id="linear-gradient-2" x1="55.44" y1="57.93" x2="15.88" y2="11.58" xlink:href="#linear-gradient"/><linearGradient id="linear-gradient-3" x1="59.06" y1="54.84" x2="19.5" y2="8.49" xlink:href="#linear-gradient"/><linearGradient id="linear-gradient-4" x1="59.1" y1="54.8" x2="19.54" y2="8.46" xlink:href="#linear-gradient"/><linearGradient id="linear-gradient-5" x1="54.71" y1="58.55" x2="15.15" y2="12.2" xlink:href="#linear-gradient"/><linearGradient id="linear-gradient-6" x1="55.14" y1="58.18" x2="15.58" y2="11.84" xlink:href="#linear-gradient"/><linearGradient id="linear-gradient-7" x1="57.52" y1="56.15" x2="17.96" y2="9.81" xlink:href="#linear-gradient"/><linearGradient id="linear-gradient-8" x1="55.31" y1="58.04" x2="15.75" y2="11.69" xlink:href="#linear-gradient"/><linearGradient id="linear-gradient-9" x1="57.95" y1="55.79" x2="18.39" y2="9.44" xlink:href="#linear-gradient"/><linearGradient id="linear-gradient-10" x1="53.92" y1="59.22" x2="14.36" y2="12.88" xlink:href="#linear-gradient"/><linearGradient id="linear-gradient-11" x1="56.2" y1="57.27" x2="16.65" y2="10.93" xlink:href="#linear-gradient"/><linearGradient id="linear-gradient-12" x1="52.84" y1="60.15" x2="13.28" y2="13.8" xlink:href="#linear-gradient"/><linearGradient id="linear-gradient-13" x1="49.62" y1="62.89" x2="10.06" y2="16.55" xlink:href="#linear-gradient"/><linearGradient id="linear-gradient-14" x1="54.1" y1="59.07" x2="14.54" y2="12.72" xlink:href="#linear-gradient"/><linearGradient id="linear-gradient-15" x1="49.72" y1="62.81" x2="10.16" y2="16.46" xlink:href="#linear-gradient"/><linearGradient id="linear-gradient-16" x1="50.15" y1="62.44" x2="10.59" y2="16.1" xlink:href="#linear-gradient"/><linearGradient id="linear-gradient-17" x1="52.53" y1="60.41" x2="12.97" y2="14.07" xlink:href="#linear-gradient"/><linearGradient id="linear-gradient-18" x1="50.31" y1="62.3" x2="10.76" y2="15.96" xlink:href="#linear-gradient"/><linearGradient id="linear-gradient-19" x1="48.92" y1="63.49" x2="9.37" y2="17.14" xlink:href="#linear-gradient"/><linearGradient id="linear-gradient-20" x1="51.21" y1="61.54" x2="11.65" y2="15.19" xlink:href="#linear-gradient"/><linearGradient id="linear-gradient-21" x1="65.51" y1="49.33" x2="25.95" y2="2.99" xlink:href="#linear-gradient"/><linearGradient id="linear-gradient-22" x1="67.92" y1="47.28" x2="28.36" y2="0.93" xlink:href="#linear-gradient"/><linearGradient id="linear-gradient-23" x1="69.04" y1="46.32" x2="29.48" y2="-0.02" xlink:href="#linear-gradient"/><linearGradient id="linear-gradient-24" x1="69.43" y1="45.98" x2="29.87" y2="-0.36" xlink:href="#linear-gradient"/><linearGradient id="linear-gradient-25" x1="66.63" y1="48.37" x2="27.08" y2="2.03" xlink:href="#linear-gradient"/><linearGradient id="linear-gradient-26" x1="67.08" y1="47.99" x2="27.52" y2="1.65" xlink:href="#linear-gradient"/><linearGradient id="linear-gradient-27" x1="68.04" y1="47.17" x2="28.48" y2="0.83" xlink:href="#linear-gradient"/><linearGradient id="linear-gradient-28" x1="67.93" y1="47.27" x2="28.37" y2="0.92" xlink:href="#linear-gradient"/><linearGradient id="linear-gradient-29" x1="52" y1="60.86" x2="12.45" y2="14.51" xlink:href="#linear-gradient"/><linearGradient id="linear-gradient-30" x1="57" y1="56.6" x2="17.44" y2="10.25" xlink:href="#linear-gradient"/><linearGradient id="linear-gradient-31" x1="66.57" y1="48.43" x2="27.01" y2="2.08" xlink:href="#linear-gradient"/><linearGradient id="linear-gradient-32" x1="-169.18" y1="37.01" x2="-97.04" y2="37.01" gradientTransform="matrix(-1, 0, 0, 1, -95.53, 0)" xlink:href="#linear-gradient"/></defs><path class="cls-1" d="M20.33,42.21l1.32,1.7c-.65.4-1.28.73-1.85,1.15-2.09,1.52-2.08,3.34,0,4.85a18.14,18.14,0,0,0,6.31,2.62,48.91,48.91,0,0,0,16.31,1.1,33.63,33.63,0,0,0,10.2-2.32,13.24,13.24,0,0,0,3.11-1.81c1.55-1.23,1.51-2.79,0-4.07a26,26,0,0,0-2.25-1.55l1.25-1.63a8.52,8.52,0,0,1,3.79,3.35,3.61,3.61,0,0,1-.29,4.18,11.31,11.31,0,0,1-2.72,2.44,22.55,22.55,0,0,1-8.39,2.94,51.7,51.7,0,0,1-21.59-.55,18.26,18.26,0,0,1-7.23-3.24c-3-2.37-3-5.37,0-7.75C18.9,43.11,19.6,42.7,20.33,42.21Z"/><path class="cls-2" d="M41.56,37c-.12.12-.23.23-.35.33a5.86,5.86,0,0,1-1.53.93l-.27.1a5.77,5.77,0,0,1-1.94.33h0A5.46,5.46,0,0,1,33.59,37l-.05,0,.19,0c.4-.07.8-.13,1.21-.18s.83-.08,1.25-.1,1.1,0,1.65,0,.92,0,1.37,0,.86.08,1.28.13A10,10,0,0,1,41.56,37Z"/><path class="cls-3" d="M42.48,32.76v3a1.28,1.28,0,0,1-.11.2V33.39h-.15v2.78l-.2.27-.1.13-.16.18h0V33.39H41.6v3.45l-.2,0V33.45a.2.2,0,0,1,.12-.21l.92-.46Z"/><path class="cls-4" d="M39.39,30.37H37c0-.14,0-.14.12-.2l.48-.22.1,0h1.16a.11.11,0,0,1,.08,0c.15.08.3.16.44.25a.08.08,0,0,1,0,.06A.4.4,0,0,1,39.39,30.37Z"/><path class="cls-5" d="M33.75,33.24V34H33.1v-.74Z"/><path class="cls-6" d="M33.1,33.13V33h.3v-.86h.17V33h.18v.13Z"/><path class="cls-7" d="M37,30.52v5.94h.32V36h.65v.48h.44V36H39v.52l.35,0v-6Zm1,5.06h-.64v-.65h.64Zm0-1h-.64v-.65h.64Zm0-1.05h-.64v-.65h.64Zm0-1.06h-.64v-.65h.64Zm0-1.06h-.64v-.64h.64Zm.45-.64H39v.64h-.65Zm0,1.05H39v.65h-.65Zm0,1.06H39v.64h-.65ZM39,35.59h-.65v-.65H39Zm0-1.06h-.65v-.65H39Z"/><path class="cls-8" d="M34.59,33.42v3.22l.16,0a.41.41,0,0,0,0-.11h.09c.22,0,.44,0,.66,0a.92.92,0,0,0,.33,0l.75,0h.16v-3Zm.17.16h.71v.25h-.71Zm0,.53h.71v.25h-.71Zm0,.52h.71v.26h-.71Zm.71.53v.26h-.71v-.26Zm0,1.18h-.71v-.25h.71Zm0-.49h-.71v-.26h.71Zm.33-2.27h.71v.25H35.8Zm0,1.58h.71v.25H35.8Zm.71.43v.26H35.8v-.26Zm0,.75H35.8v-.25h.72Zm0-1.45H35.8v-.26h.72Zm0-.53H35.8v-.25h.72Z"/><path class="cls-9" d="M41,34a.23.23,0,0,1-.2-.08,1.34,1.34,0,0,0-.11-.14l-.31-.33,0,0-.41.39a.31.31,0,0,1-.28.12h0v2.54l1.56.21V34A1.08,1.08,0,0,0,41,34Zm-.89,1.83h-.31v-.3h.31Zm0-.64h-.31v-.3h.31Zm0-.63h-.31v-.31h.31ZM40.67,36h-.31v-.31h.31Zm0-.65h-.31v-.3h.31Zm0-.63h-.31v-.31h.31Zm.09.11h.3v.31h-.3Zm0,.64h.3v.31h-.3Zm.31,1h-.31v-.31h.31Z"/><path class="cls-10" d="M34.27,34.59l-.43-.33c-.05,0-.1-.08-.09-.16H33.1c0,.11-.05.14-.11.18l-.43.3a.12.12,0,0,0-.06.12v.75a2.31,2.31,0,0,0,.18.35V34.67H33v1.66l.12.16a2.43,2.43,0,0,0,.2.25v0a6.3,6.3,0,0,0,1,0v-2A.08.08,0,0,0,34.27,34.59Zm-.93.51h.84v.2h-.84Zm.85,1.4h-.85v-.2h.85Zm0-.42h-.85v-.2h.85Zm0-.36h-.85v-.2h.85Zm0-.85h-.85v-.2h.85Z"/><path class="cls-11" d="M34.59,33.27a.14.14,0,0,1,.08-.17c.31-.18.61-.38.92-.57a.07.07,0,0,1,.09,0l1,.6c.07,0,0,.09,0,.14Z"/><path class="cls-12" d="M33,36.91v0h0S33,36.92,33,36.91Z"/><path class="cls-13" d="M25.84,34h0a5.26,5.26,0,0,1-.89.07h0A5.46,5.46,0,0,1,21,32.42L21,32.37l.19,0c.4-.08.8-.14,1.21-.19s.83-.08,1.25-.1l1.65,0h.56A10,10,0,0,0,25.84,34Z"/><path class="cls-14" d="M26.84,25.78H24.42c0-.14,0-.14.12-.2l.48-.22.1,0h1.16a.11.11,0,0,1,.08,0c.15.08.3.16.44.25a.08.08,0,0,1,0,.06A.4.4,0,0,1,26.84,25.78Z"/><path class="cls-15" d="M21.2,28.65v.74h-.65v-.74Z"/><path class="cls-16" d="M20.55,28.54v-.13h.3v-.86H21v.86h.18v.13Z"/><path class="cls-17" d="M24.42,25.93v5.94h.32V31.4h.65v.48h.44V31.4h.1c0-.13,0-.27.07-.4h-.17v-.65h.31l.11-.41h-.42v-.65h.64c.11-.3.23-.61.37-.91V25.93Zm1,5.06h-.64v-.65h.64Zm0-1h-.64v-.65h.64Zm0-1.05h-.64v-.65h.64Zm0-1.06h-.64v-.65h.64Zm0-1.06h-.64v-.64h.64Zm1.1,2.11h-.65v-.64h.65Zm0-1.05h-.65v-.64h.65Zm0-1.06h-.65v-.64h.65Z"/><path class="cls-18" d="M22,28.83v3.22l.16,0v-.11h.09c.22,0,.44,0,.66,0a.93.93,0,0,0,.33,0l.75,0h.15V28.83Zm.17.41V29h.71v.25Zm0,1.06V30h.71v.26Zm.71.27v.26h-.71v-.26Zm-.71-.8v-.25h.71v.25Zm.71,2h-.71V31.5h.71Zm0-.5h-.71V31h.71ZM23.25,29H24v.25h-.71Zm0,1.58H24v.25h-.71Zm0,.44H24v.25h-.71Zm.72.75h-.72V31.5H24Zm0-1.46h-.72V30H24Zm0-.53h-.72v-.25H24Z"/><path class="cls-19" d="M21.76,30.07a.08.08,0,0,0,0-.07c-.14-.11-.28-.22-.43-.32s-.1-.09-.09-.17h-.65c0,.11-.05.14-.11.18L20,30a.12.12,0,0,0-.06.12v.75a3,3,0,0,0,.18.36V30.08h.34v1.66a1.09,1.09,0,0,0,.13.17,2.11,2.11,0,0,0,.19.23h0a7.88,7.88,0,0,0,1,0v-2Zm-1,.44h.84v.2h-.84Zm.84,1.4h-.84v-.2h.84Zm0-.42h-.84v-.2h.84Zm0-.36h-.84v-.2h.84Zm0-.85h-.84v-.2h.84Z"/><path class="cls-20" d="M22,28.68a.14.14,0,0,1,.08-.17L23,28a.09.09,0,0,1,.09,0l1,.6c.07,0,0,.09,0,.14Z"/><path class="cls-21" d="M54.15,32.37l0,.06a5.5,5.5,0,0,1-3.87,1.64,5.26,5.26,0,0,1-.89-.07h0a11.78,11.78,0,0,0,0-2h.55l1.66,0c.41,0,.83.05,1.25.1s.8.11,1.2.19Z"/><path class="cls-22" d="M48.3,25.78h2.42c0-.14,0-.14-.12-.2l-.48-.22-.09,0H48.86a.11.11,0,0,0-.08,0l-.44.25s0,0,0,.06Z"/><path class="cls-23" d="M53.94,28.65v.74h.65v-.74Z"/><path class="cls-24" d="M54.59,28.54v-.13H54.3v-.86h-.17v.86h-.19v.13Z"/><path class="cls-25" d="M48.3,25.93v2.45a8.69,8.69,0,0,1,.37.91h.64v.65h-.42c0,.14.08.27.11.41h.31V31h-.17c0,.13.06.27.08.4h.09v.48h.45V31.4h.65v.47h.31V25.93Zm1,2.95h-.65v-.64h.65Zm0-1.05h-.65v-.64h.65Zm0-1.06h-.65v-.64h.65Zm.45-.64h.64v.64h-.64Zm0,1.05h.64v.65h-.64ZM50.4,31h-.64v-.65h.64Zm0-1h-.64v-.65h.64Zm0-1.05h-.65v-.65h.65Z"/><path class="cls-26" d="M51,28.83v3.05h.15l.75,0a.93.93,0,0,0,.33,0c.22,0,.45,0,.67,0h.08V32l.16,0V28.83Zm.94,2.93h-.71V31.5h.71Zm0-.5h-.71V31h.71Zm0-.44h-.71v-.25h.71Zm0-.52h-.71V30h.71Zm0-.53h-.71v-.25h.71Zm0-.53h-.71V29h.71Zm.34,1.33h.7v.26h-.7Zm.7,1.19h-.7V31.5h.7Zm0-.5h-.71V31h.71Zm0-1h-.7V30h.7Zm0-.53h-.7v-.25h.7Zm0-.53h-.7V29h.7Z"/><path class="cls-27" d="M55.14,30c-.15-.09-.29-.2-.44-.3s-.14-.07-.1-.18h-.66c0,.08,0,.12-.09.17s-.29.21-.43.32a.08.08,0,0,0,0,.07v2s0,0,0,0a7.78,7.78,0,0,0,1,0h0a2.12,2.12,0,0,0,.2-.24l.12-.16V30.08H55v1.13a3.78,3.78,0,0,0,.17-.35V30.1A.13.13,0,0,0,55.14,30Zm-1.63.1h.84v.2h-.84Zm.84,1.83h-.84v-.2h.84Zm0-.42h-.84v-.2h.84Zm0-.36h-.84v-.2h.84Zm0-.42h-.85v-.2h.85Z"/><path class="cls-28" d="M53.1,28.69a.13.13,0,0,0-.08-.18L52.11,28A.07.07,0,0,0,52,28l-1,.59c-.06,0,0,.09,0,.15Z"/><path class="cls-29" d="M25.35,18A9.93,9.93,0,0,0,16,23a10.3,10.3,0,0,0-.33,10.58,17.45,17.45,0,0,0,1.72,2.57c2.47,3.33,5,6.63,7.53,10l.39-.44c1.15-1.54,2.31-3.07,3.47-4.61a16.56,16.56,0,0,1-1.6-2.44,12.77,12.77,0,0,1-1.31-4.11,5.26,5.26,0,0,1-1,.08,6,6,0,0,1-4.29-1.82,4,4,0,0,1-.28-.3l-.22-.27L20,32a6,6,0,0,1-1.08-3.37A6.12,6.12,0,0,1,29.6,24.44a10.73,10.73,0,0,1,3.81-2.36A10.47,10.47,0,0,0,25.35,18Z"/><path class="cls-30" d="M37.9,22.59a9.93,9.93,0,0,0-9.32,5,10.32,10.32,0,0,0-.33,10.58A17.45,17.45,0,0,0,30,40.73c2.47,3.33,5,6.63,7.53,10l.39-.44,7.87-10.47A11.14,11.14,0,0,0,47.94,35,10.45,10.45,0,0,0,37.9,22.59Zm4.58,14.2-.11.15c-.06.07-.12.13-.17.2a7,7,0,0,1-.62.6,6.12,6.12,0,0,1-1.68,1l-.29.11a6.58,6.58,0,0,1-2.14.36,6,6,0,0,1-4.29-1.82,2.68,2.68,0,0,1-.28-.3l-.22-.27-.18-.24a6,6,0,0,1-1.08-3.38,6.15,6.15,0,1,1,12.3-.13A6.05,6.05,0,0,1,42.48,36.79Z"/><path class="cls-31" d="M49.8,18a9.94,9.94,0,0,1,9.31,5,10.3,10.3,0,0,1,.33,10.58,17.45,17.45,0,0,1-1.72,2.57c-2.47,3.33-5,6.63-7.52,10-.2-.22-.31-.33-.39-.44-1.16-1.54-2.32-3.07-3.47-4.61a17.36,17.36,0,0,0,1.59-2.44,13.07,13.07,0,0,0,1.32-4.1,6.15,6.15,0,0,0,1,.07,6,6,0,0,0,4.29-1.82,2.68,2.68,0,0,0,.28-.3c.08-.08.15-.18.23-.27L55.2,32a5.92,5.92,0,0,0,1.07-3.37,6.12,6.12,0,0,0-10.73-4.2,10.58,10.58,0,0,0-3.8-2.37A10.48,10.48,0,0,1,49.8,18Z"/><path class="cls-32" d="M37.57,73.08A36.07,36.07,0,1,0,1.5,37,36.11,36.11,0,0,0,37.57,73.08Zm0-71.39A35.32,35.32,0,1,1,2.25,37,35.36,35.36,0,0,1,37.57,1.69Z"/></svg>