<?xml version="1.0" encoding="utf-8"?>
<!-- Generator: Adobe Illustrator 26.0.1, SVG Export Plug-In . SVG Version: 6.00 Build 0)  -->
<svg version="1.1" id="Layer_1" xmlns="http://www.w3.org/2000/svg" xmlns:xlink="http://www.w3.org/1999/xlink" x="0px" y="0px"
	 viewBox="0 0 74 74" style="enable-background:new 0 0 74 74;" xml:space="preserve">
<style type="text/css">
	.st0{fill:url(#SVGID_1_);}
	.st1{fill:url(#SVGID_00000129177219908004591870000016705289343799760000_);}
	.st2{fill:url(#SVGID_00000019654742106007395290000000398619071007058829_);}
	.st3{fill:url(#SVGID_00000050621280942006520980000007374756099580101046_);}
	.st4{fill:url(#SVGID_00000134239337165286862540000005253837027767713691_);}
	.st5{fill:url(#SVGID_00000160177585466049265510000018119516363655992998_);}
	.st6{fill:url(#SVGID_00000150802856540224727270000000650643218735157902_);}
	.st7{fill:url(#SVGID_00000123403695609223680310000009454966002656371380_);}
	.st8{fill:url(#SVGID_00000103224096661976292590000002733077447445142657_);}
	.st9{fill:url(#SVGID_00000170236103034737813940000009505703230744387722_);}
	.st10{fill:url(#SVGID_00000088134675664320241800000010731893354351779248_);}
	.st11{fill:url(#SVGID_00000158014661362314014210000008059407928860081808_);}
	.st12{fill:url(#SVGID_00000077320515438222432780000013427613304586969014_);}
	.st13{fill:url(#SVGID_00000122000262914494009830000002817466677615146419_);}
	.st14{fill:url(#SVGID_00000087402815984088449190000000060117873236247229_);}
	.st15{fill:url(#SVGID_00000134213640764009226530000009571488831975968411_);}
	.st16{fill:url(#SVGID_00000121964876669392780250000007600896675164640905_);}
	.st17{fill:url(#SVGID_00000006701218813862197950000014715578546569587602_);}
	.st18{fill:url(#SVGID_00000039812661402582029130000004925541953062014617_);}
	.st19{fill:url(#SVGID_00000153689445144534442240000002389416167866891158_);}
	.st20{fill:url(#SVGID_00000083067312530575562740000008141992973727634057_);}
	.st21{fill:url(#SVGID_00000038404938917780128080000014204307107724133035_);}
	.st22{fill:url(#SVGID_00000148657610372091134520000009075424486196413610_);}
	.st23{fill:url(#SVGID_00000129927400613705811630000012134802609223843205_);}
	.st24{fill:url(#SVGID_00000050653726871824359970000017662539091771607724_);}
	.st25{fill:url(#SVGID_00000042721503174350453410000002768253885722072499_);}
	.st26{fill:url(#SVGID_00000105422385613252251190000006718202644104524160_);}
	.st27{fill:url(#SVGID_00000006682005448389901820000007735472935252085439_);}
	.st28{fill:url(#SVGID_00000059287878049690079940000006247593905892353211_);}
	.st29{fill:url(#SVGID_00000145045723555356753610000012451919460255210917_);}
	.st30{fill:url(#SVGID_00000080167937374398565470000009443396820786086791_);}
	.st31{fill:url(#SVGID_00000035510337122545769860000001558586047477633980_);}
	.st32{fill:url(#SVGID_00000165930014042171013250000002022691498769167022_);}
	.st33{fill:url(#SVGID_00000179610597611129711260000002918777556978279351_);}
	.st34{fill:url(#SVGID_00000081631407289070826630000012218733867772787630_);}
	.st35{fill:url(#SVGID_00000137115472838820900730000010205324708381528244_);}
	.st36{fill:url(#SVGID_00000127031404540549857010000002880903607130267531_);}
	.st37{fill:url(#SVGID_00000132786503673159313510000011712985300782377897_);}
	.st38{fill:url(#SVGID_00000101096554479331608160000004384706414586714756_);}
	.st39{fill:url(#SVGID_00000135680114279629660370000016476353275557510275_);}
	.st40{fill:url(#SVGID_00000140006541207585765900000018050976940277230013_);}
	.st41{fill:url(#SVGID_00000019667512396607860400000008089849303463699391_);}
	.st42{fill:url(#SVGID_00000021827247285713179990000003210413070080872320_);}
	.st43{fill:url(#SVGID_00000065069003887030524940000010124862008044479887_);}
	.st44{fill:url(#SVGID_00000102542504528970438490000014796626347978301076_);}
	.st45{fill:url(#SVGID_00000080192764796053949110000005509408620762781879_);}
	.st46{fill:url(#SVGID_00000118364707531675087060000011533704387939560863_);}
	.st47{fill:url(#SVGID_00000131336670320242919760000016707789061655872145_);}
	.st48{fill:url(#SVGID_00000096747456566218361900000012561303232458480055_);}
	.st49{fill:url(#SVGID_00000015355558422305604350000015356870435652364954_);}
	.st50{fill:url(#SVGID_00000159443078931635708890000010727030419708135589_);}
	.st51{fill:url(#SVGID_00000085241843547760912800000013743793068186252990_);}
	.st52{fill:url(#SVGID_00000037689287929387864600000016946544759462995073_);}
	.st53{fill:url(#SVGID_00000029765190210730150200000003711382703478510227_);}
	.st54{fill:url(#SVGID_00000063603960864312301670000008215356292826960307_);}
	.st55{fill:url(#SVGID_00000012472456261440541430000011214614530686667962_);}
</style>
<g>
	<linearGradient id="SVGID_1_" gradientUnits="userSpaceOnUse" x1="59.1939" y1="60.5461" x2="16.1594" y2="17.8427">
		<stop  offset="0" style="stop-color:#1C78AD"/>
		<stop  offset="0.9944" style="stop-color:#32CA9B"/>
	</linearGradient>
	<path class="st0" d="M44.6,43.8c-5.2,0-10.2,0-15.4,0c0,0.2,0,0.4,0,0.6c0,0.7-0.5,1.2-1.2,1.2c-0.6,0-1.2-0.5-1.2-1.2
		c0-0.2,0-0.4,0-0.6c0-1-0.1-2.1-0.1-3.1c0-1.1-0.1-2.2-0.1-3.3c0-0.8,0.4-1.6,0.8-2.3c-0.4-0.1-0.8-0.2-1.2-0.3
		c-0.7-0.3-0.9-0.8-0.7-1.3c0.3-0.7,1-1.1,1.6-1c0.7,0.2,1.1,0.7,1.3,1.5c0.1-0.2,0.1-0.3,0.2-0.4c0.3-0.7,0.6-1.4,0.8-2.2
		c0.5-1.3,1.5-2,2.8-2c3,0,6.1,0,9.1,0c1.3,0,2.2,0.6,2.8,1.8c0.4,0.8,0.8,1.6,1.2,2.4c0.3-0.6,0.7-1,1.3-1.1
		c0.7-0.2,1.6,0.6,1.6,1.3c0,0.3-0.2,0.6-0.4,0.8c-0.4,0.3-0.7,0.4-1.5,0.5c0.2,0.5,0.4,1,0.6,1.5c0.1,0.3,0.1,0.6,0.1,0.9
		c0,1.4,0,2.8-0.2,4.3c-0.1,0.9,0,1.9,0,2.8c0,0.6-0.5,1.1-1.2,1.1c-0.6,0-1.1-0.5-1.2-1.1C44.5,44.3,44.6,44,44.6,43.8z M29.7,33.7
		c4.9,0,9.6,0,14.5,0c-0.5-0.9-0.7-2-1.3-2.8c-0.4-0.5-0.9-0.7-1.5-0.7c-3,0-6,0-9,0c-0.9,0-1.5,0.4-1.9,1.2
		C30.2,32.2,30,32.9,29.7,33.7z M44.3,41c-5,0-9.9,0-14.9,0c0.3,0.4,0.5,0.7,1.1,0.7c4.2,0,8.5,0,12.7,0C43.7,41.7,44,41.4,44.3,41z
		 M36.9,38.4c1.4,0,2.9,0,4.3,0c0.4,0,0.6,0,0.8-0.4c0.1-0.1,0.1-0.3,0.2-0.5c-0.2,0-0.3-0.1-0.5-0.1c-1.2,0-2.3,0-3.5,0
		c-1.3,0-2.7,0-4,0c-0.8,0-1.5,0-2.3,0c-0.2,0-0.4,0.1-0.3,0.3c0,0.3,0.5,0.7,0.7,0.7C33.8,38.4,35.3,38.4,36.9,38.4z M30.4,42
		c0.3,0.5,0.7,0.7,1.3,0.7c3.5,0,6.9,0,10.4,0c0.5,0,0.9-0.3,1.3-0.7C39,42,34.7,42,30.4,42z M41.4,38.8c-3,0-6,0-9.1,0
		c0.2,0.3,0.4,0.5,0.5,0.7c0.1,0.1,0.3,0.2,0.5,0.2c2.4,0,4.7,0,7.1,0c0.1,0,0.3-0.1,0.4-0.2C41,39.4,41.2,39.1,41.4,38.8z
		 M43.5,38.2c0.9,0.6,1.4,0.4,2.3-0.7C45.1,37,44.3,37.1,43.5,38.2z M30.3,38.2c-0.8-1.1-1.7-1.3-2.3-0.6
		C28.8,38.7,29.4,38.9,30.3,38.2z"/>
	
		<linearGradient id="SVGID_00000098187944382454484890000007987311239931952286_" gradientUnits="userSpaceOnUse" x1="56.9978" y1="62.7593" x2="13.9633" y2="20.0558">
		<stop  offset="0" style="stop-color:#1C78AD"/>
		<stop  offset="0.9944" style="stop-color:#32CA9B"/>
	</linearGradient>
	<path style="fill:url(#SVGID_00000098187944382454484890000007987311239931952286_);" d="M61.7,31.2c0,4,0,8,0,12.1
		c0,1-0.1,2.8-1.1,4.8c-0.2,0.4-0.9,1.6-2.1,2.9c-1.5,1.4-3.3,2.3-5.3,2.9c-2,0.6-4,0.8-6.1,0.8c-8.4,0-16.8,0-25.2,0
		c-0.5,0-0.5-0.1-0.5,0.5c0,1.4,0,2.8,0,4.2c0,0.4-0.1,0.8-0.2,1.2c-0.3,0.7-0.9,0.9-1.6,0.8c-0.4-0.1-0.8-0.3-1.1-0.6
		c-2.4-2.5-4.8-5-7.3-7.4c-0.3-0.3-0.6-0.6-0.9-1c-0.5-0.7-0.5-1.4,0-2.1c0.1-0.2,0.3-0.3,0.4-0.5c2.6-2.7,5.2-5.3,7.8-8
		c0.4-0.4,1-0.6,1.5-0.5c0.6,0,0.9,0.4,1.1,0.9c0.1,0.4,0.2,0.7,0.2,1.1c0,1.5,0,2.9,0,4.4c0,0.3,0.1,0.3,0.3,0.3
		c8.4,0,16.8,0,25.2,0c1.5,0,3-0.2,4.4-0.9c1.7-0.8,2.9-2,3.4-3.8c0.1-0.3,0.1-0.6,0.1-0.8c0.1-1.5,0.1-4,0-4.6
		C57.2,35.6,59.5,33.4,61.7,31.2z"/>
	
		<linearGradient id="SVGID_00000183247949454038909900000009156917728746053518_" gradientUnits="userSpaceOnUse" x1="62.5213" y1="57.1929" x2="19.4868" y2="14.4895">
		<stop  offset="0" style="stop-color:#1C78AD"/>
		<stop  offset="0.9944" style="stop-color:#32CA9B"/>
	</linearGradient>
	<path style="fill:url(#SVGID_00000183247949454038909900000009156917728746053518_);" d="M11.6,42.8c0-3.9,0-7.9,0-11.8
		c0-1.1,0.1-3.6,1.7-6.1c1.6-2.5,3.8-3.5,4.9-4c1.8-0.8,3.7-1.2,5.6-1.4c1.2-0.1,2.5-0.1,3.7-0.1c7.9,0,15.9,0,23.8,0
		c0.5,0,0.5,0,0.5-0.6c0-1.4,0-2.8,0-4.2c0-0.5,0.1-0.9,0.3-1.3c0.3-0.5,0.9-0.8,1.5-0.6c0.4,0.1,0.8,0.3,1.1,0.6
		c2.4,2.5,4.9,5,7.3,7.5c0.3,0.3,0.6,0.6,0.8,0.9c0.4,0.6,0.4,1.2,0.1,1.8c-0.2,0.4-0.4,0.7-0.7,1c-2.5,2.6-5,5.1-7.6,7.7
		c-0.4,0.4-0.9,0.6-1.4,0.6c-0.7,0-1.2-0.4-1.4-1.1c-0.1-0.3-0.1-0.6-0.1-1c0-1.4,0-2.9,0-4.3c0-0.3-0.1-0.4-0.4-0.4
		c-8.4,0-16.8,0-25.1,0c-1.6,0-3.1,0.2-4.5,0.9c-1.8,0.8-3.1,2.1-3.5,4.1c0,0.2,0,0.4,0,0.5c-0.1,1.3-0.1,3.8-0.1,4.7
		C16,38.4,13.8,40.6,11.6,42.8z"/>
</g>
<linearGradient id="SVGID_00000163041589927619014010000004827032880868602274_" gradientUnits="userSpaceOnUse" x1="177.1803" y1="37.0145" x2="249.3199" y2="37.0145" gradientTransform="matrix(-1 0 0 1 249.8222 0)">
	<stop  offset="0" style="stop-color:#1C78AD"/>
	<stop  offset="0.9944" style="stop-color:#32CA9B"/>
</linearGradient>
<path style="fill:url(#SVGID_00000163041589927619014010000004827032880868602274_);" d="M36.6,73.1c19.9,0,36.1-16.2,36.1-36.1
	c0-19.9-16.2-36.1-36.1-36.1S0.5,17.1,0.5,37C0.5,56.9,16.7,73.1,36.6,73.1z M36.6,1.7C56,1.7,71.9,17.5,71.9,37S56,72.3,36.6,72.3
	S1.3,56.5,1.3,37S17.1,1.7,36.6,1.7z"/>
</svg>
