<svg id="Layer_1" data-name="Layer 1" xmlns="http://www.w3.org/2000/svg" xmlns:xlink="http://www.w3.org/1999/xlink" viewBox="0 0 1200 750"><defs><style>.cls-1{fill:#1c78ad;}.cls-2{fill:url(#linear-gradient);}.cls-3{fill:#3299cc;}.cls-4{fill:#4bb6e0;}.cls-5{fill:url(#linear-gradient-2);}.cls-6{fill:#099ecc;}.cls-7{fill:url(#linear-gradient-3);}.cls-8{opacity:0.2;}.cls-9{fill:url(#linear-gradient-4);}.cls-10{fill:url(#linear-gradient-5);}.cls-11{fill:url(#linear-gradient-6);}.cls-12{fill:url(#linear-gradient-7);}.cls-13{fill:url(#linear-gradient-8);}.cls-14{fill:url(#linear-gradient-9);}.cls-15{fill:url(#linear-gradient-10);}.cls-16{fill:url(#linear-gradient-11);}.cls-17{fill:url(#linear-gradient-12);}.cls-18{fill:url(#linear-gradient-13);}.cls-19{fill:none;stroke:#1c78ad;stroke-miterlimit:10;stroke-width:3px;}.cls-20{fill:#f2c09a;}.cls-21{fill:url(#linear-gradient-14);}.cls-22{fill:url(#linear-gradient-15);}.cls-23{fill:url(#radial-gradient);}.cls-24{fill:#0d2436;}.cls-25{fill:url(#linear-gradient-16);}.cls-26{fill:url(#linear-gradient-17);}.cls-27{fill:url(#linear-gradient-18);}.cls-28{fill:url(#linear-gradient-19);}.cls-29{fill:#f2e006;}.cls-30{fill:url(#linear-gradient-20);}.cls-31{fill:url(#linear-gradient-21);}.cls-32{fill:url(#linear-gradient-22);}.cls-33{fill:url(#linear-gradient-23);}.cls-34{fill:url(#linear-gradient-24);}.cls-35{fill:url(#linear-gradient-25);}.cls-36{fill:url(#linear-gradient-26);}.cls-37{fill:url(#linear-gradient-27);}.cls-38{fill:url(#linear-gradient-28);}.cls-39{fill:#cdd9ff;}</style><linearGradient id="linear-gradient" x1="595.2" y1="549.48" x2="595.2" y2="282.64" gradientTransform="matrix(1, 0, 0, -1, 0, 750)" gradientUnits="userSpaceOnUse"><stop offset="0" stop-color="#1c78ad"/><stop offset="0.99" stop-color="#32ca9b"/></linearGradient><linearGradient id="linear-gradient-2" x1="369.47" y1="553.64" x2="369.47" y2="277.29" xlink:href="#linear-gradient"/><linearGradient id="linear-gradient-3" x1="818.9" y1="550.86" x2="818.9" y2="273.96" xlink:href="#linear-gradient"/><linearGradient id="linear-gradient-4" x1="289.24" y1="421.42" x2="355.31" y2="421.42" gradientTransform="matrix(1, 0, 0, -1, 0, 750)" gradientUnits="userSpaceOnUse"><stop offset="0" stop-color="#eaafc8"/><stop offset="1" stop-color="#ff416c"/></linearGradient><linearGradient id="linear-gradient-5" x1="390.61" y1="415.1" x2="436.77" y2="415.1" xlink:href="#linear-gradient-4"/><linearGradient id="linear-gradient-6" x1="500.66" y1="423.38" x2="552.68" y2="423.38" xlink:href="#linear-gradient-4"/><linearGradient id="linear-gradient-7" x1="636.37" y1="446.78" x2="689.1" y2="446.78" xlink:href="#linear-gradient-4"/><linearGradient id="linear-gradient-8" x1="765.35" y1="465.38" x2="886.21" y2="465.38" xlink:href="#linear-gradient-4"/><linearGradient id="linear-gradient-9" x1="390.56" y1="292.18" x2="436.79" y2="292.18" xlink:href="#linear-gradient-4"/><linearGradient id="linear-gradient-10" x1="520.26" y1="319.56" x2="569.58" y2="319.56" xlink:href="#linear-gradient-4"/><linearGradient id="linear-gradient-11" x1="632.16" y1="363.75" x2="688.98" y2="363.75" xlink:href="#linear-gradient-4"/><linearGradient id="linear-gradient-12" x1="714.76" y1="392.81" x2="786.12" y2="392.81" xlink:href="#linear-gradient-4"/><linearGradient id="linear-gradient-13" x1="839.99" y1="399.69" x2="886.22" y2="399.69" xlink:href="#linear-gradient-4"/><linearGradient id="linear-gradient-14" x1="560.07" y1="306.32" x2="560.19" y2="305.99" gradientTransform="matrix(1, 0, 0, -1, 0, 750)" gradientUnits="userSpaceOnUse"><stop offset="0" stop-color="#e2472b"/><stop offset="1" stop-color="#e97424"/></linearGradient><linearGradient id="linear-gradient-15" x1="560.17" y1="311.64" x2="561.82" y2="307.34" xlink:href="#linear-gradient-14"/><radialGradient id="radial-gradient" cx="593.38" cy="254.54" r="61.03" gradientTransform="matrix(1, 0, 0, -1, 0, 750)" gradientUnits="userSpaceOnUse"><stop offset="0" stop-color="#191919"/><stop offset="1" stop-color="#191919"/></radialGradient><linearGradient id="linear-gradient-16" x1="515.09" y1="298.94" x2="657.52" y2="251.46" gradientTransform="matrix(1, 0, 0, -1, 0, 750)" gradientUnits="userSpaceOnUse"><stop offset="0" stop-color="#5a6570"/><stop offset="1" stop-color="#7c8d9c"/></linearGradient><linearGradient id="linear-gradient-17" x1="551.11" y1="260.88" x2="598.83" y2="270.97" gradientTransform="matrix(1, 0, 0, -1, 0, 750)" gradientUnits="userSpaceOnUse"><stop offset="0" stop-color="#7c8d9c"/><stop offset="1" stop-color="#5a6570"/></linearGradient><linearGradient id="linear-gradient-18" x1="595.77" y1="266.5" x2="651.55" y2="294.49" xlink:href="#linear-gradient-16"/><linearGradient id="linear-gradient-19" x1="660.83" y1="252.65" x2="651.4" y2="267.08" gradientTransform="matrix(1, 0, 0, -1, 0, 750)" gradientUnits="userSpaceOnUse"><stop offset="0" stop-color="#e9937c"/><stop offset="1" stop-color="#f2c09a"/></linearGradient><linearGradient id="linear-gradient-20" x1="592.85" y1="385.03" x2="599.56" y2="374.11" xlink:href="#linear-gradient-19"/><linearGradient id="linear-gradient-21" x1="594.36" y1="400.56" x2="601.94" y2="429.55" gradientTransform="matrix(1, 0, 0, -1, 0, 750)" gradientUnits="userSpaceOnUse"><stop offset="0" stop-color="#080e26"/><stop offset="1" stop-color="#080e26"/></linearGradient><linearGradient id="linear-gradient-22" x1="586.74" y1="377.39" x2="596.83" y2="360.84" xlink:href="#linear-gradient-19"/><linearGradient id="linear-gradient-23" x1="578.46" y1="424.57" x2="606.9" y2="398.65" xlink:href="#linear-gradient-19"/><linearGradient id="linear-gradient-24" x1="624.26" y1="314.92" x2="639.16" y2="276.05" xlink:href="#linear-gradient-14"/><linearGradient id="linear-gradient-25" x1="560.69" y1="313.91" x2="574.03" y2="279.1" xlink:href="#linear-gradient-14"/><linearGradient id="linear-gradient-26" x1="527.17" y1="254.55" x2="539.8" y2="269.33" xlink:href="#linear-gradient-19"/><linearGradient id="linear-gradient-27" x1="593.78" y1="270.19" x2="593.78" y2="313.53" gradientTransform="matrix(1, 0, 0, -1, 0, 750)" gradientUnits="userSpaceOnUse"><stop offset="0" stop-color="#231f20"/><stop offset="1" stop-color="#231f20"/></linearGradient><linearGradient id="linear-gradient-28" x1="546.91" y1="312.9" x2="638.9" y2="312.9" gradientTransform="matrix(1, 0, 0, -1, 0, 750)" gradientUnits="userSpaceOnUse"><stop offset="0" stop-color="#f3f7ff"/><stop offset="1" stop-color="#cdd9ff"/></linearGradient></defs><path class="cls-1" d="M963.73,476.94H222.11c3.58-4.21,7.71-8.87,12.4-13.85a408.58,408.58,0,0,1,55.1-48.69,399.38,399.38,0,0,1,69.09-40.86l2.54-1.17q14-6.37,29.37-11.91c7.74-2.78,15.74-5.38,24-7.74q11.9-3.42,22.18-5.72c28-6.33,47.74-6.93,63.89-4.64,19.6,2.77,33.9,9.8,51.18,16,20.24,7.3,44.58,13.54,86.3,10.56a450.33,450.33,0,0,0,51.05-6.87l.55-.11c13.57-2.55,26.28-4.47,38.21-5.79a326,326,0,0,1,47-2,219.34,219.34,0,0,1,31.64,3.31A171.47,171.47,0,0,1,840,367.05a165.08,165.08,0,0,1,25.15,12.72,203.75,203.75,0,0,1,26.29,19.39c5.45,4.69,10.78,9.68,16.09,14.95,7.35,7.32,14.64,15.17,22,23.48q4.9,5.48,9.89,11.24C947.28,457.77,955.29,467.17,963.73,476.94Z"/><path class="cls-1" d="M1016.32,476.94c-58.32,2.19-85.17,0-141.64,39s-148.11-.69-234.21,19.92-212.92,26.79-251.8-19.24c-26.32-31.15-82.74-38.33-116.46-39.71h118.4v.28h46.17v-.28H840v.28h46.15v-.28h130.16Z"/><path class="cls-2" d="M689.1,317.29a242.24,242.24,0,0,0-4.77-36.83,130,130,0,0,0-8.63-26.76,103.64,103.64,0,0,0-19.84-29.45,79,79,0,0,0-27.24-18.1A92.54,92.54,0,0,0,594.09,200q-28.8,0-49.58,13.94t-31.66,40.53q-6.28,16.06-9.24,38.41-1.19,8.94-1.89,18.76-1.05,14.75-1.06,31.46c0,2,0,3.95,0,5.9a272.92,272.92,0,0,0,2.62,34.26,163.46,163.46,0,0,0,8.41,33.89,110.87,110.87,0,0,0,8.57,17.09q2.34,3.81,5,7.31a91,91,0,0,0,20,19.55,88.3,88.3,0,0,0,94.64,4.05q19.93-11.81,32.49-33.6A121.08,121.08,0,0,0,686,392c.37-2.15.71-4.35,1-6.62q1.26-9.17,1.92-19.66.78-12,.77-25.8Q689.74,328,689.1,317.29ZM621.79,427.64q-9.62,11.83-26.59,11.82-16.1,0-25.63-10.9c-.14-.15-.28-.3-.41-.46a47.61,47.61,0,0,1-5.76-8.74q-5.19-10-7.9-24.77-3.81-20.77-4-52.56c0-1.41,0-2.86,0-4.31q0-18.45,1.25-33.45Q554.87,277.72,561,262q9.49-24.54,33.88-24.56,17,0,26.59,11t13.66,32.5c.48,2.5.9,5.12,1.29,7.87A311.45,311.45,0,0,1,639.05,326c.06,3.33.1,6.74.1,10.26q0,32.38-3.2,53.47c-.22,1.42-.44,2.8-.68,4.14a107.67,107.67,0,0,1-3,12.92Q628.35,419.58,621.79,427.64Z"/><path class="cls-3" d="M911.35,476.94H272.21c4.8-3.77,11.23-8.57,19-13.85,21.64-14.74,53.67-33.14,89.73-42.79a197.41,197.41,0,0,1,27.7-5.4,158.63,158.63,0,0,1,37.6-.16c3.06.37,6.06.78,9,1.23a257.73,257.73,0,0,1,50.27,13.23c6.49,2.39,12.7,4.92,18.73,7.46q5.91,2.5,11.62,5c26.95,11.77,51.48,22.8,84,23.46h0A177.21,177.21,0,0,0,660.34,461c44-9.29,80.32-32.69,121.88-37.21a122,122,0,0,1,37.44,1.58,142.27,142.27,0,0,1,35.2,12.19c2,1,4,2,6.11,3.15a220.44,220.44,0,0,1,23.53,14.72A322.37,322.37,0,0,1,911.35,476.94Z"/><path class="cls-4" d="M891.66,476.94l-3.09.19c-160.15,9.13-93.5,47.26-213.85,56.58S526.6,528.58,491.43,502C461.52,479.44,382.1,477.13,359,476.94h31.65v.19h46.17v-.19H840v.19h46.15v-.19Z"/><path class="cls-5" d="M467.52,377.42q-8.58-3.89-22.81-3.88h-7.94V230.62q0-32.13-28.07-32.12a20.91,20.91,0,0,0-14.86,5.81q-6.18,5.82-15.79,18.74L314,308.73l-24.75,33.13L280.19,354q-4.06,5.36-6.83,9T268,370.68a35.59,35.59,0,0,0-3.88,7.57,21,21,0,0,0-1.3,7.1q0,13.68,8.77,21.62,6.56,5.92,18,7.43a65.54,65.54,0,0,0,8.3.5h92.7v62.41h46.16V436.75h0V414.9H448q14,0,21-4.89t7-15.61Q476.1,381.29,467.52,377.42Zm-156.31-3.88,18.58-25.11L355.31,314l35.3-47.7V373.54Z"/><path class="cls-6" d="M933,476.94H568c71.23-16.05,77.12-69.34,169.72-90.59C818.1,367.89,895.24,436.13,933,476.94Z"/><path class="cls-7" d="M917,377.42a39.89,39.89,0,0,0-9.56-2.83,75.58,75.58,0,0,0-13.25-1h-7.93V230.62q0-32.13-28.08-32.12a20.89,20.89,0,0,0-14.86,5.81q-6.18,5.82-15.79,18.74l-31.84,42.59-30.29,40.52L743.12,335.9l-10.43,14L729.62,354c-.57.76-1.14,1.49-1.68,2.21L722.79,363q-2.77,3.69-5.35,7.67a41.71,41.71,0,0,0-2.61,4.56,32.48,32.48,0,0,0-1.27,3,21,21,0,0,0-1.29,7.1,31,31,0,0,0,3,13.93A25.33,25.33,0,0,0,721,407q8.76,7.92,26.31,7.93H840v21.85h0v40.56h46.15V451.42c0-.71.05-1.44.05-2.18V414.9h11.26a58.25,58.25,0,0,0,10.1-.79,33.59,33.59,0,0,0,4.14-1,23.54,23.54,0,0,0,6.81-3.14q7-4.9,7-15.61Q925.54,381.29,917,377.42ZM840,373.54h-79.4l7.28-9.83,7.06-9.54,4.89-6.61,6.23-8.42L814,301.52,840,266.26V373.54Z"/><g class="cls-8"><path class="cls-9" d="M314,308.73c12.18,2,26,3.84,41.31,5.23l-25.52,34.47c-11.17-1.41-21.41-3-30.68-4.69q-5.06-.92-9.87-1.88Z"/><path class="cls-10" d="M436.77,316.3v37c-16.29.45-31.69.38-46.16-.11V316.17C405,316.69,420.39,316.77,436.77,316.3Z"/><path class="cls-11" d="M552.68,304.27q-1.24,15-1.25,33.45c0,1.45,0,2.9,0,4.31q-26.33,4.38-50.74,6.94c0-2,0-3.91,0-5.9q0-16.74,1.06-31.46C518,309.77,535,307.36,552.68,304.27Z"/><path class="cls-12" d="M684.33,280.46a242.24,242.24,0,0,1,4.77,36.83q-24,4-50.05,8.69a311.45,311.45,0,0,0-2.68-37.17Q661.42,284.3,684.33,280.46Z"/><path class="cls-13" d="M886.21,264.36v37.17A426.25,426.25,0,0,0,840,300.32V266.26L814,301.52c-15.38,1-31.55,2.59-48.6,4.64l30.29-40.52c18.91-1.61,36.82-2.49,54.05-2.55Q868.86,263,886.21,264.36Z"/></g><g class="cls-8"><path class="cls-14" d="M427.77,455.57l9-1.45v4l-8.6.94-10.36.83c-3.33.26-6.54.56-9.64.7l-8.88.51c-2.84.16-5.54.33-8.1.4l-.59,0v-1.6l.48-.05c2.55-.2,5.24-.5,8.05-.8l8.82-1c3.08-.29,6.25-.76,9.56-1.18Z"/><path class="cls-15" d="M569.16,428.1a6.1,6.1,0,0,0,.41.46l-8.05,2.6c-5.09,1.58-10.15,3-15.13,4.49l-7.42,2.2c-2.48.69-5,1.33-7.39,2l-6.3,1.67q-2.62-3.5-5-7.3l8.75-2.81c2.38-.77,4.79-1.52,7.19-2.33l7.23-2.53c4.85-1.73,9.78-3.39,14.71-5.22l5.21-2A47.27,47.27,0,0,0,569.16,428.1Z"/><path class="cls-16" d="M686,367.07l3-1.35q-.66,10.5-1.92,19.67-7.27,2.91-14.5,5.79c-5.4,2.16-10.77,4.33-16.21,6.37-8.1,3.08-16.12,6.23-24.12,9.22a107.67,107.67,0,0,0,3-12.92c.24-1.34.46-2.72.67-4.14,4.78-2.12,9.58-4.26,14.39-6.37,5.25-2.3,10.51-4.73,15.79-7.16L682,368.89Z"/><path class="cls-17" d="M786.1,339.14l-6.23,8.42L775,354.17l-7.06,9.54a321.79,321.79,0,0,0-46.86,9.66L717,374.56l-2.13.68a40,40,0,0,1,2.6-4.56q2.58-4,5.35-7.67c1.45-1.93,3.18-4.21,5.16-6.83l1.67-2.21,3.07-4.11a369.22,369.22,0,0,1,52.77-10.64Z"/><path class="cls-18" d="M886.21,337.29V365c-10.58-1.41-21.44-2.55-32.51-3.35q-6.78-.48-13.66-.8V335.63c5,0,9.94,0,14.85.11C865.53,336,876,336.51,886.21,337.29Z"/></g><polyline class="cls-19" points="1057.98 476.94 934.55 476.94 574.09 476.94 142.02 476.94"/><path class="cls-20" d="M561.06,440.06a17.19,17.19,0,0,1-.47,2.39c-.08.25-.15.5-.24.77s-.09.27-.13.41-.12.29-.18.44a1.22,1.22,0,0,0-.07.17,16.81,16.81,0,0,1-1.83,3.49c-.16.25-.34.51-.53.76s-.39.51-.61.76a32.56,32.56,0,0,0-2.79,5.34,1.67,1.67,0,0,0-.06.26c-5.83-1.94-9-16.44-9-16.44,2.78,1.17,7.54,2.12,14.37.1.44-.12.86-.26,1.31-.41a3.4,3.4,0,0,1,.34-.12h0A11.86,11.86,0,0,1,561.06,440.06Z"/><path class="cls-21" d="M560,444.07c.06-.15.11-.3.18-.44-.05.13-.1.27-.16.4A.08.08,0,0,1,560,444.07Z"/><path class="cls-22" d="M561.64,437.84a30,30,0,0,1-1.28,5.38c.08-.27.15-.52.23-.77a17.19,17.19,0,0,0,.47-2.39,11.86,11.86,0,0,0,.12-2.08Z"/><path class="cls-23" d="M666.41,497.76c-2.62,6.45-18.14-1.82-25.8-3.93s-33.87-3.84-46.26-4.14-39.69,1.37-50.2,6.14-21.68,6.46-22.68,2.92c-.5-1.73.53-4.49,1.75-6.88,28.62-6.81,65-9.73,110.28-4q12.12,1.55,25.11,3.93c2.72.51,5.46,1,8.23,1.61A6.68,6.68,0,0,1,666.41,497.76Z"/><path class="cls-24" d="M625.16,371.87c-5.54,5.75-14.31-.61-22.58-.61H582.65a18.41,18.41,0,0,0-7.15,1.41c-3.36,1.51-7.52,2.08-10.12,1s-6.17-5-2.08-10.42a29.22,29.22,0,0,0,4-7.53,34.36,34.36,0,0,0,1.83-15.08c-.91-8.93-1.82-20.79,7.11-29a18.82,18.82,0,0,1,4.09-2.91c6.85-3.5,11.88.72,14.2.72,2.76,0,6.72-4.91,13.45-.83s12.44,9.41,11.34,23.49c-.55,7.21-.65,12.26-.08,16.51a33.17,33.17,0,0,0,1,4.9,38.22,38.22,0,0,0,2.5,6.21,3.8,3.8,0,0,0,.38.58C624.89,362.67,630.26,366.59,625.16,371.87Z"/><path class="cls-25" d="M662.39,498.81c-10.39.21-16.19-6.3-24-7.21-1.43,0-6.83-.62-12.69-1.28h0c-8.26-.94-17.38-2.05-17.38-2.05-5.47-.48-10.36-1-14.73-1.48-20-2.33-29.32-4.71-33.13-5.78l-1.34-.39c-3.16-.91-9.42-.61-16.28-3.33-8.72-4.89-9.87-13.4-5.09-19.8,4.37-5.84,14.73-3.39,16.52-2.9l-.06.25s3.7,2.59,15.4,4.47c11.08,1.76,22.86,6.48,24.05,7l.1,0,.12-.05c1.88.9,26.17,12.52,32.07,14.46l1,.29a13.9,13.9,0,0,0,3.53.39c4.42,0,8.82-1.88,14.81-2.67,8-1.06,6.55,3.3,9.12,8.64s5.7,4.28,8.49,7.62S662.39,498.81,662.39,498.81Z"/><path class="cls-26" d="M593.53,486.79c-4.25.48-9,.95-14.23,1.42,0,0-13.41,1.62-22.44,2.61a33.88,33.88,0,0,1-.28-9.49,14.55,14.55,0,0,0,3.81-.32C564.21,482.08,573.49,484.46,593.53,486.79Z"/><path class="cls-27" d="M644.78,477.23c-6.86,2.72-13.12,2.42-16.29,3.33l-1.58.44c-.34-.08-.68-.18-1-.29-5.9-1.93-30.19-13.56-32.08-14.45l-.12.05-.09,0,.14-.07.12.05s12.46-5.14,24.15-7,15.39-4.46,15.39-4.46a1.14,1.14,0,0,0-.06-.25c1.79-.49,12.16-2.94,16.53,2.9C654.64,463.83,653.5,472.35,644.78,477.23Z"/><path class="cls-20" d="M662.39,498.81c-10.39.21-16.19-6.3-24-7.21-1.05,0-4.29-.35-8.27-.8a24.83,24.83,0,0,0,1.19-9.42c4.14-.24,8.36-1.91,14-2.65,8-1.07,6.55,3.3,9.12,8.64s5.69,4.28,8.49,7.62S662.39,498.81,662.39,498.81Z"/><path class="cls-28" d="M650.17,486c3.08,5.26,5.61,10.24,9.32,12.71a22.89,22.89,0,0,0,2.9.12s3.26-.51.47-3.82-5.92-2.28-8.49-7.62c-2.06-4.3-1.51-8-5.42-8.66C648.35,480.56,648.42,483,650.17,486Z"/><path class="cls-29" d="M642.26,438.41a19.16,19.16,0,0,1-10.38,1l-1.33-.24-1.34-.3-1-.27-1.16-.36-.82-.27a13.56,13.56,0,0,0,.07,1.55h0c.05.49.14,1.1.27,1.78a16.51,16.51,0,0,0,.54,2h0a18.12,18.12,0,0,0,3.3,5.91c.16.24,2.57,3.8,3,5.51,0,0,0,.06,0,.09a24.67,24.67,0,0,1-3.67,1.59c-.74.27-1.6.55-2.61.83l0,0-.56.16a80.11,80.11,0,0,1-8.69,1.86c-11,1.75-22.73,6.42-24,6.95l-.12.05s-12.46-5.14-24.14-7-15.39-4.47-15.39-4.47a1.84,1.84,0,0,1,.05-.25,31.64,31.64,0,0,1,2.8-5.34c.21-.25.41-.51.6-.76s.38-.51.54-.76a17.24,17.24,0,0,0,1.82-3.49,1.22,1.22,0,0,0,.07-.17c.06-.15.11-.3.18-.44s.09-.26.14-.41.15-.52.23-.77a17.19,17.19,0,0,0,.47-2.39,11.86,11.86,0,0,0,.12-2.08h0a3.4,3.4,0,0,0-.34.12c-.44.15-.87.29-1.3.41-6.84,2-11.6,1.07-14.38-.1-.11-2.9-.31-6.28-.32-10.06,0-8,.8-17.72,5.3-27.71.58-1.29,1.22-2.57,1.92-3.87a59.93,59.93,0,0,1,5.56-8.39c.06-.05.1-.12.15-.17a37.67,37.67,0,0,1,5.25-5,62.8,62.8,0,0,1,8-5.4c3-1.75,6.06-3.31,8.94-4.65,2.22-1,4.33-1.94,6.2-2.7,4.49-1.81,7.59-2.8,7.59-2.8s3.1,1,7.59,2.8c2.44,1,5.29,2.23,8.28,3.68a89.5,89.5,0,0,1,11.62,6.67A45.5,45.5,0,0,1,628.6,387c.36.39.72.78,1,1.18a57.32,57.32,0,0,1,4.67,6.71,56.28,56.28,0,0,1,4.28,8.89c.28.73.54,1.46.78,2.18C643.57,418.68,642.54,430.45,642.26,438.41Z"/><path class="cls-29" d="M601.29,370.42v13.27c0,2-3.5,8.06-7.83,8.06s-7.35-6.24-7.35-8.06V370.42c4.49-1.81,7.58-2.8,7.58-2.8S596.8,368.61,601.29,370.42Z"/><path class="cls-20" d="M599.61,363.73v18.21a4.9,4.9,0,0,1-.65,2c-1,1.93-3.06,4.28-5.45,4.28-3.37,0-5.72-4.85-5.72-6.27V363.72a13,13,0,0,0,6.43,2.91C594.92,366.63,597.08,365.71,599.61,363.73Z"/><path class="cls-20" d="M610.15,345.86a.45.45,0,0,0,0,.16h0c-.07.38-.14.75-.23,1.12a24.39,24.39,0,0,1-.73,2.71c-.13.4-.26.8-.41,1.2s-.35.94-.54,1.39a28.63,28.63,0,0,1-8.59,11.29c-2.53,2-4.69,2.9-5.39,2.9a13,13,0,0,1-6.43-2.91,21.3,21.3,0,0,1-7.36-11.28c-.15-.52-.3-1.07-.42-1.64a25,25,0,0,1-.58-3.86,31.5,31.5,0,0,1,1.24-11.05,37,37,0,0,1,4-9.26h0a1.94,1.94,0,0,0,.13-.21s.38.56,1.09,1.49c0,0,0,0,.05.06a59.9,59.9,0,0,0,14.58,13.66,33.32,33.32,0,0,0,7.43,3.59c.64.23,1.3.41,2,.58Z"/><path class="cls-30" d="M599.61,363.73v13.81c-3.29-2.72-8.73-5.31-11.82-8.58v-5.24a13.06,13.06,0,0,0,6.42,2.91C594.92,366.63,597.08,365.71,599.61,363.73Z"/><path class="cls-31" d="M619.31,332.16c-.55,7.21-.65,12.26-.08,16.51a78.67,78.67,0,0,1-9.11-2.65.45.45,0,0,1,0-.16l-.2-.07c-.66-.17-1.32-.35-2-.58a57.92,57.92,0,0,1-7.44-3.59A60,60,0,0,1,586,328a.1.1,0,0,1-.05-.06,37.14,37.14,0,0,1-5.61-19.12c6.84-3.5,11.88.72,14.2.72,2.76,0,6.72-4.91,13.45-.83S620.4,318.08,619.31,332.16Z"/><path class="cls-32" d="M599,383.93c-1,1.93-3.06,4.27-5.45,4.27-3.37,0-5.72-4.85-5.72-6.26v-9.21c.67,5.46,2.51,13.16,7.56,12.19A22.29,22.29,0,0,0,599,383.93Z"/><path class="cls-33" d="M610.15,345.86a.45.45,0,0,0,0,.16h0a27,27,0,0,1-1,3.82c-.13.41-.26.81-.41,1.21C595.36,345.27,584.59,331,584.59,331a13.25,13.25,0,0,1-3.92,4.88,36.83,36.83,0,0,1,4-9.25h0l.13-.21s.38.56,1.09,1.49a.1.1,0,0,0,.05.06,60,60,0,0,0,14.57,13.66,33.61,33.61,0,0,0,7.44,3.59c.64.23,1.3.41,2,.58Z"/><path class="cls-34" d="M633.4,454.84a23.32,23.32,0,0,1-3.66,1.6c-.74.27-1.6.55-2.61.83-5.81-8-5.4-23.1-4.87-28.92a44.13,44.13,0,0,0-1-13.12H621s3.26-1.28,5.23,11.1a41,41,0,0,0,4.34,12.85l-1.34-.3-1-.27c-.64-.18-1.29-.39-2-.63a10,10,0,0,0,.06,1.55h0a17.33,17.33,0,0,0,.27,1.78,18.56,18.56,0,0,0,.54,2h0a17.84,17.84,0,0,0,3.3,5.91C630.55,449.49,633,453.16,633.4,454.84Z"/><path class="cls-35" d="M566.18,415.22A46.81,46.81,0,0,0,565,425c0,1.1,0,2.24.13,3.38.54,5.82,1,20.95-4.86,28.92l-1.29-.38a28.42,28.42,0,0,1-3-1.13,11.6,11.6,0,0,1-1.79-.91,1.67,1.67,0,0,1,.06-.26,32.56,32.56,0,0,1,2.79-5.34,14,14,0,0,0,1.14-1.52,8.63,8.63,0,0,0,.48-.75c.16-.25.3-.5.44-.75s.26-.5.38-.75.23-.49.33-.74.19-.45.27-.67a.08.08,0,0,0,0,0c.08-.24.17-.47.24-.69h0a20.63,20.63,0,0,0,.55-2c.13-.68.21-1.29.26-1.78h0a10,10,0,0,0,.06-1.55c-.67.24-1.33.45-2,.63l-1,.27-1.34.3a41,41,0,0,0,4.34-12.85c2-12.38,5.23-11.11,5.23-11.11Z"/><path class="cls-20" d="M556.86,490.82l-2.62.27c-2.44.26-4.27.43-5,.45-7.1.82-12.52,6.21-21.16,7.09a22.73,22.73,0,0,1-2.89.12s-3.27-.51-.47-3.82,5.91-2.28,8.49-7.62c2.06-4.29,1.51-8,5.42-8.66a11.4,11.4,0,0,1,3.7,0c4.91.64,8.76,2,12.41,2.49a17.14,17.14,0,0,0,1.86.17A33.88,33.88,0,0,0,556.86,490.82Z"/><path class="cls-36" d="M537.39,485.92c-3.09,5.26-5.61,10.24-9.33,12.71a22.73,22.73,0,0,1-2.89.12s-3.26-.51-.47-3.82,5.91-2.28,8.49-7.62c2.06-4.29,1.51-8,5.42-8.66C539.2,480.5,539.14,482.92,537.39,485.92Z"/><path class="cls-37" d="M633.41,454.85a24.67,24.67,0,0,1-3.67,1.59c-.74.27-1.6.55-2.61.83l0,0-.56.16a77.28,77.28,0,0,1-8.69,1.86c-11,1.75-22.73,6.42-24,6.95l-.12.05s-12.46-5.14-24.14-7A70.25,70.25,0,0,1,559,456.89a28.42,28.42,0,0,1-3-1.13,11.05,11.05,0,0,1-1.78-.91,1.72,1.72,0,0,1,.05-.26,31.64,31.64,0,0,1,2.8-5.34,17.2,17.2,0,0,0,1.14-1.52,8.63,8.63,0,0,0,.48-.75c.15-.25.3-.5.43-.75s.26-.5.38-.75.23-.49.33-.74.13-.33.2-.5a.61.61,0,0,0,.07-.17.08.08,0,0,0,0,0c.06-.13.11-.27.16-.4s.09-.26.14-.41a30,30,0,0,0,1.28-5.38,72,72,0,0,1,1.8-9.49A14.08,14.08,0,0,1,565,425c3.48-5.33,10.08-5.8,16.67-4.9,7.78,1.05,11.64.61,21.48-3.1s19,3.53,20.4,11.49a45.26,45.26,0,0,0,3.48,9.8l-.81-.28a10,10,0,0,0,.06,1.55h0a17.75,17.75,0,0,0,.27,1.78,18,18,0,0,0,.54,2h0a18.12,18.12,0,0,0,3.3,5.91C630.55,449.49,633.05,453.16,633.41,454.85Z"/><path class="cls-20" d="M642.26,438.41s0,10.67-8.85,16.34h0c-.43-1.71-2.84-5.27-3-5.51a18.12,18.12,0,0,1-3.3-5.91h0a16.51,16.51,0,0,1-.54-2,17.75,17.75,0,0,1-.27-1.78h0a11.15,11.15,0,0,1-.07-1.55l.82.27c.39.14.77.26,1.16.36l1,.27,1.34.3,1.33.24A19.06,19.06,0,0,0,642.26,438.41Z"/><polygon class="cls-38" points="638.9 414.52 634.13 455.75 633.67 459.68 552.14 459.68 551.69 455.75 546.91 414.52 638.9 414.52"/><polygon class="cls-39" points="634.13 455.75 633.67 459.68 552.14 459.68 551.69 455.75 634.13 455.75"/></svg>